<?xml version="1.0" encoding="utf-8"?>
<!-- Generator: Adobe Illustrator 21.0.2, SVG Export Plug-In . SVG Version: 6.00 Build 0)  -->
<svg version="1.1" id="Layer_1" xmlns="http://www.w3.org/2000/svg" xmlns:xlink="http://www.w3.org/1999/xlink" x="0px" y="0px"
	 viewBox="0 0 56 56" style="enable-background:new 0 0 56 56;" xml:space="preserve">
<style type="text/css">
	.st0{fill:#ACB4BA;}
</style>
<g>
	<g>
		<g>
			<path class="st0" d="M28,56C12.6,56,0,43.4,0,28S12.6,0,28,0s28,12.6,28,28S43.4,56,28,56z M28,1.8C13.5,1.8,1.8,13.5,1.8,28
				S13.5,54.2,28,54.2S54.2,42.5,54.2,28S42.5,1.8,28,1.8z"/>
		</g>
	</g>
	<g>
		<g>
			<g>
				<g>
					<path class="st0" d="M33.8,42c-3.4,3.8-6.8,6-9.3,6c-1.9,0-3.3-1.5-3.3-3.7c0-1.3,0.5-3.2,1.5-7.4l1.9-8
						c0.2-1.2,0.5-2.1-0.3-2.1c-0.7,0-2.3,1.7-3.3,3.3l-1.2-1c3.8-5.2,6.9-7.4,9.2-7.4c1.6,0,2.6,1.4,2.6,3.5c0,0.9-0.2,2.4-0.6,4.1
						l-3,12.4c-0.4,1.8-0.4,2.4,0.5,2.4c1,0,2.7-1.4,4.3-3.2L33.8,42z M31.4,8.6c1.9,0,3.2,1.3,3.2,3.4c0,3-2,5.5-4.4,5.5
						c-1.8,0-3.2-1.4-3.2-3.3C27,11,28.9,8.6,31.4,8.6z"/>
				</g>
			</g>
		</g>
	</g>
</g>
</svg>
