<svg id="Layer_1" data-name="Layer 1" xmlns="http://www.w3.org/2000/svg" viewBox="0 0 55.98 55.98"><defs><style>.cls-1{fill:#fff;}</style></defs><title>access_services_white</title><path class="cls-1" d="M28,55.99A27.99,27.99,0,1,1,55.99,28,28.022,28.022,0,0,1,28,55.99ZM28,1.759A26.241,26.241,0,1,0,54.241,28,26.271,26.271,0,0,0,28,1.759Z" transform="translate(-0.01 -0.01)"/><path class="cls-1" d="M42.014,28.875H14.024a0.875,0.875,0,0,1,0-1.749h27.99A0.875,0.875,0,1,1,42.014,28.875Z" transform="translate(-0.01 -0.01)"/><path class="cls-1" d="M30.624,40.246a0.875,0.875,0,0,1-.618-1.493L40.758,28,30.006,17.247a0.875,0.875,0,0,1,1.237-1.237L42.614,27.382a0.874,0.874,0,0,1,0,1.237L31.243,39.989A0.872,0.872,0,0,1,30.624,40.246Z" transform="translate(-0.01 -0.01)"/></svg>