<?xml version="1.0" encoding="utf-8"?>
<!-- Generator: Adobe Illustrator 18.1.1, SVG Export Plug-In . SVG Version: 6.00 Build 0)  -->
<!DOCTYPE svg PUBLIC "-//W3C//DTD SVG 1.1//EN" "http://www.w3.org/Graphics/SVG/1.1/DTD/svg11.dtd">
<svg version="1.1" id="Layer_1" xmlns="http://www.w3.org/2000/svg" xmlns:xlink="http://www.w3.org/1999/xlink" x="0px" y="0px"
	 viewBox="0 0 25 25" enable-background="new 0 0 25 25" xml:space="preserve">
<g>
	<path fill="#FFFFFF" d="M22.866,6.699l-5.022-5.022c-0.086-0.086-0.202-0.134-0.323-0.134H6.109c-0.755,0-1.37,0.614-1.37,1.37
		v2.38c0.289-0.149,0.595-0.269,0.913-0.36V2.913c0-0.252,0.205-0.457,0.457-0.457h10.957v3.449c0,0.867,0.705,1.572,1.572,1.572
		h3.449v14.609c0,0.252-0.205,0.457-0.457,0.457H6.109c-0.252,0-0.457-0.205-0.457-0.457v-1.826H4.739v1.826
		c0,0.755,0.614,1.37,1.37,1.37H21.63c0.755,0,1.37-0.614,1.37-1.37V7.022C23,6.901,22.952,6.785,22.866,6.699z"/>
	<path fill="#FFFFFF" d="M10.688,12.043h-0.014V9.886c0-1.945-1.468-3.644-3.409-3.769C5.138,5.979,3.37,7.663,3.37,9.761v2.283
		H3.356C2.607,12.043,2,12.651,2,13.399v4.136c0,0.749,0.607,1.356,1.356,1.356h7.332c0.749,0,1.356-0.607,1.356-1.356v-4.136
		C12.043,12.651,11.436,12.043,10.688,12.043z M4.739,12.043V9.715c0-1.261,1.022-2.283,2.283-2.283s2.283,1.022,2.283,2.283v2.328
		H4.739z"/>
</g>
</svg>
