<svg id="Layer_1" data-name="Layer 1" xmlns="http://www.w3.org/2000/svg" viewBox="0 0 55.98 48.983"><defs><style>.cls-1{fill:#acb4ba;}</style></defs><title>banking_services_grey</title><path class="cls-1" d="M55.116,19.253H0.884A0.875,0.875,0,0,1,.01,18.378V12.693a0.875,0.875,0,0,1,.618-0.836l27.116-8.31a0.873,0.873,0,0,1,.513,0l27.116,8.31a0.875,0.875,0,0,1,.618.836v5.686A0.875,0.875,0,0,1,55.116,19.253ZM1.759,17.5H54.241V13.34L28,5.3,1.759,13.34V17.5Z" transform="translate(-0.01 -3.509)"/><path class="cls-1" d="M33.248,45.494h-10.5a0.875,0.875,0,0,1-.875-0.875v-3.5a0.875,0.875,0,0,1,.875-0.875h0.875V22.752H22.752a0.875,0.875,0,0,1-.875-0.875v-3.5a0.875,0.875,0,0,1,.875-0.875h10.5a0.875,0.875,0,0,1,.875.875v3.5a0.875,0.875,0,0,1-.875.875H32.373V40.246h0.875a0.875,0.875,0,0,1,.875.875v3.5A0.875,0.875,0,0,1,33.248,45.494Zm-9.622-1.749h8.747V42H31.5a0.875,0.875,0,0,1-.875-0.875V21.877A0.875,0.875,0,0,1,31.5,21h0.875V19.253H23.627V21H24.5a0.875,0.875,0,0,1,.875.875V41.12A0.875,0.875,0,0,1,24.5,42H23.627v1.749Z" transform="translate(-0.01 -3.509)"/><path class="cls-1" d="M51.617,45.494H41.12a0.875,0.875,0,0,1-.875-0.875v-3.5a0.875,0.875,0,0,1,.875-0.875H42V22.752H41.12a0.875,0.875,0,0,1-.875-0.875v-3.5A0.875,0.875,0,0,1,41.12,17.5h10.5a0.875,0.875,0,0,1,.875.875v3.5a0.875,0.875,0,0,1-.875.875H50.742V40.246h0.875a0.875,0.875,0,0,1,.875.875v3.5A0.875,0.875,0,0,1,51.617,45.494ZM42,43.745h8.747V42H49.867a0.875,0.875,0,0,1-.875-0.875V21.877A0.875,0.875,0,0,1,49.867,21h0.875V19.253H42V21H42.87a0.875,0.875,0,0,1,.875.875V41.12A0.875,0.875,0,0,1,42.87,42H42v1.749Z" transform="translate(-0.01 -3.509)"/><path class="cls-1" d="M14.88,45.494H4.383a0.875,0.875,0,0,1-.875-0.875v-3.5a0.875,0.875,0,0,1,.875-0.875H5.258V22.752H4.383a0.875,0.875,0,0,1-.875-0.875v-3.5A0.875,0.875,0,0,1,4.383,17.5h10.5a0.875,0.875,0,0,1,.875.875v3.5a0.875,0.875,0,0,1-.875.875H14V40.246H14.88a0.875,0.875,0,0,1,.875.875v3.5A0.875,0.875,0,0,1,14.88,45.494ZM5.258,43.745H14V42H13.13a0.875,0.875,0,0,1-.875-0.875V21.877A0.875,0.875,0,0,1,13.13,21H14V19.253H5.258V21H6.133a0.875,0.875,0,0,1,.875.875V41.12A0.875,0.875,0,0,1,6.133,42H5.258v1.749Z" transform="translate(-0.01 -3.509)"/><path class="cls-1" d="M55.116,52.491H0.884A0.875,0.875,0,0,1,.01,51.617v-7a0.875,0.875,0,0,1,.875-0.875H55.116a0.875,0.875,0,0,1,.875.875v7A0.875,0.875,0,0,1,55.116,52.491ZM1.759,50.742H54.241V45.494H1.759v5.248Z" transform="translate(-0.01 -3.509)"/></svg>