<?xml version="1.0" encoding="utf-8"?>
<!-- Generator: Adobe Illustrator 19.2.0, SVG Export Plug-In . SVG Version: 6.00 Build 0)  -->
<!DOCTYPE svg PUBLIC "-//W3C//DTD SVG 1.1//EN" "http://www.w3.org/Graphics/SVG/1.1/DTD/svg11.dtd">
<svg version="1.1" id="Layer_1" xmlns="http://www.w3.org/2000/svg" xmlns:xlink="http://www.w3.org/1999/xlink" x="0px" y="0px"
	 viewBox="0 0 40 40" enable-background="new 0 0 40 40" xml:space="preserve">
<g>
	<g>
		<path fill="#FFFFFF" d="M15,29.5c-2.481,0-4.5-2.019-4.5-4.5V15c0-2.481,2.019-4.5,4.5-4.5h10c2.481,0,4.5,2.019,4.5,4.5v10
			c0,2.481-2.019,4.5-4.5,4.5H15z"/>
		<path fill="#D6D9DC" d="M25,11c2.206,0,4,1.794,4,4v10c0,2.206-1.794,4-4,4H15c-2.206,0-4-1.794-4-4V15c0-2.206,1.794-4,4-4H25
			 M25,10H15c-2.761,0-5,2.239-5,5v10c0,2.761,2.239,5,5,5h10c2.761,0,5-2.239,5-5V15C30,12.239,27.761,10,25,10L25,10z"/>
	</g>
	
		<polyline fill="none" stroke="#62339B" stroke-width="2" stroke-linecap="round" stroke-linejoin="round" stroke-miterlimit="10" points="
		15,20.134 18.26,23.394 25,16.653 	"/>
</g>
</svg>
