<?xml version="1.0" encoding="utf-8"?>
<!-- Generator: Adobe Illustrator 18.1.1, SVG Export Plug-In . SVG Version: 6.00 Build 0)  -->
<!DOCTYPE svg PUBLIC "-//W3C//DTD SVG 1.1//EN" "http://www.w3.org/Graphics/SVG/1.1/DTD/svg11.dtd">
<svg version="1.1" id="Layer_1" xmlns="http://www.w3.org/2000/svg" xmlns:xlink="http://www.w3.org/1999/xlink" x="0px" y="0px"
	 viewBox="0 0 298.5 49" enable-background="new 0 0 298.5 49" xml:space="preserve">
<g>
	<g>
		<path fill="#FFFFFF" d="M92.457,41.832c-10.751,0-18.789-7.496-18.789-18.443c0-11.194,8.285-18.344,18.936-18.344
			c4.882,0,10.159,1.776,13.068,5.128l-5.72,5.721c-1.578-2.17-4.388-3.205-7.051-3.205c-5.868,0-10.06,4.537-10.06,10.701
			c0,6.361,4.093,10.701,9.912,10.701c3.304,0,5.918-1.479,7.397-3.55l5.868,5.523C102.96,39.613,98.324,41.832,92.457,41.832z"/>
		<path fill="#FFFFFF" d="M124.184,41.832c-10.898,0-18.986-7.496-18.986-18.542c0-11.194,8.088-18.246,18.986-18.246
			c10.947,0,19.035,7.052,19.035,18.246C143.219,34.337,135.132,41.832,124.184,41.832z M124.184,12.639
			c-5.918,0-9.961,4.537-9.961,10.651c0,6.312,4.093,10.849,9.961,10.849c5.868,0,10.011-4.537,10.011-10.849
			C134.195,17.176,130.102,12.639,124.184,12.639z"/>
		<path fill="#FFFFFF" d="M168.113,40.896l-14.054-22.832h-0.148v22.832h-7.989V5.982h9.616l14.005,22.783h0.148V5.982h7.989v34.914
			H168.113z"/>
		<path fill="#FFFFFF" d="M204.569,40.896l-14.054-22.832h-0.148v22.832h-7.989V5.982h9.616l14.005,22.783h0.148V5.982h7.989v34.914
			H204.569z"/>
		<path fill="#FFFFFF" d="M206.124,40.896V5.982h23.473v7.151h-15.337v6.558h14.498v6.756h-14.498v7.25h15.337v7.2H206.124z"/>
		<path fill="#FFFFFF" d="M249.713,41.832c-10.751,0-18.789-7.496-18.789-18.443c0-11.194,8.284-18.344,18.936-18.344
			c4.882,0,10.159,1.776,13.068,5.128l-5.72,5.721c-1.578-2.17-4.388-3.205-7.051-3.205c-5.868,0-10.06,4.537-10.06,10.701
			c0,6.361,4.093,10.701,9.912,10.701c3.304,0,5.918-1.479,7.397-3.55l5.868,5.523C260.217,39.613,255.581,41.832,249.713,41.832z"
			/>
		<path fill="#FFFFFF" d="M283.547,13.182v27.714h-8.433V13.182h-9.862v-7.2h28.158v7.2H283.547z"/>
	</g>
	<g>
		<path fill="#FFFFFF" d="M61.598,41.697H14.24c-2.066,0-3.747-1.681-3.747-3.747V8.792c0-2.067,1.681-3.747,3.747-3.747h47.359
			c2.066,0,3.747,1.681,3.747,3.747V37.95C65.345,40.016,63.665,41.697,61.598,41.697z M14.24,7.777
			c-0.56,0-1.016,0.455-1.016,1.016V37.95c0,0.56,0.456,1.016,1.016,1.016h47.359c0.56,0,1.015-0.455,1.015-1.016V8.792
			c0-0.56-0.455-1.016-1.015-1.016H14.24z"/>
		<g>
			<path fill="#FFFFFF" d="M37.919,29.109c-1.353,0-2.705-0.497-3.783-1.491L13.773,8.842c-0.555-0.511-0.59-1.376-0.078-1.93
				c0.511-0.555,1.376-0.589,1.93-0.078L35.987,25.61c1.12,1.032,2.745,1.032,3.864,0L60.214,6.834
				c0.555-0.51,1.419-0.477,1.93,0.078c0.512,0.554,0.477,1.418-0.078,1.93L41.703,27.618
				C40.624,28.612,39.272,29.109,37.919,29.109z"/>
			<path fill="#FFFFFF" d="M14.699,40.27c-0.368,0-0.735-0.148-1.004-0.44c-0.512-0.554-0.477-1.418,0.078-1.93l16.846-15.533
				c0.554-0.51,1.419-0.477,1.93,0.078c0.512,0.554,0.477,1.418-0.078,1.93L15.624,39.908C15.362,40.15,15.03,40.27,14.699,40.27z"
				/>
			<path fill="#FFFFFF" d="M61.139,40.27c-0.331,0-0.663-0.119-0.925-0.362L43.368,24.375c-0.555-0.511-0.59-1.376-0.078-1.93
				c0.511-0.555,1.376-0.59,1.93-0.078L62.065,37.9c0.555,0.511,0.59,1.376,0.078,1.93C61.875,40.122,61.507,40.27,61.139,40.27z"/>
		</g>
	</g>
</g>
</svg>
