<svg id="Layer_1" data-name="Layer 1" xmlns="http://www.w3.org/2000/svg" viewBox="0 0 55.677 55.942"><defs><style>.cls-1{fill:#fff;}</style></defs><title>customer_support_white</title><path class="cls-1" d="M50.372,55.971a5.508,5.508,0,0,1-3.9-1.53L28.979,36.947a0.875,0.875,0,1,1,1.237-1.237L47.71,53.2a3.764,3.764,0,1,0,5.323-5.323L33.79,28.637A0.875,0.875,0,0,1,35.027,27.4L54.27,46.644a5.73,5.73,0,0,1,0,7.8A5.508,5.508,0,0,1,50.372,55.971Z" transform="translate(-0.161 -0.029)"/><path class="cls-1" d="M19.539,27.144a0.872,0.872,0,0,1-.618-0.256L16.26,24.227A12.169,12.169,0,0,1,3.613,21.2,11.94,11.94,0,0,1,.773,8.951a0.875,0.875,0,0,1,1.453-.356l4.555,4.555h4.086l2.112-2.112V6.951L8.424,2.4A0.875,0.875,0,0,1,8.78.944a11.941,11.941,0,0,1,12.252,2.84c3.541,3.541,4.917,8.835,3.46,13.082l3.975,3.975a0.875,0.875,0,1,1-1.237,1.237L22.857,17.7a0.874,0.874,0,0,1-.19-0.951c1.52-3.7.34-8.521-2.871-11.732a10.088,10.088,0,0,0-9.038-2.765L14.472,5.97a0.875,0.875,0,0,1,.256.618V11.4a0.875,0.875,0,0,1-.256.618l-2.624,2.624a0.875,0.875,0,0,1-.618.256H6.418A0.875,0.875,0,0,1,5.8,14.642L2.085,10.927A10.086,10.086,0,0,0,4.85,19.966,10.4,10.4,0,0,0,16.145,22.4a0.875,0.875,0,0,1,.951.19l3.061,3.061A0.875,0.875,0,0,1,19.539,27.144Z" transform="translate(-0.161 -0.029)"/><path class="cls-1" d="M29.6,29.331a0.872,0.872,0,0,1-.618-0.256l-2.187-2.187a0.874,0.874,0,0,1,0-1.237L46.654,5.789V4.4a0.874,0.874,0,0,1,.39-0.728l5.248-3.5a0.875,0.875,0,0,1,1.1.109l2.187,2.187a0.874,0.874,0,0,1,.109,1.1l-3.5,5.248a0.874,0.874,0,0,1-.728.39H50.078L30.216,29.075A0.872,0.872,0,0,1,29.6,29.331Zm-0.95-3.061,0.95,0.95L49.1,7.72a0.875,0.875,0,0,1,.618-0.256H51L53.839,3.2,52.666,2.029,48.4,4.87V6.152a0.875,0.875,0,0,1-.256.618Z" transform="translate(-0.161 -0.029)"/><path class="cls-1" d="M6.637,55.646a2.421,2.421,0,0,1-1.712-.767L0.989,50.942a2.29,2.29,0,0,1,0-3.424L15.422,33.086a0.875,0.875,0,0,1,.609-0.256A5.413,5.413,0,0,0,19.8,31.337a5.414,5.414,0,0,0,1.493-3.764,0.875,0.875,0,0,1,.256-0.609l2.187-2.187a2.292,2.292,0,0,1,3.424,0l3.936,3.936a2.29,2.29,0,0,1,0,3.424L28.9,34.323a0.875,0.875,0,0,1-.609.256,5.106,5.106,0,0,0-5.258,5.257,0.875,0.875,0,0,1-.256.609L8.349,54.878A2.421,2.421,0,0,1,6.637,55.646Zm9.778-21.079L2.226,48.755a0.568,0.568,0,0,0,0,.95l3.936,3.936a0.568,0.568,0,0,0,.95,0L21.3,39.452a6.815,6.815,0,0,1,6.61-6.61L29.854,30.9a0.568,0.568,0,0,0,0-.95l-3.936-3.936a0.568,0.568,0,0,0-.95,0l-1.943,1.943a7.125,7.125,0,0,1-1.993,4.617A7.124,7.124,0,0,1,16.415,34.567Z" transform="translate(-0.161 -0.029)"/></svg>