<?xml version="1.0" encoding="utf-8"?>
<!-- Generator: Adobe Illustrator 19.1.0, SVG Export Plug-In . SVG Version: 6.00 Build 0)  -->
<!DOCTYPE svg PUBLIC "-//W3C//DTD SVG 1.1//EN" "http://www.w3.org/Graphics/SVG/1.1/DTD/svg11.dtd">
<svg version="1.1" id="Layer_1" xmlns="http://www.w3.org/2000/svg" xmlns:xlink="http://www.w3.org/1999/xlink" x="0px" y="0px"
	 viewBox="0 0 124 124" enable-background="new 0 0 124 124" xml:space="preserve">
<g>
	<path fill="#3F2A7C" d="M62,124C27.813,124,0,96.187,0,62S27.813,0,62,0s62,27.813,62,62S96.187,124,62,124z M62,3.875
		C29.95,3.875,3.875,29.95,3.875,62c0,32.051,26.075,58.126,58.125,58.126c32.05,0,58.125-26.075,58.125-58.126
		C120.125,29.95,94.05,3.875,62,3.875z"/>
	<path fill="#3F2A7C" d="M62,94.98c-1.07,0-1.938-0.868-1.938-1.938v-62c0-1.07,0.868-1.938,1.938-1.938
		c1.07,0,1.938,0.868,1.938,1.938v62C63.938,94.113,63.071,94.98,62,94.98z"/>
	<path fill="#3F2A7C" d="M62,94.938c-0.514,0-1.007-0.204-1.37-0.568L35.443,69.183c-0.757-0.757-0.757-1.983,0-2.74
		c0.756-0.757,1.984-0.757,2.74,0L62,90.261l23.817-23.818c0.757-0.757,1.983-0.757,2.74,0c0.757,0.757,0.757,1.983,0,2.74
		L63.371,94.37C63.007,94.734,62.514,94.938,62,94.938z"/>
</g>
</svg>
