<svg id="Layer_1" data-name="Layer 1" xmlns="http://www.w3.org/2000/svg" viewBox="0 0 55.98 56"><defs><style>.cls-1{fill:#fff;}</style></defs><title>downloads_and_media_white</title><path class="cls-1" d="M28,31.509a13.463,13.463,0,0,1-6.34-1.462L2.916,19.767C1.042,18.74.01,17.315,0.01,15.754s1.032-2.985,2.906-4.013L21.66,1.462a14.476,14.476,0,0,1,12.68,0L53.084,11.741h0c1.874,1.028,2.906,2.453,2.906,4.013s-1.032,2.985-2.906,4.013L34.34,30.046A13.46,13.46,0,0,1,28,31.509Zm0-29.76A11.727,11.727,0,0,0,22.5,3L3.757,13.275c-1.27.7-2,1.6-2,2.479s0.728,1.783,2,2.479L22.5,28.513a12.745,12.745,0,0,0,11,0L52.243,18.234c1.27-.7,2-1.6,2-2.479s-0.728-1.783-2-2.479L33.5,3A11.725,11.725,0,0,0,28,1.749Z" transform="translate(-0.01)"/><path class="cls-1" d="M28,43.754a13.463,13.463,0,0,1-6.34-1.462L2.916,32.013C1.042,30.985.01,29.56,0.01,28s1.032-2.985,2.906-4.013l0.052-.026,1.484-.69a0.875,0.875,0,0,1,.738,1.586l-1.457.678C2.478,26.229,1.759,27.127,1.759,28s0.728,1.783,2,2.479L22.5,40.758a12.745,12.745,0,0,0,11,0L52.243,30.479c1.27-.7,2-1.6,2-2.479s-0.718-1.771-1.973-2.466l-1.457-.678a0.875,0.875,0,0,1,.738-1.586l1.484,0.69,0.052,0.026C54.958,25.015,55.99,26.44,55.99,28s-1.032,2.985-2.906,4.013L34.34,42.292A13.46,13.46,0,0,1,28,43.754Z" transform="translate(-0.01)"/><path class="cls-1" d="M28,56a13.463,13.463,0,0,1-6.34-1.462L2.916,44.259C1.042,43.231.01,41.806,0.01,40.246s1.032-2.985,2.906-4.013l0.052-.026,1.484-.69A0.875,0.875,0,0,1,5.19,37.1l-1.457.678c-1.254.694-1.973,1.592-1.973,2.466s0.728,1.783,2,2.479L22.5,53a12.745,12.745,0,0,0,11,0L52.243,42.725c1.27-.7,2-1.6,2-2.479s-0.718-1.771-1.973-2.466L50.811,37.1a0.875,0.875,0,0,1,.738-1.586l1.484,0.69,0.052,0.026c1.874,1.028,2.906,2.453,2.906,4.013s-1.032,2.985-2.906,4.013L34.34,54.538A13.46,13.46,0,0,1,28,56Z" transform="translate(-0.01)"/></svg>