<?xml version="1.0" encoding="utf-8"?>
<!-- Generator: Adobe Illustrator 18.1.1, SVG Export Plug-In . SVG Version: 6.00 Build 0)  -->
<!DOCTYPE svg PUBLIC "-//W3C//DTD SVG 1.1//EN" "http://www.w3.org/Graphics/SVG/1.1/DTD/svg11.dtd">
<svg version="1.1" id="Layer_1" xmlns="http://www.w3.org/2000/svg" xmlns:xlink="http://www.w3.org/1999/xlink" x="0px" y="0px"
	 viewBox="0 0 25 26" enable-background="new 0 0 25 26" xml:space="preserve">
<g>
	<path fill="#FFFFFF" d="M22.907,6.68L17.57,1.343c-0.091-0.091-0.214-0.142-0.343-0.142H5.097c-0.803,0-1.456,0.653-1.456,1.456
		v3.122c0.341,0.002,0.671,0.082,0.97,0.233V2.657c0-0.267,0.218-0.485,0.485-0.485h11.644v3.666c0,0.922,0.75,1.671,1.671,1.671
		h3.666v15.526c0,0.267-0.218,0.485-0.485,0.485H5.097c-0.267,0-0.485-0.218-0.485-0.485v-3.356c-0.3,0.152-0.63,0.232-0.97,0.233
		v3.122c0,0.803,0.653,1.456,1.456,1.456h16.496c0.803,0,1.456-0.653,1.456-1.456V7.023C23.049,6.895,22.998,6.771,22.907,6.68z"/>
	<path fill="#FFFFFF" d="M14.682,11.771l-1.497-0.204c-0.13-0.528-0.338-1.024-0.612-1.477l0.914-1.203
		c0.204-0.289,0.171-0.684-0.08-0.935l-0.505-0.505c-0.251-0.251-0.645-0.284-0.935-0.08l-1.203,0.914
		c-0.453-0.274-0.949-0.482-1.477-0.612L9.083,6.172C9.023,5.823,8.72,5.568,8.366,5.568H7.651c-0.354,0-0.657,0.255-0.717,0.604
		L6.73,7.669c-0.528,0.13-1.024,0.338-1.477,0.612L4.049,7.367C3.76,7.163,3.365,7.196,3.115,7.447L2.61,7.952
		C2.359,8.202,2.325,8.597,2.53,8.886l0.914,1.203c-0.274,0.453-0.482,0.949-0.612,1.477l-1.497,0.204
		c-0.349,0.06-0.604,0.363-0.604,0.717v0.714c0,0.354,0.255,0.657,0.604,0.717l1.497,0.204c0.13,0.528,0.338,1.024,0.612,1.477
		L2.53,16.805c-0.204,0.289-0.171,0.684,0.08,0.935l0.505,0.505c0.251,0.251,0.645,0.284,0.935,0.08l1.203-0.914
		c0.453,0.274,0.949,0.482,1.477,0.612l0.204,1.497c0.06,0.349,0.363,0.604,0.717,0.604h0.714c0.354,0,0.657-0.255,0.717-0.604
		l0.204-1.497c0.528-0.13,1.024-0.338,1.477-0.612l1.203,0.914c0.289,0.204,0.684,0.171,0.935-0.08l0.505-0.505
		c0.251-0.251,0.284-0.645,0.08-0.935l-0.914-1.203c0.274-0.453,0.482-0.949,0.612-1.477l1.497-0.204
		c0.349-0.06,0.604-0.363,0.604-0.717v-0.714C15.286,12.134,15.031,11.831,14.682,11.771z M8.008,15.805
		c-1.635,0-2.96-1.325-2.96-2.96c0-1.635,1.325-2.96,2.96-2.96c1.635,0,2.96,1.325,2.96,2.96
		C10.968,14.48,9.643,15.805,8.008,15.805z"/>
</g>
</svg>
