<?xml version="1.0" encoding="utf-8"?>
<!-- Generator: Adobe Illustrator 19.2.0, SVG Export Plug-In . SVG Version: 6.00 Build 0)  -->
<!DOCTYPE svg PUBLIC "-//W3C//DTD SVG 1.1//EN" "http://www.w3.org/Graphics/SVG/1.1/DTD/svg11.dtd">
<svg version="1.1" id="Layer_1" xmlns="http://www.w3.org/2000/svg" xmlns:xlink="http://www.w3.org/1999/xlink" x="0px" y="0px"
	 viewBox="0 0 35 35" enable-background="new 0 0 35 35" xml:space="preserve">
<g>
	<g>
		<polygon fill="#8B8B8B" points="33,7 28,7 28,3 26,3 26,7 22,7 22,10 26,10 26,14 28,14 28,10 33,10 		"/>
	</g>
	<g>
		<path fill="#8B8B8B" d="M18.047,20.169c-0.82-0.615-2.605-1.877-2.605-2.723c0-0.993,0.284-1.482,1.777-2.648
			c1.531-1.198,2.615-2.773,2.615-4.73c0-2.131-0.872-4.065-2.51-5.003h2.323l1.977-2.076c0,0-6.535,0-8.849,0
			c-4.491,0-8.233,3.311-8.233,6.953c0,3.722,2.459,6.688,6.682,6.688c0.294,0,0.579-0.015,0.858-0.035
			c-0.274,0.525-0.469,1.111-0.469,1.725c0,1.034,0.569,1.624,1.272,2.308c-0.532,0-1.045,0.015-1.605,0.015
			c-5.141,0-8.739,3.538-8.739,6.934c0,3.343,4.338,5.435,9.478,5.435c5.861,0,9.465-3.326,9.465-6.67
			C21.483,23.661,20.905,22.313,18.047,20.169z M12.933,15.278c-2.386-0.072-4.652-2.26-5.063-5.391
			c-0.412-3.132,1.187-5.53,3.571-5.459c2.385,0.072,4.425,2.641,4.837,5.773C16.69,13.333,15.317,15.349,12.933,15.278z
			 M11.999,31.532c-3.553,0-6.12-2.249-6.12-4.951c0-2.648,3.011-4.933,6.565-4.894c0.829,0.01,1.602,0.142,2.303,0.37
			c1.929,1.341,3.485,2.179,3.875,3.708c0.074,0.309,0.113,0.628,0.113,0.954C18.736,29.422,16.995,31.532,11.999,31.532z"/>
	</g>
</g>
</svg>
