<?xml version="1.0" encoding="utf-8"?>
<!-- Generator: Adobe Illustrator 18.1.1, SVG Export Plug-In . SVG Version: 6.00 Build 0)  -->
<!DOCTYPE svg PUBLIC "-//W3C//DTD SVG 1.1//EN" "http://www.w3.org/Graphics/SVG/1.1/DTD/svg11.dtd">
<svg version="1.1" id="Layer_1" xmlns="http://www.w3.org/2000/svg" xmlns:xlink="http://www.w3.org/1999/xlink" x="0px" y="0px"
	 viewBox="0 0 13 13" enable-background="new 0 0 13 13" xml:space="preserve">
<g>
	<g>
		<polygon fill="#FFFFFF" points="12.5,2.292 10.867,2.292 10.867,0.659 10.051,0.659 10.051,2.292 8.418,2.292 8.418,3.108 
			10.051,3.108 10.051,4.741 10.867,4.741 10.867,3.108 12.5,3.108 		"/>
	</g>
	<g>
		<path fill="#FFFFFF" d="M6.703,7.368C6.375,7.121,5.661,6.617,5.661,6.278c0-0.397,0.113-0.593,0.711-1.059
			C6.984,4.74,7.418,4.11,7.418,3.327c0-0.853-0.349-1.626-1.004-2.002h0.929l0.791-0.83c0,0-2.614,0-3.54,0
			c-1.796,0-3.293,1.324-3.293,2.781c0,1.489,0.984,2.675,2.673,2.675c0.117,0,0.231-0.006,0.343-0.014
			c-0.11,0.21-0.188,0.444-0.188,0.69c0,0.414,0.227,0.65,0.509,0.923c-0.213,0-0.418,0.006-0.642,0.006
			C1.94,7.557,0.5,8.972,0.5,10.331c0,1.337,1.735,2.174,3.791,2.174c2.344,0,3.786-1.33,3.786-2.668
			C8.078,8.764,7.846,8.225,6.703,7.368z M4.658,5.411C3.703,5.383,2.797,4.507,2.632,3.255C2.467,2.002,3.107,1.043,4.061,1.071
			C5.015,1.1,5.831,2.128,5.995,3.381C6.16,4.633,5.611,5.44,4.658,5.411z M4.284,11.913c-1.421,0-2.448-0.9-2.448-1.981
			c0-1.059,1.204-1.973,2.626-1.957c0.332,0.004,0.641,0.057,0.921,0.148c0.772,0.536,1.394,0.872,1.55,1.483
			C6.963,9.73,6.979,9.857,6.979,9.988C6.979,11.069,6.282,11.913,4.284,11.913z"/>
	</g>
</g>
</svg>
