<?xml version="1.0" encoding="utf-8"?>
<!-- Generator: Adobe Illustrator 18.1.1, SVG Export Plug-In . SVG Version: 6.00 Build 0)  -->
<!DOCTYPE svg PUBLIC "-//W3C//DTD SVG 1.1//EN" "http://www.w3.org/Graphics/SVG/1.1/DTD/svg11.dtd">
<svg version="1.1" id="Layer_1" xmlns="http://www.w3.org/2000/svg" xmlns:xlink="http://www.w3.org/1999/xlink" x="0px" y="0px"
	 viewBox="0 0 23 26" enable-background="new 0 0 23 26" xml:space="preserve">
<g>
	<path fill="#FFFFFF" d="M21.857,10.702l-1.954-1.954c-0.191-0.191-0.5-0.191-0.691,0l-9.776,9.775
		c-0.03,0.042-0.06,0.084-0.09,0.126l-1.455,3.41c-0.105,0.21-0.046,0.426,0.092,0.563s0.354,0.196,0.563,0.092l3.41-1.455
		c0.042-0.03,0.084-0.06,0.126-0.091l9.775-9.775C22.048,11.202,22.048,10.893,21.857,10.702z M9.07,21.535l1.044-2.446l1.402,1.402
		L9.07,21.535z M19.843,12.163l-1.402-1.402l1.116-1.116l1.401,1.402L19.843,12.163z"/>
	<path fill="#FFFFFF" d="M19.558,23.256c0,0.269-0.219,0.488-0.488,0.488H2.465c-0.269,0-0.488-0.219-0.488-0.488V2.744
		c0-0.269,0.219-0.488,0.488-0.488h11.721v3.69c0,0.928,0.754,1.682,1.682,1.682h4.667V7.14c0-0.129-0.052-0.254-0.143-0.345
		l-5.372-5.372c-0.092-0.092-0.216-0.143-0.345-0.143H2.465C1.657,1.279,1,1.936,1,2.744v20.512c0,0.808,0.657,1.465,1.465,1.465
		H19.07c0.808,0,1.465-0.657,1.465-1.465v-8.814l-0.977,0.977V23.256z"/>
</g>
</svg>
