<svg id="Layer_1" data-name="Layer 1" xmlns="http://www.w3.org/2000/svg" viewBox="0 0 56 56"><defs><style>.cls-1{fill:#fff;}</style></defs><title>insights_white</title><path class="cls-1" d="M9.625,42a3.5,3.5,0,1,1,3.5-3.5A3.5,3.5,0,0,1,9.625,42Zm0-5.25a1.75,1.75,0,1,0,1.75,1.75A1.752,1.752,0,0,0,9.625,36.75Z"/><path class="cls-1" d="M21.875,29.75a3.5,3.5,0,1,1,3.5-3.5A3.5,3.5,0,0,1,21.875,29.75Zm0-5.25a1.75,1.75,0,1,0,1.75,1.75A1.752,1.752,0,0,0,21.875,24.5Z"/><path class="cls-1" d="M34.125,35a3.5,3.5,0,1,1,3.5-3.5A3.5,3.5,0,0,1,34.125,35Zm0-5.25a1.75,1.75,0,1,0,1.75,1.75A1.752,1.752,0,0,0,34.125,29.75Z"/><path class="cls-1" d="M46.375,22.75a3.5,3.5,0,1,1,3.5-3.5A3.5,3.5,0,0,1,46.375,22.75Zm0-5.25a1.75,1.75,0,1,0,1.75,1.75A1.752,1.752,0,0,0,46.375,17.5Z"/><rect class="cls-1" x="9.563" y="31.5" width="12.374" height="1.75" transform="translate(-18.28 20.619) rotate(-45)"/><rect class="cls-1" x="26.906" y="24.635" width="1.75" height="8.043" transform="translate(-9.294 43.434) rotate(-67.62)"/><rect class="cls-1" x="34.372" y="24.5" width="11.756" height="1.75" transform="translate(-6.154 35.893) rotate(-45)"/><path class="cls-1" d="M51.625,56H4.375A4.38,4.38,0,0,1,0,51.625V4.375A4.38,4.38,0,0,1,4.375,0h47.25A4.38,4.38,0,0,1,56,4.375v47.25A4.38,4.38,0,0,1,51.625,56ZM4.375,1.75A2.628,2.628,0,0,0,1.75,4.375v47.25A2.628,2.628,0,0,0,4.375,54.25h47.25a2.628,2.628,0,0,0,2.625-2.625V4.375A2.628,2.628,0,0,0,51.625,1.75H4.375Z"/></svg>