<?xml version="1.0" encoding="utf-8"?>
<!-- Generator: Adobe Illustrator 18.1.1, SVG Export Plug-In . SVG Version: 6.00 Build 0)  -->
<!DOCTYPE svg PUBLIC "-//W3C//DTD SVG 1.1//EN" "http://www.w3.org/Graphics/SVG/1.1/DTD/svg11.dtd">
<svg version="1.1" id="Layer_1" xmlns="http://www.w3.org/2000/svg" xmlns:xlink="http://www.w3.org/1999/xlink" x="0px" y="0px"
	 viewBox="0 0 15 14" enable-background="new 0 0 15 14" xml:space="preserve">
<g>
	<path fill-rule="evenodd" clip-rule="evenodd" fill="#FFFFFF" d="M3.678,13.691V4.662H0.677v9.029H3.678L3.678,13.691z
		 M2.178,3.429c1.046,0,1.698-0.694,1.698-1.56c-0.02-0.886-0.652-1.56-1.678-1.56c-1.027,0-1.698,0.674-1.698,1.56
		c0,0.866,0.651,1.56,1.658,1.56H2.178L2.178,3.429z"/>
	<path fill-rule="evenodd" clip-rule="evenodd" fill="#FFFFFF" d="M5.339,13.691H8.34V8.649c0-0.27,0.02-0.54,0.099-0.732
		c0.217-0.539,0.711-1.098,1.54-1.098c1.086,0,1.52,0.828,1.52,2.042v4.83H14.5V8.514c0-2.773-1.48-4.064-3.455-4.064
		c-1.619,0-2.33,0.905-2.725,1.521h0.02v-1.31H5.339C5.378,5.509,5.339,13.691,5.339,13.691L5.339,13.691z"/>
</g>
</svg>
