<?xml version="1.0" encoding="utf-8"?>
<!-- Generator: Adobe Illustrator 19.2.0, SVG Export Plug-In . SVG Version: 6.00 Build 0)  -->
<!DOCTYPE svg PUBLIC "-//W3C//DTD SVG 1.1//EN" "http://www.w3.org/Graphics/SVG/1.1/DTD/svg11.dtd">
<svg version="1.1" id="Layer_1" xmlns="http://www.w3.org/2000/svg" xmlns:xlink="http://www.w3.org/1999/xlink" x="0px" y="0px"
	 viewBox="0 0 35 35" enable-background="new 0 0 35 35" xml:space="preserve">
<g>
	<path fill-rule="evenodd" clip-rule="evenodd" fill="#8B8B8B" d="M9,32V12H3v20H9L9,32z M5.934,10c2.246,0,3.644-1.532,3.644-3.392
		c-0.043-1.9-1.398-3.369-3.602-3.369c-2.203,0-3.643,1.479-3.643,3.379C2.334,8.479,3.731,10,5.892,10H5.934L5.934,10z"/>
	<path fill-rule="evenodd" clip-rule="evenodd" fill="#8B8B8B" d="M12.719,32H19V21.115c0-0.58,0.121-1.158,0.291-1.571
		c0.466-1.157,1.596-2.356,3.375-2.356c2.332,0,3.334,1.777,3.334,4.382V32h6V20.826c0-5.952-2.987-8.407-7.226-8.407
		c-3.475,0-4.811,2.58-5.658,3.58H19v-4h-6.281c0.084,3,0.235,20,0.235,20H12.719z"/>
</g>
</svg>
