<?xml version="1.0" encoding="utf-8"?>
<!-- Generator: Adobe Illustrator 18.1.1, SVG Export Plug-In . SVG Version: 6.00 Build 0)  -->
<!DOCTYPE svg PUBLIC "-//W3C//DTD SVG 1.1//EN" "http://www.w3.org/Graphics/SVG/1.1/DTD/svg11.dtd">
<svg version="1.1" id="Layer_1" xmlns="http://www.w3.org/2000/svg" xmlns:xlink="http://www.w3.org/1999/xlink" x="0px" y="0px"
	 viewBox="0 0 18 18" enable-background="new 0 0 18 18" xml:space="preserve">
<g>
	<g>
		<g>
			<path fill="#ACB4BA" d="M9,17.5c-4.687,0-8.5-3.813-8.5-8.5S4.313,0.5,9,0.5c4.687,0,8.5,3.813,8.5,8.5S13.687,17.5,9,17.5z
				 M9,1.704C4.977,1.704,1.704,4.977,1.704,9S4.977,16.296,9,16.296c4.023,0,7.296-3.273,7.296-7.296S13.023,1.704,9,1.704z"/>
		</g>
	</g>
	<g>
		<g>
			<g>
				<path fill="#ACB4BA" d="M10.836,8.919c0,0.497-0.406,0.903-0.903,0.903H8.067c-0.497,0-0.903-0.406-0.903-0.903V5.173
					c0-0.497,0.406-0.903,0.903-0.903h1.867c0.497,0,0.903,0.406,0.903,0.903V8.919z"/>
			</g>
		</g>
		<g>
			<g>
				<path fill="#ACB4BA" d="M12.857,8.361c0.662,0,0.851,0.411,0.421,0.914l-3.495,4.078c-0.431,0.503-1.136,0.503-1.567,0
					L4.722,9.275C4.291,8.772,4.48,8.361,5.143,8.361H12.857z"/>
			</g>
		</g>
	</g>
</g>
</svg>
