<svg xmlns="http://www.w3.org/2000/svg" viewBox="0 0 128.362 36"><defs><style>.cls-1{fill:#fff;}.cls-2{fill:#ff5f00;}.cls-3{fill:#eb001b;}.cls-4{fill:#f79e1b;}</style></defs><title>Asset 4</title><g id="Layer_2" data-name="Layer 2"><g id="Layer_1_copy_4" data-name="Layer 1 copy 4"><path class="cls-1" d="M83.985,31.439V28.568a1.7,1.7,0,0,0-1.8-1.818,1.772,1.772,0,0,0-1.608.814,1.68,1.68,0,0,0-1.512-.814,1.513,1.513,0,0,0-1.34.679v-.565h-1v4.574h1V28.9a1.07,1.07,0,0,1,1.12-1.215c.66,0,1,.431,1,1.206v2.546h1V28.9a1.079,1.079,0,0,1,1.12-1.215c.679,0,1,.431,1,1.206v2.546Zm14.871-4.574H97.229V25.477h-1v1.387H95.3v.909h.928V29.86c0,1.062.412,1.694,1.588,1.694a2.34,2.34,0,0,0,1.244-.354l-.287-.852a1.838,1.838,0,0,1-.88.258c-.5,0-.66-.306-.66-.766V27.774h1.627Zm8.488-.115a1.349,1.349,0,0,0-1.206.67v-.555h-.986v4.574h1V28.874c0-.756.325-1.177.976-1.177a1.619,1.619,0,0,1,.622.115l.306-.938a2.131,2.131,0,0,0-.708-.124m-12.832.479a3.421,3.421,0,0,0-1.866-.479c-1.158,0-1.9.555-1.9,1.464,0,.746.555,1.206,1.579,1.349l.469.067c.545.076.8.22.8.478,0,.354-.364.555-1.043.555a2.436,2.436,0,0,1-1.522-.479l-.469.775a3.3,3.3,0,0,0,1.981.593c1.321,0,2.086-.622,2.086-1.493,0-.8-.6-1.225-1.6-1.368l-.469-.067c-.431-.058-.775-.143-.775-.45,0-.335.325-.536.871-.536a2.948,2.948,0,0,1,1.426.392Zm26.66-.479a1.349,1.349,0,0,0-1.206.67v-.555h-.986v4.574h1V28.874c0-.756.325-1.177.976-1.177a1.621,1.621,0,0,1,.622.115l.306-.938a2.13,2.13,0,0,0-.708-.124m-12.823,2.4a2.311,2.311,0,0,0,2.44,2.4,2.4,2.4,0,0,0,1.646-.545l-.478-.8a2.012,2.012,0,0,1-1.2.411,1.467,1.467,0,0,1,0-2.928,2.012,2.012,0,0,1,1.2.411l.478-.8a2.4,2.4,0,0,0-1.646-.545,2.311,2.311,0,0,0-2.44,2.4m9.321,0V26.865h-1v.555a1.735,1.735,0,0,0-1.445-.67,2.4,2.4,0,0,0,0,4.8,1.735,1.735,0,0,0,1.445-.67v.555h1Zm-3.7,0a1.385,1.385,0,1,1,1.388,1.464,1.372,1.372,0,0,1-1.388-1.464m-12.009-2.4a2.235,2.235,0,0,0-2.278,2.4,2.256,2.256,0,0,0,2.344,2.4,2.781,2.781,0,0,0,1.876-.641l-.488-.737a2.179,2.179,0,0,1-1.33.478,1.27,1.27,0,0,1-1.368-1.12h3.4c.01-.124.019-.249.019-.383a2.193,2.193,0,0,0-2.172-2.4m-.019.89a1.136,1.136,0,0,1,1.158,1.11h-2.373a1.178,1.178,0,0,1,1.215-1.11M126.9,29.152V25.028h-1V27.42a1.734,1.734,0,0,0-1.445-.67,2.4,2.4,0,0,0,0,4.8,1.734,1.734,0,0,0,1.445-.67v.555h1Zm1.163,1.865a.29.29,0,0,1,.115.023.292.292,0,0,1,.157.155.279.279,0,0,1,.023.113.275.275,0,0,1-.023.113.3.3,0,0,1-.063.092.307.307,0,0,1-.094.062.287.287,0,0,1-.115.023.3.3,0,0,1-.211-.086.3.3,0,0,1-.063-.092.278.278,0,0,1-.023-.113.282.282,0,0,1,.023-.113.3.3,0,0,1,.063-.092.292.292,0,0,1,.094-.062.3.3,0,0,1,.117-.023m0,.516a.217.217,0,0,0,.088-.018.231.231,0,0,0,.071-.048.229.229,0,0,0,.048-.248.23.23,0,0,0-.048-.072.233.233,0,0,0-.071-.048.223.223,0,0,0-.088-.017.231.231,0,0,0-.089.017.225.225,0,0,0-.072.048.233.233,0,0,0-.048.072.228.228,0,0,0,.048.248.228.228,0,0,0,.161.066m.017-.362a.123.123,0,0,1,.08.023.078.078,0,0,1,.028.063.074.074,0,0,1-.022.055.107.107,0,0,1-.064.027l.088.1h-.069l-.082-.1h-.026v.1h-.058v-.27Zm-.067.051v.072h.066a.065.065,0,0,0,.036-.009.03.03,0,0,0,.013-.027.029.029,0,0,0-.013-.027.065.065,0,0,0-.036-.009Zm-4.817-2.07a1.385,1.385,0,1,1,1.388,1.464,1.372,1.372,0,0,1-1.388-1.464m-33.608,0V26.865h-1v.555a1.735,1.735,0,0,0-1.445-.67,2.4,2.4,0,0,0,0,4.8,1.735,1.735,0,0,0,1.445-.67v.555h1Zm-3.7,0a1.385,1.385,0,1,1,1.388,1.464,1.372,1.372,0,0,1-1.388-1.464"/><rect class="cls-2" x="58.015" y="23.715" width="6.018" height="10.815"/><path class="cls-3" d="M58.4,29.122a6.866,6.866,0,0,1,2.627-5.407,6.878,6.878,0,1,0,0,10.815A6.866,6.866,0,0,1,58.4,29.122"/><path class="cls-4" d="M71.5,33.384v-.221h.089v-.045h-.227v.045h.089v.221Zm.442,0v-.267h-.07l-.08.183-.08-.183h-.07v.267h.049v-.2l.075.174h.051l.075-.174v.2Z"/><path class="cls-4" d="M72.152,29.122A6.878,6.878,0,0,1,61.024,34.53a6.879,6.879,0,0,0,0-10.815,6.878,6.878,0,0,1,11.128,5.407"/><path class="cls-1" d="M0,.468H4.3l4.224,11.2H8.57l4.3-11.2H16.9L9.847,17.557H6.832Zm62.74,0H59.723L52.675,17.557h4.03L61,6.357h.047l4.227,11.2H69.57ZM25.835,0C20.5,0,16.616,3.5,16.616,8.977s3.886,8.978,9.219,8.978,9.221-3.5,9.221-8.978S31.168,0,25.835,0m0,14.481a5.16,5.16,0,0,1-5.31-5.5,5.158,5.158,0,0,1,5.31-5.5,5.158,5.158,0,0,1,5.31,5.5,5.159,5.159,0,0,1-5.31,5.5M51.724,2.545A7.327,7.327,0,0,0,45.955.034c-5.331,0-9.222,3.5-9.222,8.977s3.891,8.979,9.222,8.979a7.463,7.463,0,0,0,6.181-2.969L49,12.681a4.082,4.082,0,0,1-3.525,1.835c-2.724,0-4.825-2.318-4.825-5.5s2.1-5.5,4.948-5.5a4.034,4.034,0,0,1,3.235,1.4ZM71.247,17.557H82.5V14.083H75.013V.468H71.247Zm13.761,0h3.764V.468H85.008Zm6.749,0h3.768V5.393h.047l7.457,12.164h4.924V.468h-3.766V12.344h-.049L96.874.468H91.757Zm19.071,0h3.787V9.4l7,8.161H126.9l-8.308-9.2,7.652-7.99h-4.956L114.615,7.5V.363h-3.787Z"/></g></g></svg>