<?xml version="1.0" encoding="utf-8"?>
<!-- Generator: Adobe Illustrator 18.1.1, SVG Export Plug-In . SVG Version: 6.00 Build 0)  -->
<!DOCTYPE svg PUBLIC "-//W3C//DTD SVG 1.1//EN" "http://www.w3.org/Graphics/SVG/1.1/DTD/svg11.dtd">
<svg version="1.1" id="Layer_1" xmlns="http://www.w3.org/2000/svg" xmlns:xlink="http://www.w3.org/1999/xlink" x="0px" y="0px"
	 viewBox="0 0 54 54" enable-background="new 0 0 54 54" xml:space="preserve">
<g>
	<path fill="#FFFFFF" d="M53.192,32.878L41.108,20.794l-1.355,1.355l8.732,8.732L30.882,48.485L5.126,22.73L22.73,5.126l9.121,9.121
		l1.355-1.355L21.122,0.808c-1.077-1.077-2.823-1.077-3.9,0L0.808,17.222c-1.077,1.077-1.077,2.823,0,3.9l32.07,32.07
		c1.077,1.077,2.823,1.077,3.9,0l16.414-16.414C54.269,35.701,54.269,33.955,53.192,32.878z M9.019,12.693l3.674-3.674l1.114,1.114
		l-3.674,3.674L9.019,12.693z M43.801,43.801c-0.732,0.732-1.919,0.732-2.65,0s-0.732-1.919,0-2.651c0.732-0.732,1.919-0.732,2.65,0
		S44.533,43.069,43.801,43.801z"/>
	<g>
		<polygon fill="#FFFFFF" points="31.758,7.676 46.324,7.676 46.324,22.241 		"/>
		
			<rect x="31.29" y="9.813" transform="matrix(0.7071 0.7071 -0.7071 0.7071 24.0508 -18.3038)" fill="#FFFFFF" width="5.659" height="20.135"/>
	</g>
</g>
</svg>
