<?xml version="1.0" encoding="UTF-8" standalone="no"?>
<!-- Created with Inkscape (http://www.inkscape.org/) -->

<svg
   xmlns:dc="http://purl.org/dc/elements/1.1/"
   xmlns:cc="http://creativecommons.org/ns#"
   xmlns:rdf="http://www.w3.org/1999/02/22-rdf-syntax-ns#"
   xmlns:svg="http://www.w3.org/2000/svg"
   xmlns="http://www.w3.org/2000/svg"
   xmlns:sodipodi="http://sodipodi.sourceforge.net/DTD/sodipodi-0.dtd"
   xmlns:inkscape="http://www.inkscape.org/namespaces/inkscape"
   width="64px"
   height="64px"
   id="svg2993"
   version="1.1"
   inkscape:version="0.48.5 r10040"
   sodipodi:docname="../../error1dd0.html">
  <defs
     id="defs2995" />
  <sodipodi:namedview
     id="base"
     pagecolor="#ffffff"
     bordercolor="#666666"
     borderopacity="1.0"
     inkscape:pageopacity="0.0"
     inkscape:pageshadow="2"
     inkscape:zoom="5.5"
     inkscape:cx="32"
     inkscape:cy="32"
     inkscape:current-layer="layer1"
     showgrid="true"
     inkscape:document-units="px"
     inkscape:grid-bbox="true"
     inkscape:window-width="1920"
     inkscape:window-height="1057"
     inkscape:window-x="1912"
     inkscape:window-y="-8"
     inkscape:window-maximized="1" />
  <metadata
     id="metadata2998">
    <rdf:RDF>
      <cc:Work
         rdf:about="">
        <dc:format>image/svg+xml</dc:format>
        <dc:type
           rdf:resource="http://purl.org/dc/dcmitype/StillImage" />
        <dc:title></dc:title>
      </cc:Work>
    </rdf:RDF>
  </metadata>
  <g
     id="layer1"
     inkscape:label="Layer 1"
     inkscape:groupmode="layer">
    <g
       id="g3018"
       transform="matrix(1.14,0,0,1.14,2.36,-0.64483996)">
	<linearGradient
   y2="-2.0186999"
   x2="26"
   y1="55.559898"
   x1="26"
   gradientUnits="userSpaceOnUse"
   id="SVGID_1_">
		<stop
   id="stop3021"
   style="stop-color:#ADB5BB"
   offset="0" />

		<stop
   id="stop3023"
   style="stop-color:#616F7A"
   offset="1" />

	</linearGradient>

	<path
   id="path3025"
   d="m 35.521,33.39 -1.239,2.264 c 8.025,0.755 12.862,2.506 13.492,3.606 -0.819,1.432 -8.672,3.976 -21.555,3.976 -12.884,0 -20.745,-2.543 -21.564,-3.976 0.637,-1.112 5.555,-2.892 13.756,-3.632 L 17.008,33.36 C 9.06,34.163 1,36.156 1,40.322 v 9.27 C 1,51.085 2.218,52 3.894,53 H 3.95 c 2.011,1 9.968,3.706 22.305,3.706 C 38.591,56.706 46.549,54 48.56,53 h 0.019 C 50.255,52 51,51.085 51,49.592 v -9.27 C 51,36.207 43.369,34.213 35.521,33.39 z m 9.621,16.977 c -1.173,0 -2.125,-0.951 -2.125,-2.124 0,-1.173 0.952,-2.125 2.125,-2.125 1.173,0 2.124,0.952 2.124,2.125 0,1.173 -0.951,2.124 -2.124,2.124 z"
   inkscape:connector-curvature="0"
   style="fill:url(#SVGID_1_)" />

	<linearGradient
   y2="0.1645"
   x2="26.3801"
   y1="52.4347"
   x1="26.3801"
   gradientUnits="userSpaceOnUse"
   id="SVGID_2_">
		<stop
   id="stop3028"
   style="stop-color:#ADB5BB"
   offset="0" />

		<stop
   id="stop3030"
   style="stop-color:#616F7A"
   offset="1" />

	</linearGradient>

	<path
   id="path3032"
   d="M 36.632,14.247 H 32.329 31.855 V 3.28 c 0,-1.268 -1.028,-2.297 -2.297,-2.297 h -6.355 c -1.268,0 -2.297,1.028 -2.297,2.297 v 10.967 h -0.859 -3.918 c -3.626,0 -5.109,2.569 -3.296,5.709 l 10.251,17.757 c 1.812,3.14 4.779,3.14 6.593,0 L 39.929,19.956 c 1.812,-3.14 0.328,-5.709 -3.297,-5.709 z"
   inkscape:connector-curvature="0"
   style="fill:url(#SVGID_2_)" />

</g>
  </g>
</svg>
