<?xml version="1.0" encoding="utf-8"?>
<!-- Generator: Adobe Illustrator 18.1.1, SVG Export Plug-In . SVG Version: 6.00 Build 0)  -->
<!DOCTYPE svg PUBLIC "-//W3C//DTD SVG 1.1//EN" "http://www.w3.org/Graphics/SVG/1.1/DTD/svg11.dtd">
<svg version="1.1" id="Layer_1" xmlns="http://www.w3.org/2000/svg" xmlns:xlink="http://www.w3.org/1999/xlink" x="0px" y="0px"
	 viewBox="0 0 56 56" enable-background="new 0 0 56 56" xml:space="preserve">
<linearGradient id="SVGID_1_" gradientUnits="userSpaceOnUse" x1="28" y1="54.8138" x2="28" y2="0.8426">
	<stop  offset="0" style="stop-color:#ACB4BA"/>
	<stop  offset="1" style="stop-color:#606E79"/>
</linearGradient>
<path fill="url(#SVGID_1_)" d="M28.001,0C12.538,0,0,12.541,0,28.002C0,43.467,12.538,56,28.001,56C43.467,56,56,43.467,56,28.002
	C56,12.541,43.467,0,28.001,0 M24.888,48.399l-7.366-3.271v0.005L6.11,24.747l7.473,3.311l3.939,7.293V13.293l7.366,3.202V48.399z
	 M35.814,41.833l-7.356-3.29V7.404l7.473,3.31l0.006,18.297l5.717-7.28l8.108,3.538L35.814,41.833z"/>
</svg>
