<?xml version="1.0" encoding="UTF-8" standalone="no"?>
<!-- Created with Inkscape (http://www.inkscape.org/) -->

<svg
   xmlns:dc="http://purl.org/dc/elements/1.1/"
   xmlns:cc="http://creativecommons.org/ns#"
   xmlns:rdf="http://www.w3.org/1999/02/22-rdf-syntax-ns#"
   xmlns:svg="http://www.w3.org/2000/svg"
   xmlns="http://www.w3.org/2000/svg"
   xmlns:xlink="http://www.w3.org/1999/xlink"
   xmlns:sodipodi="http://sodipodi.sourceforge.net/DTD/sodipodi-0.dtd"
   xmlns:inkscape="http://www.inkscape.org/namespaces/inkscape"
   width="48px"
   height="48px"
   id="svg2985"
   version="1.1"
   inkscape:version="0.48.4 r9939"
   sodipodi:docname="../../errore817.html">
  <defs
     id="defs2987">
    <linearGradient
       inkscape:collect="always"
       xlink:href="#SVGID_1_"
       id="linearGradient4813"
       gradientUnits="userSpaceOnUse"
       x1="24.9984"
       y1="55.221699"
       x2="24.9984"
       y2="0.57789999" />
    <linearGradient
       inkscape:collect="always"
       xlink:href="#SVGID_2_"
       id="linearGradient4815"
       gradientUnits="userSpaceOnUse"
       x1="24.9979"
       y1="55.221699"
       x2="24.9979"
       y2="0.57789999" />
    <linearGradient
       inkscape:collect="always"
       xlink:href="#SVGID_3_"
       id="linearGradient4817"
       gradientUnits="userSpaceOnUse"
       x1="24.9974"
       y1="55.221699"
       x2="24.9974"
       y2="0.57789999" />
    <linearGradient
       inkscape:collect="always"
       xlink:href="#SVGID_4_"
       id="linearGradient4819"
       gradientUnits="userSpaceOnUse"
       x1="24.9979"
       y1="55.221699"
       x2="24.9979"
       y2="0.57789999" />
    <linearGradient
       inkscape:collect="always"
       xlink:href="#SVGID_5_"
       id="linearGradient4821"
       gradientUnits="userSpaceOnUse"
       x1="24.9974"
       y1="55.221699"
       x2="24.9974"
       y2="0.57789999" />
    <linearGradient
       inkscape:collect="always"
       xlink:href="#SVGID_6_"
       id="linearGradient4823"
       gradientUnits="userSpaceOnUse"
       x1="5.7108002"
       y1="55.221699"
       x2="5.7108002"
       y2="0.57789999" />
    <linearGradient
       inkscape:collect="always"
       xlink:href="#SVGID_7_"
       id="linearGradient4825"
       gradientUnits="userSpaceOnUse"
       x1="13.2115"
       y1="55.221699"
       x2="13.2115"
       y2="0.57789999" />
    <linearGradient
       inkscape:collect="always"
       xlink:href="#SVGID_8_"
       id="linearGradient4827"
       gradientUnits="userSpaceOnUse"
       x1="5.711"
       y1="55.221699"
       x2="5.711"
       y2="0.57789999" />
    <linearGradient
       inkscape:collect="always"
       xlink:href="#SVGID_9_"
       id="linearGradient4829"
       gradientUnits="userSpaceOnUse"
       x1="13.2115"
       y1="55.221699"
       x2="13.2115"
       y2="0.57789999" />
    <linearGradient
       inkscape:collect="always"
       xlink:href="#SVGID_10_"
       id="linearGradient4831"
       gradientUnits="userSpaceOnUse"
       x1="44.2873"
       y1="55.221699"
       x2="44.2873"
       y2="0.57789999" />
    <linearGradient
       inkscape:collect="always"
       xlink:href="#SVGID_11_"
       id="linearGradient4833"
       gradientUnits="userSpaceOnUse"
       x1="36.784302"
       y1="55.221699"
       x2="36.784302"
       y2="0.57789999" />
    <linearGradient
       inkscape:collect="always"
       xlink:href="#SVGID_12_"
       id="linearGradient4835"
       gradientUnits="userSpaceOnUse"
       x1="44.287201"
       y1="55.221699"
       x2="44.287201"
       y2="0.57789999" />
    <linearGradient
       inkscape:collect="always"
       xlink:href="#SVGID_13_"
       id="linearGradient4837"
       gradientUnits="userSpaceOnUse"
       x1="36.784302"
       y1="55.221699"
       x2="36.784302"
       y2="0.57789999" />
    <linearGradient
       inkscape:collect="always"
       xlink:href="#SVGID_1_"
       id="linearGradient5043"
       gradientUnits="userSpaceOnUse"
       gradientTransform="matrix(0.8929,0,0,-0.8929,0,53)"
       x1="26.521999"
       y1="2.6721001"
       x2="26.521999"
       y2="54.287201" />
    <linearGradient
       inkscape:collect="always"
       xlink:href="#SVGID_2_"
       id="linearGradient5045"
       gradientUnits="userSpaceOnUse"
       gradientTransform="matrix(0.8929,0,0,-0.8929,0,53)"
       x1="41.738998"
       y1="2.6721001"
       x2="41.738998"
       y2="54.287201" />
    <linearGradient
       inkscape:collect="always"
       xlink:href="#SVGID_1_"
       id="linearGradient5093"
       gradientUnits="userSpaceOnUse"
       gradientTransform="matrix(0.8929,0,0,-0.8929,0,53)"
       x1="27.9995"
       y1="2.0418999"
       x2="27.9995"
       y2="54.941299" />
    <linearGradient
       inkscape:collect="always"
       xlink:href="#SVGID_2_"
       id="linearGradient5095"
       gradientUnits="userSpaceOnUse"
       gradientTransform="matrix(0.8929,0,0,-0.8929,0,53)"
       x1="15.7198"
       y1="2.0418999"
       x2="15.7198"
       y2="54.941299" />
    <linearGradient
       inkscape:collect="always"
       xlink:href="#SVGID_3_"
       id="linearGradient5097"
       gradientUnits="userSpaceOnUse"
       gradientTransform="matrix(0.8929,0,0,-0.8929,0,53)"
       x1="41.487801"
       y1="2.0418999"
       x2="41.487801"
       y2="54.941299" />
  </defs>
  <sodipodi:namedview
     id="base"
     pagecolor="#ffffff"
     bordercolor="#666666"
     borderopacity="1.0"
     inkscape:pageopacity="0.0"
     inkscape:pageshadow="2"
     inkscape:zoom="4.9497475"
     inkscape:cx="40.747044"
     inkscape:cy="22.272326"
     inkscape:current-layer="layer1"
     showgrid="true"
     inkscape:grid-bbox="true"
     inkscape:document-units="px"
     inkscape:window-width="1058"
     inkscape:window-height="842"
     inkscape:window-x="68"
     inkscape:window-y="145"
     inkscape:window-maximized="0" />
  <metadata
     id="metadata2990">
    <rdf:RDF>
      <cc:Work
         rdf:about="">
        <dc:format>image/svg+xml</dc:format>
        <dc:type
           rdf:resource="http://purl.org/dc/dcmitype/StillImage" />
        <dc:title></dc:title>
      </cc:Work>
    </rdf:RDF>
  </metadata>
  <g
     id="layer1"
     inkscape:label="Layer 1"
     inkscape:groupmode="layer">
    <g
       id="g5048"
       transform="matrix(1.0752246,0,0,1.0751711,-2.880032,-6.1047615)">
	
		<linearGradient
   gradientTransform="matrix(0.8929,0,0,-0.8929,0,53)"
   y2="54.941299"
   x2="27.9995"
   y1="2.0418999"
   x1="27.9995"
   gradientUnits="userSpaceOnUse"
   id="SVGID_1_">
		<stop
   id="stop5051"
   style="stop-color:#FFE680"
   offset="0" />

		<stop
   id="stop5053"
   style="stop-color:#FFD733"
   offset="1" />

	</linearGradient>

	<path
   id="path5055"
   d="m 44.777,5.846 -7.028,5.128 -0.854,2.754 -12.707,12.708 -0.146,-0.145 c -0.484,-0.483 -1.121,-0.725 -1.759,-0.725 -0.638,0 -1.274,0.242 -1.759,0.725 l -0.934,0.934 c 0.004,0.187 -0.021,0.375 -0.046,0.562 -0.026,0.156 -0.058,0.313 -0.099,0.467 l 0,0 c -0.168,0.626 -0.484,1.229 -0.988,1.733 -0.765,0.765 -1.752,1.137 -2.708,1.137 -0.019,0 -0.037,-10e-4 -0.056,-10e-4 L 3.571,43.244 c -0.968,0.968 -0.968,2.551 0,3.518 l 2.667,2.666 c 0.483,0.484 1.121,0.725 1.758,0.725 0.638,0 1.276,-0.241 1.76,-0.725 L 21.877,37.307 c -0.017,-0.973 0.355,-1.983 1.135,-2.763 0.763,-0.762 1.747,-1.136 2.703,-1.136 0.021,0 0.039,10e-4 0.06,10e-4 l 0.935,-0.933 c 0.967,-0.969 0.967,-2.551 0,-3.518 l -0.145,-0.145 2.288,-2.288 0,0 10.42,-10.419 2.753,-0.855 5.129,-7.027 -2.378,-2.378 z"
   inkscape:connector-curvature="0"
   style="fill:url(#linearGradient5093)" />

	<g
   id="g5057">
		
			<linearGradient
   gradientTransform="matrix(0.8929,0,0,-0.8929,0,53)"
   y2="54.941299"
   x2="15.7198"
   y1="2.0418999"
   x1="15.7198"
   gradientUnits="userSpaceOnUse"
   id="SVGID_2_">
			<stop
   id="stop5060"
   style="stop-color:#FFE680"
   offset="0" />

			<stop
   id="stop5062"
   style="stop-color:#FFD733"
   offset="1" />

		</linearGradient>

		<path
   id="path5064"
   d="m 19.25,25.017 c 0.81,-0.809 1.887,-1.254 3.033,-1.254 0.589,0 1.16,0.117 1.686,0.342 l 1.423,-1.423 c -1.375,-1.595 -2.725,-3.214 -4.026,-4.884 l 0.066,-0.066 C 22.3,14.535 21.486,10.977 18.977,8.465 16.757,6.247 13.718,5.359 10.835,5.779 l 5.706,5.707 0.734,4.762 -4.026,4.026 L 8.487,19.54 2.78,13.833 c -0.421,2.885 0.467,5.923 2.686,8.143 2.512,2.511 6.07,3.324 9.268,2.455 l 0.065,-0.065 c 1.011,0.788 1.999,1.597 2.981,2.413 l -0.005,-0.288 1.475,-1.474 z"
   inkscape:connector-curvature="0"
   style="fill:url(#linearGradient5095)" />

		
			<linearGradient
   gradientTransform="matrix(0.8929,0,0,-0.8929,0,53)"
   y2="54.941299"
   x2="41.487801"
   y1="2.0418999"
   x1="41.487801"
   gradientUnits="userSpaceOnUse"
   id="SVGID_3_">
			<stop
   id="stop5067"
   style="stop-color:#FFE680"
   offset="0" />

			<stop
   id="stop5069"
   style="stop-color:#FFD733"
   offset="1" />

		</linearGradient>

		<path
   id="path5071"
   d="m 44.957,41.322 c -4.484,-3.469 -8.687,-7.22 -12.65,-11.21 l -0.011,0.01 c -0.751,-0.746 -1.487,-1.509 -2.219,-2.274 l -1.184,1.184 c 0.664,1.562 0.361,3.444 -0.911,4.717 l -1.22,1.218 c 0.117,0.112 0.234,0.225 0.348,0.34 l 0.011,-0.01 c 3.989,3.963 7.729,8.174 11.197,12.658 0.202,0.337 0.442,0.657 0.732,0.948 1.892,1.892 4.959,1.892 6.851,0 1.892,-1.892 1.893,-4.958 0,-6.851 -0.288,-0.289 -0.606,-0.529 -0.944,-0.73 z m -0.845,5.724 c -0.905,0.907 -2.376,0.907 -3.282,10e-4 -0.906,-0.905 -0.906,-2.376 0,-3.283 0.906,-0.905 2.377,-0.905 3.282,10e-4 0.908,0.906 0.908,2.376 0,3.281 z"
   inkscape:connector-curvature="0"
   style="fill:url(#linearGradient5097)" />

	</g>

</g>
  </g>
</svg>
