<?xml version="1.0" encoding="UTF-8" standalone="no"?>
<!-- Created with Inkscape (http://www.inkscape.org/) -->

<svg
   xmlns:dc="http://purl.org/dc/elements/1.1/"
   xmlns:cc="http://creativecommons.org/ns#"
   xmlns:rdf="http://www.w3.org/1999/02/22-rdf-syntax-ns#"
   xmlns:svg="http://www.w3.org/2000/svg"
   xmlns="http://www.w3.org/2000/svg"
   xmlns:xlink="http://www.w3.org/1999/xlink"
   xmlns:sodipodi="http://sodipodi.sourceforge.net/DTD/sodipodi-0.dtd"
   xmlns:inkscape="http://www.inkscape.org/namespaces/inkscape"
   width="48px"
   height="48px"
   id="svg2985"
   version="1.1"
   inkscape:version="0.48.4 r9939"
   sodipodi:docname="../../errorddd5.html">
  <defs
     id="defs2987">
    <linearGradient
       inkscape:collect="always"
       xlink:href="#SVGID_1_"
       id="linearGradient3287"
       gradientUnits="userSpaceOnUse"
       x1="28"
       y1="51.639702"
       x2="28"
       y2="3.4649" />
    <linearGradient
       inkscape:collect="always"
       xlink:href="#SVGID_2_"
       id="linearGradient3289"
       gradientUnits="userSpaceOnUse"
       x1="40.041199"
       y1="51.639702"
       x2="40.041199"
       y2="3.4649" />
    <linearGradient
       inkscape:collect="always"
       xlink:href="#SVGID_3_"
       id="linearGradient3291"
       gradientUnits="userSpaceOnUse"
       x1="35.119999"
       y1="51.639702"
       x2="35.119999"
       y2="3.4649" />
    <linearGradient
       inkscape:collect="always"
       xlink:href="#SVGID_1_"
       id="linearGradient3576"
       gradientUnits="userSpaceOnUse"
       x1="24.9984"
       y1="55.221699"
       x2="24.9984"
       y2="0.57789999" />
    <linearGradient
       inkscape:collect="always"
       xlink:href="#SVGID_2_"
       id="linearGradient3578"
       gradientUnits="userSpaceOnUse"
       x1="24.9979"
       y1="55.221699"
       x2="24.9979"
       y2="0.57789999" />
    <linearGradient
       inkscape:collect="always"
       xlink:href="#SVGID_3_"
       id="linearGradient3580"
       gradientUnits="userSpaceOnUse"
       x1="24.9974"
       y1="55.221699"
       x2="24.9974"
       y2="0.57789999" />
    <linearGradient
       inkscape:collect="always"
       xlink:href="#SVGID_4_"
       id="linearGradient3582"
       gradientUnits="userSpaceOnUse"
       x1="24.9979"
       y1="55.221699"
       x2="24.9979"
       y2="0.57789999" />
    <linearGradient
       inkscape:collect="always"
       xlink:href="#SVGID_5_"
       id="linearGradient3584"
       gradientUnits="userSpaceOnUse"
       x1="24.9974"
       y1="55.221699"
       x2="24.9974"
       y2="0.57789999" />
    <linearGradient
       inkscape:collect="always"
       xlink:href="#SVGID_6_"
       id="linearGradient3586"
       gradientUnits="userSpaceOnUse"
       x1="5.7108002"
       y1="55.221699"
       x2="5.7108002"
       y2="0.57789999" />
    <linearGradient
       inkscape:collect="always"
       xlink:href="#SVGID_7_"
       id="linearGradient3588"
       gradientUnits="userSpaceOnUse"
       x1="13.2115"
       y1="55.221699"
       x2="13.2115"
       y2="0.57789999" />
    <linearGradient
       inkscape:collect="always"
       xlink:href="#SVGID_8_"
       id="linearGradient3590"
       gradientUnits="userSpaceOnUse"
       x1="5.711"
       y1="55.221699"
       x2="5.711"
       y2="0.57789999" />
    <linearGradient
       inkscape:collect="always"
       xlink:href="#SVGID_9_"
       id="linearGradient3592"
       gradientUnits="userSpaceOnUse"
       x1="13.2115"
       y1="55.221699"
       x2="13.2115"
       y2="0.57789999" />
    <linearGradient
       inkscape:collect="always"
       xlink:href="#SVGID_1_"
       id="linearGradient3873"
       gradientUnits="userSpaceOnUse"
       x1="26.5224"
       y1="53.3279"
       x2="26.5224"
       y2="1.7128" />
    <linearGradient
       inkscape:collect="always"
       xlink:href="#SVGID_2_"
       id="linearGradient3875"
       gradientUnits="userSpaceOnUse"
       x1="41.7388"
       y1="53.3279"
       x2="41.7388"
       y2="1.7128" />
    <linearGradient
       inkscape:collect="always"
       xlink:href="#SVGID_1_"
       id="linearGradient3939"
       gradientUnits="userSpaceOnUse"
       x1="28"
       y1="53.958099"
       x2="28"
       y2="1.0587" />
    <linearGradient
       inkscape:collect="always"
       xlink:href="#SVGID_2_"
       id="linearGradient3941"
       gradientUnits="userSpaceOnUse"
       x1="15.7195"
       y1="53.958099"
       x2="15.7195"
       y2="1.0587" />
    <linearGradient
       inkscape:collect="always"
       xlink:href="#SVGID_3_"
       id="linearGradient3943"
       gradientUnits="userSpaceOnUse"
       x1="41.487999"
       y1="53.958099"
       x2="41.487999"
       y2="1.0587" />
    <linearGradient
       inkscape:collect="always"
       xlink:href="#SVGID_1_"
       id="linearGradient4010"
       gradientUnits="userSpaceOnUse"
       x1="28"
       y1="55.7099"
       x2="28"
       y2="-0.75940001" />
    <linearGradient
       inkscape:collect="always"
       xlink:href="#SVGID_2_"
       id="linearGradient4012"
       gradientUnits="userSpaceOnUse"
       x1="28"
       y1="55.7099"
       x2="28"
       y2="-0.75940001" />
    <linearGradient
       inkscape:collect="always"
       xlink:href="#SVGID_3_"
       id="linearGradient4014"
       gradientUnits="userSpaceOnUse"
       x1="28"
       y1="55.7099"
       x2="28"
       y2="-0.75940001" />
    <linearGradient
       inkscape:collect="always"
       xlink:href="#SVGID_1_"
       id="linearGradient4195"
       gradientUnits="userSpaceOnUse"
       gradientTransform="matrix(0.8929,0,0,-0.8929,0,53)"
       x1="24.4925"
       y1="0.091799997"
       x2="24.4925"
       y2="56.965199" />
    <linearGradient
       inkscape:collect="always"
       xlink:href="#SVGID_2_"
       id="linearGradient4197"
       gradientUnits="userSpaceOnUse"
       gradientTransform="matrix(0.8929,0,0,-0.8929,0,53)"
       x1="9.8004999"
       y1="0.091799997"
       x2="9.8004999"
       y2="56.965199" />
    <linearGradient
       inkscape:collect="always"
       xlink:href="#SVGID_3_"
       id="linearGradient4199"
       gradientUnits="userSpaceOnUse"
       gradientTransform="matrix(0.8929,0,0,-0.8929,0,53)"
       x1="20.148399"
       y1="0.091799997"
       x2="20.148399"
       y2="56.965199" />
    <linearGradient
       inkscape:collect="always"
       xlink:href="#SVGID_4_"
       id="linearGradient4201"
       gradientUnits="userSpaceOnUse"
       gradientTransform="matrix(0.8929,0,0,-0.8929,0,53)"
       x1="27.5049"
       y1="0.091799997"
       x2="27.5049"
       y2="56.965199" />
    <linearGradient
       inkscape:collect="always"
       xlink:href="#SVGID_5_"
       id="linearGradient4203"
       gradientUnits="userSpaceOnUse"
       gradientTransform="matrix(0.8929,0,0,-0.8929,0,53)"
       x1="38.6091"
       y1="0.091799997"
       x2="38.6091"
       y2="56.965199" />
    <linearGradient
       inkscape:collect="always"
       xlink:href="#SVGID_6_"
       id="linearGradient4205"
       gradientUnits="userSpaceOnUse"
       gradientTransform="matrix(0.8929,0,0,-0.8929,0,53)"
       x1="32.427799"
       y1="0.091799997"
       x2="32.427799"
       y2="56.965199" />
    <linearGradient
       inkscape:collect="always"
       xlink:href="#SVGID_7_"
       id="linearGradient4207"
       gradientUnits="userSpaceOnUse"
       gradientTransform="matrix(0.8929,0,0,-0.8929,0,53)"
       x1="20.2603"
       y1="0.091799997"
       x2="20.2603"
       y2="56.965199" />
    <linearGradient
       inkscape:collect="always"
       xlink:href="#SVGID_8_"
       id="linearGradient4209"
       gradientUnits="userSpaceOnUse"
       gradientTransform="matrix(0.8929,0,0,-0.8929,0,53)"
       x1="20.044001"
       y1="0.091799997"
       x2="20.044001"
       y2="56.965199" />
    <linearGradient
       inkscape:collect="always"
       xlink:href="#SVGID_9_"
       id="linearGradient4211"
       gradientUnits="userSpaceOnUse"
       gradientTransform="matrix(0.8929,0,0,-0.8929,0,53)"
       x1="28"
       y1="0.091799997"
       x2="28"
       y2="56.965199" />
  </defs>
  <sodipodi:namedview
     id="base"
     pagecolor="#ffffff"
     bordercolor="#666666"
     borderopacity="1.0"
     inkscape:pageopacity="0.0"
     inkscape:pageshadow="2"
     inkscape:zoom="4.9497475"
     inkscape:cx="40.747044"
     inkscape:cy="22.272326"
     inkscape:current-layer="layer1"
     showgrid="true"
     inkscape:grid-bbox="true"
     inkscape:document-units="px"
     inkscape:window-width="1058"
     inkscape:window-height="842"
     inkscape:window-x="68"
     inkscape:window-y="145"
     inkscape:window-maximized="0" />
  <metadata
     id="metadata2990">
    <rdf:RDF>
      <cc:Work
         rdf:about="">
        <dc:format>image/svg+xml</dc:format>
        <dc:type
           rdf:resource="http://purl.org/dc/dcmitype/StillImage" />
        <dc:title></dc:title>
      </cc:Work>
    </rdf:RDF>
  </metadata>
  <g
     id="layer1"
     inkscape:label="Layer 1"
     inkscape:groupmode="layer">
    <g
       id="g4036"
       transform="matrix(0.96,0,0,0.96,0,-2.88)">
	<g
   id="g4038">
		<g
   id="g4040">
			<g
   id="g4042">
				
					<linearGradient
   gradientTransform="matrix(0.8929,0,0,-0.8929,0,53)"
   y2="56.965199"
   x2="24.4925"
   y1="0.091799997"
   x1="24.4925"
   gradientUnits="userSpaceOnUse"
   id="SVGID_1_">
					<stop
   id="stop4045"
   style="stop-color:#C5E29F"
   offset="0" />

					<stop
   id="stop4047"
   style="stop-color:#A2D065"
   offset="1" />

				</linearGradient>

				<path
   id="path4049"
   d="m 21.696,27.329 c -0.451,-0.13 0.243,0.447 0.337,0.129 0.428,-0.368 -0.127,-0.107 -0.337,-0.129 z"
   inkscape:connector-curvature="0"
   style="fill:url(#linearGradient4195)" />

			</g>

		</g>

		<g
   id="g4051">
			<g
   id="g4053">
				
					<linearGradient
   gradientTransform="matrix(0.8929,0,0,-0.8929,0,53)"
   y2="56.965199"
   x2="9.8004999"
   y1="0.091799997"
   x1="9.8004999"
   gradientUnits="userSpaceOnUse"
   id="SVGID_2_">
					<stop
   id="stop4056"
   style="stop-color:#C5E29F"
   offset="0" />

					<stop
   id="stop4058"
   style="stop-color:#A2D065"
   offset="1" />

				</linearGradient>

				<path
   id="path4060"
   d="m 8.526,15.53 c 0.245,-0.213 0.391,-0.565 0.449,-0.897 -0.11,0.043 -0.213,0.09 -0.326,0.133 -0.189,0.189 -0.02,0.512 -0.123,0.764 z"
   inkscape:connector-curvature="0"
   style="fill:url(#linearGradient4197)" />

			</g>

		</g>

		<g
   id="g4062">
			<g
   id="g4064">
				
					<linearGradient
   gradientTransform="matrix(0.8929,0,0,-0.8929,0,53)"
   y2="56.965199"
   x2="20.148399"
   y1="0.091799997"
   x1="20.148399"
   gradientUnits="userSpaceOnUse"
   id="SVGID_3_">
					<stop
   id="stop4067"
   style="stop-color:#C5E29F"
   offset="0" />

					<stop
   id="stop4069"
   style="stop-color:#A2D065"
   offset="1" />

				</linearGradient>

				<path
   id="path4071"
   d="m 17.774,14.847 c 0.231,0.017 0.742,0.009 0.729,-0.272 -0.253,-0.19 -0.686,-0.071 -0.797,-0.438 l -0.042,0.007 c -0.136,0.242 -0.393,0.782 0.11,0.703 z"
   inkscape:connector-curvature="0"
   style="fill:url(#linearGradient4199)" />

			</g>

		</g>

		<g
   id="g4073">
			<g
   id="g4075">
				
					<linearGradient
   gradientTransform="matrix(0.8929,0,0,-0.8929,0,53)"
   y2="56.965199"
   x2="27.5049"
   y1="0.091799997"
   x1="27.5049"
   gradientUnits="userSpaceOnUse"
   id="SVGID_4_">
					<stop
   id="stop4078"
   style="stop-color:#C5E29F"
   offset="0" />

					<stop
   id="stop4080"
   style="stop-color:#A2D065"
   offset="1" />

				</linearGradient>

				<path
   id="path4082"
   d="m 24.722,11.307 c 0.343,-0.329 -0.251,-0.041 -0.374,-0.05 -0.228,0.376 0.263,0.425 0.374,0.05 z"
   inkscape:connector-curvature="0"
   style="fill:url(#linearGradient4201)" />

			</g>

		</g>

		<g
   id="g4084">
			<g
   id="g4086">
				
					<linearGradient
   gradientTransform="matrix(0.8929,0,0,-0.8929,0,53)"
   y2="56.965199"
   x2="38.6091"
   y1="0.091799997"
   x1="38.6091"
   gradientUnits="userSpaceOnUse"
   id="SVGID_5_">
					<stop
   id="stop4089"
   style="stop-color:#C5E29F"
   offset="0" />

					<stop
   id="stop4091"
   style="stop-color:#A2D065"
   offset="1" />

				</linearGradient>

				<path
   id="path4093"
   d="m 35.503,46.315 c -0.453,0.523 -0.99,0.976 -1.656,1.195 -0.381,0.399 -0.163,1.041 -0.553,1.436 -0.248,0.362 -0.045,0.646 0.337,0.377 0.589,-0.213 0.867,-0.862 1.237,-1.337 0.279,-0.543 0.692,-1.037 0.892,-1.615 -0.023,-0.231 -0.144,-0.284 -0.257,-0.056 z"
   inkscape:connector-curvature="0"
   style="fill:url(#linearGradient4203)" />

			</g>

		</g>

		<g
   id="g4095">
			<g
   id="g4097">
				
					<linearGradient
   gradientTransform="matrix(0.8929,0,0,-0.8929,0,53)"
   y2="56.965199"
   x2="32.427799"
   y1="0.091799997"
   x1="32.427799"
   gradientUnits="userSpaceOnUse"
   id="SVGID_6_">
					<stop
   id="stop4100"
   style="stop-color:#C5E29F"
   offset="0" />

					<stop
   id="stop4102"
   style="stop-color:#A2D065"
   offset="1" />

				</linearGradient>

				<path
   id="path4104"
   d="m 28.954,12.803 c -0.115,-0.392 0.021,-0.822 -0.048,-1.227 -0.038,0.053 -0.079,0.105 -0.118,0.155 -0.137,0.429 0.054,0.87 0.138,1.287 0.411,0.343 0.208,0.095 0.028,-0.215 z"
   inkscape:connector-curvature="0"
   style="fill:url(#linearGradient4205)" />

			</g>

		</g>

		<g
   id="g4106">
			<g
   id="g4108">
				
					<linearGradient
   gradientTransform="matrix(0.8929,0,0,-0.8929,0,53)"
   y2="56.965199"
   x2="20.2603"
   y1="0.091799997"
   x1="20.2603"
   gradientUnits="userSpaceOnUse"
   id="SVGID_7_">
					<stop
   id="stop4111"
   style="stop-color:#C5E29F"
   offset="0" />

					<stop
   id="stop4113"
   style="stop-color:#A2D065"
   offset="1" />

				</linearGradient>

				<path
   id="path4115"
   d="m 14.149,13.237 c 0.534,-0.195 1.054,-0.463 1.595,-0.62 1.038,0.017 2.11,0.195 3.121,-0.069 0.596,-0.37 1.12,-0.845 1.782,-1.079 0.193,-0.248 0.397,-0.488 0.671,-0.633 0.188,-0.274 0.404,-0.525 0.751,-0.562 0.304,-0.046 0.532,-0.268 0.328,-0.554 C 22.643,9.38 22.322,9.214 22.039,9.077 21.846,8.867 21.22,8.823 21.418,8.463 21.586,8.257 22.031,8.08 21.661,7.782 21.378,7.544 20.994,7.487 20.648,7.366 20.455,7.602 20.099,7.889 19.819,7.62 19.573,7.36 19.942,7.12 20.04,6.963 19.79,7.146 19.444,7.295 19.193,7.018 19.048,6.896 18.856,6.873 18.682,6.957 c -0.578,0.098 -0.158,0.101 0.185,0.138 0.37,-10e-4 0.413,0.387 0.204,0.603 0.088,0.299 0.566,0.124 0.812,0.229 0.371,0.027 0.792,0.129 1.042,0.407 C 21.01,8.68 20.644,8.808 20.384,8.677 20.038,8.553 19.66,8.564 19.369,8.817 19.073,8.931 19.13,9.355 18.831,9.486 18.35,9.853 17.82,10.2 17.3,10.487 c -0.37,0.045 -0.479,0.216 -0.619,0.504 -0.411,0.13 -0.915,0.027 -1.248,0.381 -0.634,0.424 -1.11,1.03 -1.641,1.566 -0.233,0.449 -0.015,0.55 0.357,0.299 z"
   inkscape:connector-curvature="0"
   style="fill:url(#linearGradient4207)" />

			</g>

		</g>

		<g
   id="g4117">
			<g
   id="g4119">
				
					<linearGradient
   gradientTransform="matrix(0.8929,0,0,-0.8929,0,53)"
   y2="56.965199"
   x2="20.044001"
   y1="0.091799997"
   x1="20.044001"
   gradientUnits="userSpaceOnUse"
   id="SVGID_8_">
					<stop
   id="stop4122"
   style="stop-color:#C5E29F"
   offset="0" />

					<stop
   id="stop4124"
   style="stop-color:#A2D065"
   offset="1" />

				</linearGradient>

				<path
   id="path4126"
   d="m 18.949,17.967 c 0.09,-0.101 -0.195,0.045 -0.206,0.029 -0.499,-0.046 -0.31,0.268 -0.456,0.537 -0.223,0.415 -0.696,0.511 -1.088,0.675 -0.25,0.151 -0.381,0.457 -0.516,0.698 0.212,0.174 0.622,-0.013 0.796,-0.204 0.15,-0.271 0.464,-0.671 0.786,-0.385 0.386,0.075 0.256,0.526 -0.012,0.675 -0.314,0.15 -0.431,0.48 -0.536,0.79 -0.289,0.291 0.42,0.141 0.599,0.241 0.283,0.012 0.765,0.224 0.796,-0.232 -0.037,-0.641 -0.191,-1.28 -0.233,-1.915 0.207,-0.294 -0.053,-0.62 0.07,-0.909 z"
   inkscape:connector-curvature="0"
   style="fill:url(#linearGradient4209)" />

			</g>

		</g>

	</g>

	
		<linearGradient
   gradientTransform="matrix(0.8929,0,0,-0.8929,0,53)"
   y2="56.965199"
   x2="28"
   y1="0.091799997"
   x1="28"
   gradientUnits="userSpaceOnUse"
   id="SVGID_9_">
		<stop
   id="stop4129"
   style="stop-color:#C5E29F"
   offset="0" />

		<stop
   id="stop4131"
   style="stop-color:#A2D065"
   offset="1" />

	</linearGradient>

	<path
   id="path4133"
   d="M 25,3 C 11.193,3 0,14.193 0,28 0,41.807 11.193,53 25,53 38.807,53 50,41.807 50,28 50,14.193 38.807,3 25,3 z m 9.152,21.067 c 0.289,0.682 0.634,1.353 0.89,2.038 0.104,0.429 -0.403,0.569 -0.724,0.577 -0.304,-0.038 -0.639,-0.198 -0.888,-0.351 -0.021,-0.354 -0.162,-0.768 0.09,-1.069 -0.413,-0.33 -0.865,-0.648 -1.173,-1.078 -0.131,-0.342 -0.306,-0.812 0.017,-1.093 0.113,-0.013 0.231,-0.04 0.345,-0.048 0.484,0.334 0.983,0.664 1.443,1.024 z M 18.762,5.65 C 18.874,5.883 18.667,6.179 18.425,6.11 18.28,6.04 18.238,5.905 18.265,5.791 18.429,5.741 18.596,5.696 18.762,5.65 z M 1.795,28 c 0,-5.352 1.817,-10.278 4.86,-14.204 0.035,-0.022 0.063,-0.042 0.102,-0.069 0.321,-0.141 0.569,0.284 0.742,0.494 0.063,0.242 -0.472,0.423 -0.07,0.514 0.008,-0.36 0.318,-0.635 0.451,-0.96 0.206,-0.187 0.721,-0.403 0.408,-0.73 -0.339,-0.315 -0.368,-0.474 0.131,-0.36 0.318,-0.024 0.674,0.123 0.789,0.425 -0.171,0.38 0.243,0.773 0.611,0.708 0.428,-0.177 0.628,-0.711 0.925,-1.063 0.368,-0.571 0.955,-0.999 1.391,-1.483 -0.306,0.096 -0.472,-0.319 -0.206,-0.48 0.436,-0.371 0.944,-0.661 1.265,-1.153 -0.744,0.231 -1.433,0.572 -2.179,0.788 -0.391,0.036 -0.73,0.228 -1.079,0.4 -0.118,-0.102 -0.154,-0.233 -0.133,-0.355 1.381,-1.198 2.903,-2.235 4.54,-3.083 0.279,0.151 0.561,0.302 0.836,0.454 -0.233,0.452 0.326,0.196 0.576,0.254 0.364,-0.025 0.729,0.036 1.087,0.071 0.163,0.351 -0.177,0.513 -0.468,0.424 -0.366,0.049 -0.621,0.314 -0.805,0.625 -0.31,0.294 -0.611,-0.116 -0.95,-0.065 -0.306,0.38 -0.612,0.76 -0.921,1.138 0.619,-0.13 1.077,-0.652 1.689,-0.814 -0.068,0.154 -0.493,0.656 -0.314,0.54 0.696,-0.472 1.35,-1.01 2.08,-1.432 0.335,-0.274 0.667,-0.551 1,-0.828 -0.416,-0.152 -0.838,0.182 -1.248,0.261 -0.2,0.072 -0.562,0.031 -0.636,-0.138 0.087,-0.521 0.697,-0.568 1.1,-0.706 C 17.665,7.079 18.066,7.061 17.535,7.014 17.296,7.053 16.814,6.96 17.114,6.646 17.32,6.392 17.592,6.25 17.896,6.153 18.023,6.579 18.442,6.301 18.753,6.325 19.109,6.328 19.441,6.22 19.718,6.006 20.307,5.864 19.735,5.901 19.515,5.703 19.44,5.607 19.442,5.528 19.48,5.46 c 1.77,-0.433 3.618,-0.667 5.519,-0.667 1.896,0 3.735,0.232 5.498,0.661 0.125,0.056 0.25,0.111 0.376,0.167 0.27,0.398 0.705,0.777 0.688,1.3 -0.241,0.265 0.436,0.117 0.601,0.29 0.166,0.191 0.443,0.387 0.431,0.65 -0.137,0.254 -0.659,0.169 -0.256,0.46 0.115,0.271 -0.15,0.526 -0.296,0.706 -0.406,0.146 -0.815,-0.171 -1.212,0.037 -0.447,0.102 -0.208,0.062 -0.038,0.329 0.052,0.246 -0.088,0.537 0.135,0.79 0.123,0.504 0.258,1.009 0.379,1.512 -0.337,0.069 0.033,0.672 -0.431,0.497 -0.321,-0.466 -0.368,-0.071 -0.123,0.237 0.163,0.369 0.446,0.66 0.672,0.986 -0.449,0.023 -0.9,0.113 -1.345,0.008 0.406,0.089 0.183,0.504 -0.058,0.657 -0.335,0.254 -0.701,0.556 -1.113,0.655 -0.466,-0.131 -0.343,0.121 -0.16,0.404 0.154,0.361 -0.338,0.312 -0.553,0.231 -0.915,-0.354 -1.736,-1.003 -2.693,-1.205 -0.622,0.144 -1.321,0.256 -1.757,0.769 -0.231,0.538 -0.701,0.932 -1.115,1.323 -0.468,0.389 -1.09,0.674 -1.371,1.24 -0.031,0.289 -0.135,0.695 0.098,0.905 0.285,-0.015 0.646,-0.239 0.888,-0.084 0.09,0.294 0.013,0.623 0.248,0.862 0.081,0.376 -0.353,0.701 -0.678,0.503 -0.198,-0.149 0.268,-0.487 0.154,-0.613 -0.285,0.098 -0.559,0.271 -0.551,0.619 -0.05,0.366 -0.216,0.776 -0.636,0.794 -0.569,0.053 -0.871,0.602 -1.408,0.75 0.1,0.261 -0.364,0.309 -0.526,0.432 -0.285,0.053 -0.571,0.082 -0.859,0.021 -0.07,0.362 -0.729,-0.03 -0.579,0.379 0.221,0.468 0.488,1.011 0.22,1.52 -0.113,0.286 -0.303,0.547 -0.646,0.459 -0.516,-0.066 -1.007,-0.329 -1.518,-0.469 -0.445,0.221 -0.316,0.854 -0.611,1.208 -0.233,0.316 -0.246,0.714 -0.37,1.078 0.208,0.249 0.724,0.341 0.626,0.771 -0.058,0.334 -0.208,0.674 -0.543,0.805 -0.404,0.282 -0.846,0.577 -1.138,0.973 -0.162,0.386 -0.408,0.788 -0.837,0.875 -0.449,0.143 -0.89,0.309 -1.22,0.67 -0.518,0.49 -0.99,1.059 -1.35,1.679 -0.145,0.416 -0.148,0.854 -0.138,1.289 -0.279,0.77 -0.726,1.571 -0.557,2.407 0.346,0.578 0.862,1.114 0.871,1.828 0.607,0.664 1.213,1.331 1.821,1.997 0.884,0.127 1.726,0.487 2.61,0.579 0.626,0.038 1.268,-0.052 1.88,0.043 0.591,0.082 0.705,0.89 1.306,0.954 0.381,0.112 0.772,0.187 1.162,0.28 -0.258,0.273 0.316,0.265 0.206,0.579 -0.083,0.466 -0.301,0.951 -0.316,1.405 0.431,0.791 1.213,1.33 1.503,2.204 0.208,0.536 0.396,1.096 0.588,1.646 -0.308,0.449 -0.877,0.933 -0.621,1.532 0.546,0.749 0.994,1.581 1.604,2.276 0.129,0.124 0.253,0.26 0.376,0.392 C 10.764,49.714 1.795,39.906 1.795,28 z m 24.619,-1.632 c -0.256,-0.246 0.396,-0.468 0.013,-0.657 -0.203,-0.413 0.158,-0.788 0.262,-1.177 0.225,-0.374 0.326,-1.024 0.874,-0.982 0.237,0.195 0.466,0.389 0.664,0.622 0.22,-0.114 0.847,-0.043 0.42,-0.299 -0.273,-0.4 0.304,-0.629 0.621,-0.571 0.254,0.176 0.218,0.614 -0.07,0.716 0.639,0.225 1.25,0.588 1.786,1.026 -0.005,0.361 -0.27,0.607 -0.599,0.676 -0.649,0.171 -1.343,-0.044 -2.011,-0.011 -0.493,0.115 -0.996,0.329 -1.496,0.316 0.185,0.304 -0.231,0.532 -0.464,0.341 z m 0.582,-10.801 c 0.15,-0.152 0.356,-0.107 0.547,-0.143 0.258,0.05 0.712,0.156 0.564,0.52 -0.042,0.323 -0.476,0.158 -0.414,0.454 -0.15,0.333 -0.522,0.002 -0.746,-0.07 0.245,-0.27 -0.065,-0.504 0.049,-0.761 z m 1.186,2.723 c 0.046,-0.102 0.165,-0.083 0.254,-0.098 0.278,0.073 0.287,0.481 0.04,0.577 -0.274,0.061 -0.53,-0.266 -0.294,-0.479 z m -1.019,-0.511 c 0.01,0.331 -0.42,0.446 -0.619,0.206 -0.218,-0.201 -0.168,-0.463 0.013,-0.665 L 26.57,17.3 h 0.03 c 0.221,0.052 0.488,0.254 0.563,0.479 z m -0.859,-0.091 c -0.029,0.338 -0.154,0.654 -0.445,0.842 -0.37,-0.1 -0.143,-0.497 0.054,-0.655 0.066,-0.09 0.391,-0.399 0.391,-0.187 z m -1.675,-0.565 c 0.042,0.354 0.025,0.906 -0.424,0.952 -0.376,0.111 -0.771,-0.345 -0.539,-0.698 0.152,-0.346 0.408,-0.605 0.705,-0.828 0.104,-0.329 0.281,-0.585 0.614,-0.698 0.046,-0.047 0.11,-0.034 0.168,-0.038 0.321,0.083 0.283,0.46 0.071,0.645 -0.112,0.321 -0.71,0.261 -0.595,0.665 z m -0.993,1.321 c 0.295,-0.231 0.614,-0.387 0.992,-0.385 0.027,0.004 0.052,-0.012 0.079,-0.011 0.196,0.035 0.711,0.037 0.603,0.309 -0.341,0.314 -0.203,0.238 0.029,0.529 0.193,0.27 -0.156,0.747 -0.436,0.483 -0.216,-0.504 -0.26,0.033 -0.349,0.31 -0.148,0.279 -0.235,0.756 -0.638,0.712 -0.411,-0.088 -0.789,0.134 -1.198,0.117 -0.233,-0.137 -0.751,-0.352 -0.447,-0.687 0.333,0.037 0.483,-0.238 0.726,-0.393 0.427,-0.145 0.248,-0.78 0.639,-0.984 z m 1.69,11.744 c -0.416,-0.142 -0.869,-0.463 -1.296,-0.195 -0.363,0.111 -0.131,0.756 -0.576,0.752 -0.424,0.067 -0.805,-0.198 -1.16,-0.4 -0.628,-0.578 -1.504,-0.772 -2.13,-1.338 -0.15,-0.294 0.162,-0.45 0.273,-0.638 -0.102,-0.241 -0.065,-0.55 -0.129,-0.746 -0.611,-0.158 -1.283,-0.129 -1.917,-0.215 -0.738,-0.03 -1.474,0 -2.204,0.118 -0.366,-0.021 -0.757,-0.13 -1.017,-0.376 -0.146,-0.393 0.285,-0.708 0.638,-0.601 0.549,0.11 1.098,-0.207 1.329,-0.717 0.301,-0.631 1.145,-0.662 1.433,-1.306 0.345,-0.388 0.879,0.08 1.296,-0.155 0.316,-0.048 0.782,-0.292 0.975,0.093 0.163,0.364 0.285,0.753 0.628,0.992 0.408,0.408 0.998,0.737 1.092,1.361 0.04,0.206 0.085,-0.494 0.031,-0.671 0.445,0.135 0.314,0.011 -0.023,-0.252 -0.474,-0.338 -0.765,-0.863 -1.075,-1.34 -0.098,-0.3 0.035,-0.613 0.278,-0.793 l 0.042,0.036 c 0.493,0.522 0.909,1.174 1.553,1.519 0.52,0.322 0.337,1.054 0.653,1.522 0.162,0.371 0.289,0.782 0.636,1.022 0.183,-0.175 0.26,-0.48 0.564,-0.455 0.002,-0.252 -0.447,-0.328 -0.553,-0.588 -0.108,-0.333 0.25,-0.475 0.491,-0.569 0.208,-0.09 0.543,-0.42 0.666,-0.077 0.204,0.515 0.333,1.058 0.614,1.549 0.081,0.446 0.414,-0.147 0.694,0.154 0.312,0.068 0.562,-0.267 0.88,-0.091 0.378,0.169 0.786,-0.119 1.152,-0.106 0.383,0.158 0.421,0.61 0.341,0.974 -0.052,0.562 -0.203,1.142 -0.466,1.623 -0.499,0.192 -1.042,-0.011 -1.538,0.199 -0.729,0.2 -1.474,-0.09 -2.175,-0.285 z m 4.122,13.369 c -0.245,0.208 -0.624,0.495 -0.902,0.17 -0.102,-0.329 0.085,-0.721 0.431,-0.805 0.163,-0.098 0.454,-0.242 0.609,-0.157 0.195,0.305 0.112,0.561 -0.138,0.792 z m 0.4,2.852 c 0.245,0.335 0.071,0.753 0,1.116 -0.283,-0.172 -0.479,-0.386 -0.408,-0.745 -0.025,-0.284 0.189,-0.468 0.408,-0.371 z m -1.716,-0.834 c -0.16,0.245 -0.559,-0.039 -0.68,-0.272 0.008,-0.1 0.045,-0.234 0.162,-0.24 0.245,0.055 0.673,0.171 0.518,0.512 z m 0.043,5.409 c 0.27,-0.194 0.528,-0.404 0.746,-0.658 0.314,-0.167 0.799,-0.276 0.74,-0.736 -0.01,-0.304 0.002,-0.611 0.279,-0.793 0.726,-0.464 1.441,-0.937 2.135,-1.451 0.008,-0.522 -0.01,-1.04 -0.231,-1.52 -0.185,-0.329 0.125,-0.679 -0.054,-1.02 0,-0.303 0.108,-0.622 0.125,-0.927 1.073,-1.233 2.173,-2.446 3.23,-3.691 0.483,-0.885 0.955,-1.793 1.206,-2.78 -0.208,-0.285 -0.584,0.145 -0.842,0.203 -0.611,0.298 -1.198,0.622 -1.867,0.73 -0.504,-0.639 -1.085,-1.209 -1.672,-1.766 -0.206,0.246 -0.653,0.013 -0.554,-0.305 -0.214,-0.629 -0.847,-0.996 -0.99,-1.662 -0.085,-0.465 -0.528,-0.677 -0.688,-1.096 -0.306,-0.514 -0.561,-1.09 -0.747,-1.641 0.052,-0.391 0.447,-0.322 0.686,-0.151 0.493,0.507 0.979,1.096 1.428,1.651 0.374,0.983 1.268,1.601 1.817,2.456 0.212,0.449 0.362,0.929 0.651,1.337 0.728,-0.143 1.273,-0.724 1.867,-1.109 0.69,-0.467 1.187,-1.153 1.84,-1.659 0.351,-0.346 0.684,-0.7 0.838,-1.184 0.25,-0.431 0.291,-0.938 0.416,-1.414 -0.291,-0.204 -0.634,-0.272 -0.971,-0.345 -0.271,-0.062 -0.264,-0.823 -0.493,-0.338 -0.221,0.286 -0.346,0.696 -0.747,0.76 -0.191,0.113 -0.672,0.322 -0.692,-0.04 0.008,-0.488 -0.11,-0.337 -0.413,-0.269 -0.233,-0.147 -0.318,-0.512 -0.576,-0.671 -0.235,-0.267 -0.732,-0.604 -0.474,-1 0.21,-0.117 0.358,-0.598 0.478,-0.546 0.36,0.466 0.739,0.975 1.362,1.053 0.464,0.178 0.907,-0.062 1.304,-0.3 0.221,-0.086 0.784,-0.519 0.449,-0.045 -0.331,0.359 0.21,0.41 0.456,0.306 0.811,-0.08 1.52,-0.591 2.256,-0.858 0.68,0.425 1.354,0.911 2.162,1.011 0.589,0.133 0.672,0.855 1.004,1.28 0.424,0.738 0.892,1.447 1.366,2.151 0.328,0.067 0.241,-0.466 0.568,-0.496 0.193,0.047 0.298,0.469 0.387,0.679 0.254,-0.424 -0.231,-0.823 -0.361,-1.221 -0.293,-0.59 -0.291,-1.283 -0.414,-1.927 0.404,-1.261 0.546,-2.588 0.929,-3.85 0.102,-0.345 0.285,-0.669 0.478,-0.96 0.404,-0.193 0.717,0.272 0.975,0.518 0.241,0.172 0.321,0.762 0.413,0.174 0.052,-0.088 0.106,-0.407 0.16,-0.568 0.04,0.562 0.07,1.126 0.07,1.698 -0.005,11.743 -8.723,21.442 -20.035,22.99 z"
   inkscape:connector-curvature="0"
   style="fill:url(#linearGradient4211)" />

</g>
  </g>
</svg>
