<?xml version="1.0" encoding="utf-8"?>
<!-- Generator: Adobe Illustrator 18.1.1, SVG Export Plug-In . SVG Version: 6.00 Build 0)  -->
<!DOCTYPE svg PUBLIC "-//W3C//DTD SVG 1.1//EN" "http://www.w3.org/Graphics/SVG/1.1/DTD/svg11.dtd">
<svg version="1.1" id="Layer_1" xmlns="http://www.w3.org/2000/svg" xmlns:xlink="http://www.w3.org/1999/xlink" x="0px" y="0px"
	 viewBox="0 0 50 56" enable-background="new 0 0 50 56" xml:space="preserve">
<g>
	<g>
		<g>
			<linearGradient id="SVGID_1_" gradientUnits="userSpaceOnUse" x1="24.9984" y1="55.6024" x2="24.9984" y2="0.5819">
				<stop  offset="0" style="stop-color:#99E5FF"/>
				<stop  offset="1" style="stop-color:#5BD6FF"/>
			</linearGradient>
			<circle fill="url(#SVGID_1_)" cx="24.998" cy="28.193" r="10.396"/>
		</g>
	</g>
	<g>
		<g>
			<g>
				<g>
					<linearGradient id="SVGID_2_" gradientUnits="userSpaceOnUse" x1="24.9979" y1="55.2217" x2="24.9979" y2="0.5779">
						<stop  offset="0" style="stop-color:#99E5FF"/>
						<stop  offset="1" style="stop-color:#5BD6FF"/>
					</linearGradient>
					<path fill="url(#SVGID_2_)" d="M24.997,10.751c-2.963,0-5.375-2.411-5.375-5.375C19.623,2.412,22.034,0,24.997,0
						c2.964,0,5.376,2.412,5.376,5.376C30.373,8.34,27.962,10.751,24.997,10.751z M24.997,2.77c-1.436,0-2.604,1.169-2.604,2.606
						c0,1.436,1.169,2.604,2.604,2.604c1.437,0,2.605-1.169,2.605-2.604C27.603,3.939,26.434,2.77,24.997,2.77z"/>
				</g>
			</g>
			<g>
				<g>
					<linearGradient id="SVGID_3_" gradientUnits="userSpaceOnUse" x1="24.9974" y1="55.2217" x2="24.9974" y2="0.5779">
						<stop  offset="0" style="stop-color:#99E5FF"/>
						<stop  offset="1" style="stop-color:#5BD6FF"/>
					</linearGradient>
					<rect x="23.612" y="9.325" fill="url(#SVGID_3_)" width="2.77" height="10.074"/>
				</g>
			</g>
		</g>
		<g>
			<g>
				<g>
					<linearGradient id="SVGID_4_" gradientUnits="userSpaceOnUse" x1="24.9979" y1="55.2217" x2="24.9979" y2="0.5779">
						<stop  offset="0" style="stop-color:#99E5FF"/>
						<stop  offset="1" style="stop-color:#5BD6FF"/>
					</linearGradient>
					<path fill="url(#SVGID_4_)" d="M24.997,56c-2.963,0-5.375-2.411-5.375-5.376c0-2.963,2.411-5.375,5.375-5.375
						c2.964,0,5.376,2.411,5.376,5.375C30.373,53.589,27.962,56,24.997,56z M24.997,48.02c-1.436,0-2.604,1.169-2.604,2.604
						c0,1.437,1.169,2.605,2.604,2.605c1.437,0,2.605-1.169,2.605-2.605C27.603,49.189,26.434,48.02,24.997,48.02z"/>
				</g>
			</g>
			<g>
				<g>
					<linearGradient id="SVGID_5_" gradientUnits="userSpaceOnUse" x1="24.9974" y1="55.2217" x2="24.9974" y2="0.5779">
						<stop  offset="0" style="stop-color:#99E5FF"/>
						<stop  offset="1" style="stop-color:#5BD6FF"/>
					</linearGradient>
					<rect x="23.612" y="36.602" fill="url(#SVGID_5_)" width="2.77" height="10.073"/>
				</g>
			</g>
		</g>
		<g>
			<g>
				<g>
					<g>
						<g>
							<linearGradient id="SVGID_6_" gradientUnits="userSpaceOnUse" x1="5.7108" y1="55.2217" x2="5.7108" y2="0.5779">
								<stop  offset="0" style="stop-color:#99E5FF"/>
								<stop  offset="1" style="stop-color:#5BD6FF"/>
							</linearGradient>
							<path fill="url(#SVGID_6_)" d="M5.706,20.981c-1.052,0-2.075-0.308-2.956-0.889c-2.474-1.632-3.158-4.972-1.526-7.447
								c0.997-1.512,2.676-2.416,4.49-2.416c1.052,0,2.075,0.308,2.957,0.889c2.473,1.633,3.158,4.973,1.526,7.446
								C9.2,20.077,7.521,20.981,5.706,20.981z M5.715,12.999c-0.88,0-1.694,0.437-2.178,1.171c-0.791,1.2-0.46,2.819,0.739,3.61
								c1.169,0.772,2.846,0.417,3.609-0.741c0.791-1.198,0.458-2.817-0.739-3.608C6.718,13.148,6.223,12.999,5.715,12.999z"/>
						</g>
					</g>
					<g>
						<g>
							<linearGradient id="SVGID_7_" gradientUnits="userSpaceOnUse" x1="13.2115" y1="55.2217" x2="13.2115" y2="0.5779">
								<stop  offset="0" style="stop-color:#99E5FF"/>
								<stop  offset="1" style="stop-color:#5BD6FF"/>
							</linearGradient>
							<polygon fill="url(#SVGID_7_)" points="16.653,24.483 8.244,18.935 9.77,16.623 18.179,22.171 							"/>
						</g>
					</g>
				</g>
				<g>
					<g>
						<g>
							<linearGradient id="SVGID_8_" gradientUnits="userSpaceOnUse" x1="5.711" y1="55.2217" x2="5.711" y2="0.5779">
								<stop  offset="0" style="stop-color:#99E5FF"/>
								<stop  offset="1" style="stop-color:#5BD6FF"/>
							</linearGradient>
							<path fill="url(#SVGID_8_)" d="M5.715,45.713L5.715,45.713c-1.814,0-3.493-0.904-4.49-2.417
								c-1.632-2.474-0.948-5.814,1.526-7.446c0.882-0.582,1.904-0.888,2.956-0.888c1.814,0,3.494,0.903,4.492,2.416
								c1.631,2.473,0.946,5.813-1.527,7.446C7.79,45.406,6.767,45.713,5.715,45.713z M5.706,37.733c-0.509,0-1.003,0.149-1.43,0.43
								c-0.581,0.383-0.978,0.969-1.117,1.651s-0.005,1.377,0.378,1.958c0.763,1.158,2.441,1.511,3.609,0.74
								c1.198-0.791,1.53-2.41,0.739-3.608C7.402,38.17,6.587,37.733,5.706,37.733z"/>
						</g>
					</g>
					<g>
						<g>
							<linearGradient id="SVGID_9_" gradientUnits="userSpaceOnUse" x1="13.2115" y1="55.2217" x2="13.2115" y2="0.5779">
								<stop  offset="0" style="stop-color:#99E5FF"/>
								<stop  offset="1" style="stop-color:#5BD6FF"/>
							</linearGradient>
							<polygon fill="url(#SVGID_9_)" points="9.77,39.32 8.244,37.007 16.653,31.459 18.179,33.771 							"/>
						</g>
					</g>
				</g>
			</g>
			<g>
				<g>
					<g>
						<g>
							<linearGradient id="SVGID_10_" gradientUnits="userSpaceOnUse" x1="44.2873" y1="55.2217" x2="44.2873" y2="0.5779">
								<stop  offset="0" style="stop-color:#99E5FF"/>
								<stop  offset="1" style="stop-color:#5BD6FF"/>
							</linearGradient>
							<path fill="url(#SVGID_10_)" d="M44.281,45.713c-1.052,0-2.074-0.307-2.956-0.889c-2.474-1.633-3.158-4.973-1.527-7.446
								c0.998-1.513,2.677-2.416,4.491-2.416c1.052,0,2.075,0.307,2.955,0.888c1.199,0.791,2.018,2.001,2.307,3.407
								c0.289,1.407,0.011,2.841-0.779,4.04C47.775,44.81,46.096,45.713,44.281,45.713z M44.289,37.733
								c-0.88,0-1.694,0.437-2.178,1.171c-0.792,1.198-0.459,2.817,0.739,3.608c0.427,0.282,0.922,0.431,1.43,0.431
								c0.88,0,1.694-0.437,2.178-1.171c0.383-0.582,0.519-1.277,0.378-1.959c-0.139-0.682-0.536-1.268-1.117-1.651
								C45.292,37.881,44.798,37.733,44.289,37.733z"/>
						</g>
					</g>
					<g>
						<g>
							<linearGradient id="SVGID_11_" gradientUnits="userSpaceOnUse" x1="36.7843" y1="55.2217" x2="36.7843" y2="0.5779">
								<stop  offset="0" style="stop-color:#99E5FF"/>
								<stop  offset="1" style="stop-color:#5BD6FF"/>
							</linearGradient>
							<polygon fill="url(#SVGID_11_)" points="40.226,39.32 31.817,33.771 33.343,31.459 41.752,37.007 							"/>
						</g>
					</g>
				</g>
				<g>
					<g>
						<g>
							<linearGradient id="SVGID_12_" gradientUnits="userSpaceOnUse" x1="44.2872" y1="55.2217" x2="44.2872" y2="0.5779">
								<stop  offset="0" style="stop-color:#99E5FF"/>
								<stop  offset="1" style="stop-color:#5BD6FF"/>
							</linearGradient>
							<path fill="url(#SVGID_12_)" d="M44.29,20.981L44.29,20.981c-1.815,0-3.494-0.904-4.493-2.417
								c-1.63-2.473-0.946-5.813,1.527-7.446c0.883-0.582,1.905-0.889,2.957-0.889c1.814,0,3.494,0.904,4.491,2.417
								c0.79,1.198,1.068,2.632,0.779,4.039c-0.289,1.406-1.107,2.616-2.307,3.407C46.364,20.673,45.342,20.981,44.29,20.981z
								 M44.281,12.999c-0.509,0-1.003,0.149-1.43,0.431c-1.198,0.791-1.531,2.41-0.74,3.608c0.484,0.734,1.299,1.172,2.18,1.172
								l0,0c0.508,0,1.002-0.149,1.428-0.431c0.583-0.383,0.979-0.969,1.118-1.651c0.141-0.682,0.005-1.377-0.377-1.958
								C45.976,13.437,45.161,12.999,44.281,12.999z"/>
						</g>
					</g>
					<g>
						<g>
							<linearGradient id="SVGID_13_" gradientUnits="userSpaceOnUse" x1="36.7843" y1="55.2217" x2="36.7843" y2="0.5779">
								<stop  offset="0" style="stop-color:#99E5FF"/>
								<stop  offset="1" style="stop-color:#5BD6FF"/>
							</linearGradient>
							<polygon fill="url(#SVGID_13_)" points="33.343,24.483 31.817,22.171 40.226,16.623 41.752,18.935 							"/>
						</g>
					</g>
				</g>
			</g>
		</g>
	</g>
</g>
</svg>
