<?xml version="1.0" encoding="UTF-8" standalone="no"?>
<!-- Created with Inkscape (http://www.inkscape.org/) -->

<svg
   xmlns:dc="http://purl.org/dc/elements/1.1/"
   xmlns:cc="http://creativecommons.org/ns#"
   xmlns:rdf="http://www.w3.org/1999/02/22-rdf-syntax-ns#"
   xmlns:svg="http://www.w3.org/2000/svg"
   xmlns="http://www.w3.org/2000/svg"
   xmlns:sodipodi="http://sodipodi.sourceforge.net/DTD/sodipodi-0.dtd"
   xmlns:inkscape="http://www.inkscape.org/namespaces/inkscape"
   width="48px"
   height="48px"
   id="svg2985"
   version="1.1"
   inkscape:version="0.48.4 r9939"
   sodipodi:docname="New document 2">
  <defs
     id="defs2987" />
  <sodipodi:namedview
     id="base"
     pagecolor="#ffffff"
     bordercolor="#666666"
     borderopacity="1.0"
     inkscape:pageopacity="0.0"
     inkscape:pageshadow="2"
     inkscape:zoom="7"
     inkscape:cx="20.214012"
     inkscape:cy="23.456354"
     inkscape:current-layer="layer1"
     showgrid="true"
     inkscape:grid-bbox="true"
     inkscape:document-units="px"
     inkscape:window-width="780"
     inkscape:window-height="687"
     inkscape:window-x="68"
     inkscape:window-y="145"
     inkscape:window-maximized="0" />
  <metadata
     id="metadata2990">
    <rdf:RDF>
      <cc:Work
         rdf:about="">
        <dc:format>image/svg+xml</dc:format>
        <dc:type
           rdf:resource="http://purl.org/dc/dcmitype/StillImage" />
        <dc:title></dc:title>
      </cc:Work>
    </rdf:RDF>
  </metadata>
  <g
     id="layer1"
     inkscape:label="Layer 1"
     inkscape:groupmode="layer">
    <g
       id="g2994"
       transform="scale(0.85714286,0.85714286)">
	<g
   id="g2996">
		<g
   id="g2998">
			<g
   id="g3000">
				<linearGradient
   y2="-0.96520001"
   x2="24.492399"
   y1="55.908199"
   x1="24.492399"
   gradientUnits="userSpaceOnUse"
   id="SVGID_1_">
					<stop
   id="stop3003"
   style="stop-color:#ACB4BA"
   offset="0" />

					<stop
   id="stop3005"
   style="stop-color:#606E79"
   offset="1" />

				</linearGradient>

				<path
   id="path3007"
   d="m 24.3,27.249 c -0.505,-0.146 0.272,0.501 0.378,0.144 0.478,-0.412 -0.143,-0.12 -0.378,-0.144 z"
   inkscape:connector-curvature="0"
   style="fill:url(#SVGID_1_)" />

			</g>

		</g>

		<g
   id="g3009">
			<g
   id="g3011">
				<linearGradient
   y2="-0.96520001"
   x2="9.8001003"
   y1="55.908199"
   x1="9.8001003"
   gradientUnits="userSpaceOnUse"
   id="SVGID_2_">
					<stop
   id="stop3014"
   style="stop-color:#ACB4BA"
   offset="0" />

					<stop
   id="stop3016"
   style="stop-color:#606E79"
   offset="1" />

				</linearGradient>

				<path
   id="path3018"
   d="M 9.549,14.034 C 9.823,13.795 9.987,13.401 10.052,13.029 9.929,13.077 9.813,13.13 9.687,13.178 9.475,13.39 9.665,13.751 9.549,14.034 z"
   inkscape:connector-curvature="0"
   style="fill:url(#SVGID_2_)" />

			</g>

		</g>

		<g
   id="g3020">
			<g
   id="g3022">
				<linearGradient
   y2="-0.96520001"
   x2="20.1481"
   y1="55.908199"
   x1="20.1481"
   gradientUnits="userSpaceOnUse"
   id="SVGID_3_">
					<stop
   id="stop3025"
   style="stop-color:#ACB4BA"
   offset="0" />

					<stop
   id="stop3027"
   style="stop-color:#606E79"
   offset="1" />

				</linearGradient>

				<path
   id="path3029"
   d="m 19.907,13.269 c 0.259,0.019 0.831,0.01 0.816,-0.305 -0.283,-0.213 -0.768,-0.08 -0.893,-0.49 l -0.047,0.008 c -0.152,0.27 -0.439,0.875 0.124,0.787 z"
   inkscape:connector-curvature="0"
   style="fill:url(#SVGID_3_)" />

			</g>

		</g>

		<g
   id="g3031">
			<g
   id="g3033">
				<linearGradient
   y2="-0.96520001"
   x2="27.505301"
   y1="55.908199"
   x1="27.505301"
   gradientUnits="userSpaceOnUse"
   id="SVGID_4_">
					<stop
   id="stop3036"
   style="stop-color:#ACB4BA"
   offset="0" />

					<stop
   id="stop3038"
   style="stop-color:#606E79"
   offset="1" />

				</linearGradient>

				<path
   id="path3040"
   d="M 27.689,9.304 C 28.073,8.936 27.408,9.258 27.27,9.248 c -0.256,0.421 0.294,0.476 0.419,0.056 z"
   inkscape:connector-curvature="0"
   style="fill:url(#SVGID_4_)" />

			</g>

		</g>

		<g
   id="g3042">
			<g
   id="g3044">
				<linearGradient
   y2="-0.96520001"
   x2="38.608101"
   y1="55.908199"
   x1="38.608101"
   gradientUnits="userSpaceOnUse"
   id="SVGID_5_">
					<stop
   id="stop3047"
   style="stop-color:#ACB4BA"
   offset="0" />

					<stop
   id="stop3049"
   style="stop-color:#606E79"
   offset="1" />

				</linearGradient>

				<path
   id="path3051"
   d="m 39.763,48.513 c -0.507,0.586 -1.109,1.093 -1.855,1.338 -0.427,0.447 -0.183,1.166 -0.619,1.608 -0.278,0.406 -0.05,0.724 0.378,0.422 0.66,-0.239 0.971,-0.965 1.385,-1.497 0.313,-0.608 0.775,-1.161 0.999,-1.809 -0.025,-0.258 -0.161,-0.318 -0.288,-0.062 z"
   inkscape:connector-curvature="0"
   style="fill:url(#SVGID_5_)" />

			</g>

		</g>

		<g
   id="g3053">
			<g
   id="g3055">
				<linearGradient
   y2="-0.96520001"
   x2="32.4282"
   y1="55.908199"
   x1="32.4282"
   gradientUnits="userSpaceOnUse"
   id="SVGID_6_">
					<stop
   id="stop3058"
   style="stop-color:#ACB4BA"
   offset="0" />

					<stop
   id="stop3060"
   style="stop-color:#606E79"
   offset="1" />

				</linearGradient>

				<path
   id="path3062"
   d="M 32.429,10.979 C 32.3,10.54 32.453,10.058 32.375,9.605 c -0.043,0.059 -0.088,0.118 -0.132,0.174 -0.153,0.48 0.06,0.974 0.155,1.441 0.459,0.384 0.232,0.106 0.031,-0.241 z"
   inkscape:connector-curvature="0"
   style="fill:url(#SVGID_6_)" />

			</g>

		</g>

		<g
   id="g3064">
			<g
   id="g3066">
				<linearGradient
   y2="-0.96520001"
   x2="20.2605"
   y1="55.908199"
   x1="20.2605"
   gradientUnits="userSpaceOnUse"
   id="SVGID_7_">
					<stop
   id="stop3069"
   style="stop-color:#ACB4BA"
   offset="0" />

					<stop
   id="stop3071"
   style="stop-color:#606E79"
   offset="1" />

				</linearGradient>

				<path
   id="path3073"
   d="m 15.847,11.466 c 0.598,-0.218 1.18,-0.519 1.786,-0.694 1.163,0.019 2.363,0.218 3.495,-0.077 0.667,-0.414 1.254,-0.946 1.996,-1.208 C 23.34,9.209 23.569,8.94 23.875,8.778 24.086,8.471 24.328,8.19 24.716,8.149 25.057,8.097 25.312,7.849 25.083,7.528 25.359,7.147 24.999,6.961 24.682,6.808 24.466,6.573 23.765,6.524 23.987,6.12 24.175,5.889 24.673,5.691 24.259,5.357 23.942,5.09 23.512,5.027 23.124,4.891 22.908,5.155 22.509,5.477 22.196,5.175 21.92,4.884 22.334,4.615 22.444,4.439 22.164,4.644 21.777,4.811 21.495,4.501 21.333,4.364 21.117,4.339 20.923,4.433 c -0.647,0.11 -0.177,0.113 0.207,0.155 0.414,-0.001 0.462,0.433 0.229,0.675 0.099,0.335 0.634,0.139 0.91,0.257 0.416,0.03 0.887,0.145 1.167,0.456 0.095,0.387 -0.315,0.531 -0.606,0.384 -0.388,-0.139 -0.811,-0.127 -1.137,0.157 -0.332,0.128 -0.268,0.602 -0.602,0.749 -0.539,0.409 -1.133,0.798 -1.715,1.119 -0.414,0.05 -0.537,0.242 -0.693,0.565 -0.46,0.146 -1.025,0.03 -1.398,0.427 -0.71,0.475 -1.243,1.154 -1.838,1.754 -0.261,0.502 -0.017,0.616 0.4,0.335 z"
   inkscape:connector-curvature="0"
   style="fill:url(#SVGID_7_)" />

			</g>

		</g>

		<g
   id="g3075">
			<g
   id="g3077">
				<linearGradient
   y2="-0.96520001"
   x2="20.044001"
   y1="55.908199"
   x1="20.044001"
   gradientUnits="userSpaceOnUse"
   id="SVGID_8_">
					<stop
   id="stop3080"
   style="stop-color:#ACB4BA"
   offset="0" />

					<stop
   id="stop3082"
   style="stop-color:#606E79"
   offset="1" />

				</linearGradient>

				<path
   id="path3084"
   d="m 21.223,16.763 c 0.101,-0.113 -0.218,0.05 -0.231,0.033 -0.559,-0.051 -0.347,0.3 -0.511,0.601 -0.25,0.465 -0.779,0.572 -1.219,0.756 -0.28,0.169 -0.427,0.512 -0.578,0.782 0.237,0.195 0.697,-0.014 0.891,-0.228 0.168,-0.304 0.52,-0.751 0.88,-0.431 0.432,0.084 0.287,0.589 -0.013,0.756 -0.352,0.168 -0.483,0.538 -0.6,0.885 -0.324,0.326 0.47,0.158 0.671,0.27 0.317,0.013 0.857,0.251 0.891,-0.26 -0.041,-0.718 -0.214,-1.434 -0.261,-2.145 0.233,-0.33 -0.058,-0.695 0.08,-1.019 z"
   inkscape:connector-curvature="0"
   style="fill:url(#SVGID_8_)" />

			</g>

		</g>

	</g>

	<linearGradient
   y2="-0.96520001"
   x2="28"
   y1="55.908199"
   x1="28"
   gradientUnits="userSpaceOnUse"
   id="SVGID_9_">
		<stop
   id="stop3087"
   style="stop-color:#ACB4BA"
   offset="0" />

		<stop
   id="stop3089"
   style="stop-color:#606E79"
   offset="1" />

	</linearGradient>

	<path
   id="path3091"
   d="M 28,0 C 12.536,0 0,12.536 0,28 0,43.464 12.536,56 28,56 43.464,56 56,43.464 56,28 56,12.536 43.464,0 28,0 z m 10.25,23.595 c 0.324,0.764 0.71,1.515 0.997,2.283 0.117,0.481 -0.451,0.637 -0.811,0.646 -0.341,-0.043 -0.716,-0.222 -0.995,-0.393 -0.024,-0.396 -0.181,-0.86 0.101,-1.197 -0.462,-0.37 -0.969,-0.726 -1.314,-1.207 -0.147,-0.383 -0.343,-0.91 0.019,-1.224 0.127,-0.014 0.259,-0.045 0.386,-0.054 0.543,0.373 1.102,0.743 1.617,1.146 z M 21.014,2.968 C 21.139,3.229 20.908,3.56 20.636,3.483 20.474,3.405 20.427,3.253 20.457,3.126 20.641,3.07 20.828,3.019 21.014,2.968 z M 2.01,28 c 0,-5.994 2.035,-11.511 5.443,-15.908 0.039,-0.025 0.071,-0.047 0.114,-0.077 0.36,-0.158 0.637,0.318 0.831,0.553 0.071,0.271 -0.529,0.474 -0.078,0.576 0.009,-0.403 0.356,-0.711 0.505,-1.075 0.231,-0.209 0.807,-0.451 0.457,-0.818 -0.38,-0.353 -0.412,-0.531 0.147,-0.403 0.356,-0.027 0.755,0.138 0.884,0.476 -0.192,0.426 0.272,0.866 0.684,0.793 0.479,-0.198 0.703,-0.796 1.036,-1.191 0.412,-0.639 1.07,-1.119 1.558,-1.661 -0.343,0.108 -0.529,-0.357 -0.231,-0.538 0.488,-0.415 1.057,-0.74 1.417,-1.291 -0.833,0.259 -1.605,0.641 -2.44,0.883 -0.438,0.04 -0.818,0.255 -1.208,0.448 -0.132,-0.114 -0.173,-0.261 -0.149,-0.398 1.547,-1.342 3.251,-2.503 5.085,-3.453 0.313,0.169 0.628,0.338 0.936,0.508 -0.261,0.506 0.365,0.22 0.645,0.285 0.408,-0.028 0.816,0.04 1.217,0.08 0.183,0.393 -0.198,0.575 -0.524,0.475 -0.41,0.055 -0.695,0.352 -0.902,0.7 C 17.09,7.293 16.753,6.834 16.373,6.891 16.03,7.317 15.687,7.742 15.342,8.166 16.035,8.02 16.548,7.436 17.234,7.254 17.158,7.427 16.682,7.989 16.882,7.859 17.661,7.33 18.394,6.728 19.212,6.255 19.587,5.948 19.959,5.638 20.332,5.328 19.866,5.158 19.393,5.532 18.934,5.62 18.71,5.701 18.304,5.655 18.222,5.465 18.319,4.882 19.003,4.829 19.454,4.674 19.786,4.569 20.235,4.549 19.64,4.496 19.372,4.54 18.833,4.436 19.168,4.084 19.399,3.8 19.703,3.641 20.044,3.532 c 0.142,0.477 0.611,0.166 0.96,0.193 0.399,0.003 0.77,-0.118 1.081,-0.357 C 22.745,3.209 22.104,3.25 21.858,3.029 21.774,2.922 21.776,2.833 21.819,2.757 23.801,2.272 25.871,2.01 28,2.01 c 2.123,0 4.183,0.26 6.158,0.74 0.14,0.063 0.28,0.124 0.421,0.187 0.302,0.446 0.79,0.87 0.77,1.456 -0.27,0.297 0.488,0.131 0.673,0.325 0.186,0.214 0.496,0.434 0.483,0.728 -0.153,0.285 -0.738,0.189 -0.287,0.515 0.129,0.304 -0.168,0.589 -0.332,0.791 -0.455,0.164 -0.913,-0.192 -1.357,0.041 -0.501,0.114 -0.233,0.069 -0.043,0.368 0.058,0.275 -0.099,0.602 0.151,0.885 0.138,0.564 0.289,1.13 0.425,1.694 -0.378,0.077 0.037,0.753 -0.483,0.557 -0.36,-0.522 -0.412,-0.079 -0.138,0.265 0.183,0.413 0.5,0.739 0.753,1.104 -0.503,0.026 -1.008,0.127 -1.506,0.009 0.455,0.1 0.205,0.564 -0.065,0.736 -0.375,0.284 -0.785,0.623 -1.247,0.734 -0.522,-0.147 -0.384,0.136 -0.179,0.452 0.173,0.404 -0.378,0.349 -0.619,0.259 -1.025,-0.396 -1.944,-1.123 -3.016,-1.35 -0.697,0.161 -1.48,0.287 -1.968,0.861 -0.259,0.602 -0.785,1.044 -1.249,1.482 -0.524,0.436 -1.221,0.755 -1.536,1.389 -0.035,0.324 -0.151,0.778 0.11,1.014 0.319,-0.017 0.723,-0.268 0.995,-0.094 0.101,0.329 0.015,0.698 0.278,0.966 0.091,0.421 -0.395,0.785 -0.759,0.563 -0.222,-0.167 0.3,-0.545 0.173,-0.687 -0.319,0.11 -0.626,0.304 -0.617,0.693 -0.056,0.41 -0.242,0.869 -0.712,0.889 -0.637,0.059 -0.975,0.674 -1.577,0.84 0.112,0.292 -0.408,0.346 -0.589,0.484 -0.319,0.059 -0.639,0.092 -0.962,0.024 -0.078,0.405 -0.816,-0.034 -0.649,0.424 0.248,0.524 0.546,1.132 0.246,1.702 -0.127,0.32 -0.339,0.613 -0.723,0.514 -0.578,-0.074 -1.128,-0.369 -1.7,-0.525 -0.498,0.247 -0.354,0.957 -0.684,1.353 -0.261,0.354 -0.276,0.8 -0.414,1.207 0.233,0.279 0.811,0.382 0.701,0.863 -0.065,0.374 -0.233,0.755 -0.608,0.902 -0.453,0.316 -0.947,0.646 -1.275,1.09 -0.181,0.432 -0.457,0.883 -0.938,0.98 -0.503,0.16 -0.997,0.346 -1.366,0.75 -0.58,0.549 -1.109,1.186 -1.512,1.88 -0.162,0.466 -0.166,0.956 -0.155,1.444 -0.313,0.862 -0.813,1.76 -0.624,2.696 0.388,0.647 0.965,1.248 0.975,2.047 0.68,0.744 1.359,1.491 2.039,2.237 0.99,0.142 1.933,0.546 2.923,0.649 0.701,0.042 1.42,-0.058 2.106,0.048 0.662,0.092 0.79,0.997 1.463,1.069 0.427,0.125 0.865,0.209 1.301,0.314 -0.289,0.306 0.354,0.297 0.231,0.649 -0.093,0.522 -0.337,1.065 -0.354,1.574 0.483,0.886 1.359,1.49 1.683,2.469 0.233,0.6 0.444,1.227 0.658,1.843 -0.345,0.503 -0.982,1.045 -0.695,1.716 0.611,0.839 1.113,1.771 1.797,2.549 0.145,0.139 0.283,0.291 0.421,0.439 C 12.056,52.32 2.01,41.335 2.01,28 z m 27.574,-1.828 c -0.287,-0.276 0.444,-0.524 0.015,-0.736 -0.227,-0.462 0.177,-0.883 0.293,-1.318 0.252,-0.419 0.365,-1.147 0.979,-1.1 0.265,0.218 0.522,0.436 0.744,0.697 0.246,-0.128 0.949,-0.048 0.47,-0.335 -0.306,-0.448 0.341,-0.705 0.695,-0.639 0.285,0.197 0.244,0.688 -0.078,0.802 0.716,0.252 1.4,0.659 2,1.149 -0.006,0.404 -0.302,0.68 -0.671,0.757 -0.727,0.192 -1.504,-0.049 -2.252,-0.012 -0.552,0.129 -1.115,0.369 -1.676,0.354 0.208,0.34 -0.258,0.595 -0.519,0.381 z m 0.651,-12.097 c 0.168,-0.17 0.399,-0.12 0.613,-0.16 0.289,0.056 0.798,0.175 0.632,0.582 -0.047,0.362 -0.533,0.177 -0.464,0.508 -0.168,0.373 -0.585,0.002 -0.835,-0.078 0.274,-0.302 -0.073,-0.564 0.054,-0.852 z m 1.329,3.05 c 0.052,-0.114 0.185,-0.093 0.285,-0.11 0.311,0.082 0.321,0.539 0.045,0.646 -0.308,0.069 -0.595,-0.298 -0.33,-0.536 z m -1.141,-0.573 c 0.011,0.371 -0.47,0.499 -0.693,0.231 -0.244,-0.225 -0.188,-0.519 0.015,-0.745 l 0.015,-0.022 h 0.032 c 0.247,0.058 0.547,0.285 0.631,0.536 z M 29.461,16.45 c -0.032,0.379 -0.173,0.733 -0.498,0.943 -0.414,-0.112 -0.16,-0.557 0.06,-0.734 0.073,-0.1 0.438,-0.446 0.438,-0.209 z m -1.877,-0.632 c 0.047,0.396 0.028,1.015 -0.475,1.066 -0.421,0.124 -0.863,-0.386 -0.604,-0.782 0.17,-0.388 0.457,-0.678 0.79,-0.927 0.117,-0.369 0.315,-0.655 0.688,-0.782 0.052,-0.053 0.123,-0.038 0.188,-0.043 0.36,0.093 0.317,0.515 0.08,0.722 -0.126,0.36 -0.795,0.293 -0.667,0.746 z m -1.112,1.479 c 0.33,-0.259 0.688,-0.434 1.111,-0.431 0.03,0.004 0.058,-0.013 0.088,-0.012 0.22,0.039 0.796,0.041 0.675,0.346 -0.382,0.352 -0.227,0.267 0.032,0.593 0.216,0.302 -0.175,0.837 -0.488,0.541 -0.242,-0.564 -0.291,0.037 -0.391,0.347 -0.166,0.313 -0.263,0.847 -0.714,0.798 -0.46,-0.099 -0.884,0.15 -1.342,0.131 -0.261,-0.154 -0.841,-0.394 -0.501,-0.769 0.373,0.042 0.541,-0.267 0.813,-0.44 0.48,-0.164 0.279,-0.875 0.717,-1.104 z m 1.893,13.153 c -0.466,-0.159 -0.973,-0.519 -1.452,-0.218 -0.406,0.124 -0.147,0.847 -0.645,0.842 -0.475,0.075 -0.902,-0.222 -1.299,-0.448 -0.703,-0.647 -1.685,-0.865 -2.386,-1.499 -0.168,-0.329 0.181,-0.504 0.306,-0.714 -0.114,-0.27 -0.073,-0.616 -0.145,-0.835 -0.684,-0.177 -1.437,-0.145 -2.147,-0.241 -0.826,-0.034 -1.651,0 -2.468,0.132 -0.41,-0.024 -0.848,-0.146 -1.139,-0.421 -0.164,-0.44 0.319,-0.793 0.714,-0.673 0.615,0.123 1.23,-0.232 1.489,-0.803 0.337,-0.707 1.282,-0.741 1.605,-1.463 0.386,-0.435 0.984,0.09 1.452,-0.174 0.354,-0.054 0.876,-0.327 1.092,0.104 0.183,0.408 0.319,0.843 0.703,1.111 0.457,0.457 1.118,0.825 1.223,1.524 0.045,0.231 0.095,-0.553 0.035,-0.751 0.498,0.151 0.352,0.012 -0.026,-0.282 -0.531,-0.379 -0.857,-0.967 -1.204,-1.501 -0.11,-0.336 0.039,-0.686 0.311,-0.888 l 0.047,0.04 c 0.552,0.585 1.018,1.315 1.739,1.701 0.582,0.361 0.378,1.181 0.731,1.705 0.181,0.415 0.324,0.876 0.712,1.145 0.205,-0.196 0.291,-0.538 0.632,-0.51 0.002,-0.282 -0.501,-0.367 -0.619,-0.659 -0.121,-0.373 0.28,-0.532 0.55,-0.637 0.233,-0.101 0.608,-0.47 0.746,-0.086 0.229,0.577 0.373,1.185 0.688,1.735 0.091,0.5 0.464,-0.165 0.777,0.172 0.35,0.076 0.63,-0.299 0.986,-0.102 0.423,0.189 0.88,-0.133 1.29,-0.119 0.429,0.177 0.472,0.683 0.382,1.091 -0.058,0.629 -0.227,1.279 -0.522,1.818 -0.559,0.215 -1.167,-0.012 -1.722,0.223 -0.816,0.225 -1.651,-0.1 -2.436,-0.319 z m 4.617,14.974 c -0.274,0.233 -0.699,0.554 -1.01,0.19 -0.114,-0.369 0.095,-0.807 0.483,-0.902 0.183,-0.11 0.509,-0.271 0.682,-0.176 0.218,0.342 0.125,0.629 -0.155,0.888 z m 0.448,3.194 c 0.274,0.375 0.08,0.843 0,1.25 -0.317,-0.193 -0.537,-0.432 -0.457,-0.834 -0.028,-0.318 0.212,-0.524 0.457,-0.416 z m -1.922,-0.934 c -0.179,0.274 -0.626,-0.044 -0.762,-0.305 0.009,-0.112 0.05,-0.262 0.181,-0.269 0.275,0.062 0.754,0.192 0.581,0.574 z m 0.048,6.058 c 0.302,-0.217 0.591,-0.452 0.835,-0.737 0.352,-0.187 0.895,-0.309 0.829,-0.824 -0.011,-0.341 0.002,-0.684 0.313,-0.888 0.813,-0.52 1.614,-1.049 2.391,-1.625 0.009,-0.585 -0.011,-1.165 -0.259,-1.702 -0.207,-0.369 0.14,-0.76 -0.06,-1.142 0,-0.339 0.121,-0.697 0.14,-1.038 1.202,-1.381 2.434,-2.74 3.618,-4.134 0.541,-0.991 1.07,-2.008 1.351,-3.114 -0.233,-0.319 -0.654,0.162 -0.943,0.227 -0.684,0.334 -1.342,0.697 -2.091,0.818 -0.565,-0.716 -1.215,-1.354 -1.873,-1.978 -0.231,0.275 -0.731,0.014 -0.621,-0.342 -0.24,-0.704 -0.949,-1.116 -1.109,-1.861 -0.095,-0.521 -0.591,-0.758 -0.77,-1.228 -0.343,-0.576 -0.628,-1.221 -0.837,-1.838 0.058,-0.438 0.501,-0.361 0.768,-0.169 0.552,0.568 1.096,1.227 1.599,1.849 0.419,1.101 1.42,1.793 2.035,2.751 0.237,0.503 0.406,1.041 0.729,1.497 0.815,-0.16 1.426,-0.811 2.091,-1.242 0.773,-0.523 1.329,-1.291 2.061,-1.858 0.393,-0.388 0.766,-0.784 0.939,-1.326 0.28,-0.483 0.326,-1.05 0.466,-1.584 -0.326,-0.229 -0.71,-0.305 -1.087,-0.386 -0.304,-0.07 -0.296,-0.922 -0.552,-0.378 -0.248,0.32 -0.388,0.78 -0.837,0.851 -0.214,0.127 -0.753,0.361 -0.775,-0.045 0.009,-0.547 -0.123,-0.378 -0.462,-0.301 -0.261,-0.165 -0.356,-0.573 -0.645,-0.751 -0.263,-0.299 -0.82,-0.677 -0.531,-1.12 0.235,-0.131 0.401,-0.67 0.535,-0.612 0.403,0.522 0.828,1.092 1.525,1.179 0.52,0.199 1.016,-0.07 1.461,-0.336 0.248,-0.096 0.878,-0.581 0.503,-0.05 -0.371,0.402 0.235,0.459 0.511,0.343 0.908,-0.09 1.702,-0.662 2.527,-0.961 0.762,0.476 1.517,1.02 2.421,1.132 0.66,0.149 0.753,0.958 1.124,1.434 0.475,0.827 0.999,1.621 1.53,2.409 0.367,0.075 0.27,-0.522 0.636,-0.555 0.216,0.053 0.334,0.525 0.434,0.761 0.285,-0.475 -0.259,-0.922 -0.404,-1.367 -0.328,-0.661 -0.326,-1.437 -0.464,-2.158 0.453,-1.412 0.611,-2.898 1.04,-4.312 0.114,-0.386 0.319,-0.749 0.535,-1.075 0.453,-0.216 0.803,0.305 1.092,0.58 0.27,0.193 0.36,0.853 0.462,0.195 0.058,-0.099 0.119,-0.456 0.179,-0.636 0.045,0.629 0.078,1.261 0.078,1.902 -0.004,13.149 -9.769,24.011 -22.438,25.745 z"
   inkscape:connector-curvature="0"
   style="fill:url(#SVGID_9_)" />

</g>
  </g>
</svg>
