<?xml version="1.0" encoding="UTF-8" standalone="no"?>
<!-- Created with Inkscape (http://www.inkscape.org/) -->

<svg
   xmlns:dc="http://purl.org/dc/elements/1.1/"
   xmlns:cc="http://creativecommons.org/ns#"
   xmlns:rdf="http://www.w3.org/1999/02/22-rdf-syntax-ns#"
   xmlns:svg="http://www.w3.org/2000/svg"
   xmlns="http://www.w3.org/2000/svg"
   xmlns:xlink="http://www.w3.org/1999/xlink"
   xmlns:sodipodi="http://sodipodi.sourceforge.net/DTD/sodipodi-0.dtd"
   xmlns:inkscape="http://www.inkscape.org/namespaces/inkscape"
   width="48px"
   height="48px"
   id="svg2985"
   version="1.1"
   inkscape:version="0.48.4 r9939"
   sodipodi:docname="../../error8f62.html">
  <defs
     id="defs2987">
    <linearGradient
       inkscape:collect="always"
       xlink:href="#SVGID_1_"
       id="linearGradient3287"
       gradientUnits="userSpaceOnUse"
       x1="28"
       y1="51.639702"
       x2="28"
       y2="3.4649" />
    <linearGradient
       inkscape:collect="always"
       xlink:href="#SVGID_2_"
       id="linearGradient3289"
       gradientUnits="userSpaceOnUse"
       x1="40.041199"
       y1="51.639702"
       x2="40.041199"
       y2="3.4649" />
    <linearGradient
       inkscape:collect="always"
       xlink:href="#SVGID_3_"
       id="linearGradient3291"
       gradientUnits="userSpaceOnUse"
       x1="35.119999"
       y1="51.639702"
       x2="35.119999"
       y2="3.4649" />
    <linearGradient
       inkscape:collect="always"
       xlink:href="#SVGID_1_"
       id="linearGradient3576"
       gradientUnits="userSpaceOnUse"
       x1="24.9984"
       y1="55.221699"
       x2="24.9984"
       y2="0.57789999" />
    <linearGradient
       inkscape:collect="always"
       xlink:href="#SVGID_2_"
       id="linearGradient3578"
       gradientUnits="userSpaceOnUse"
       x1="24.9979"
       y1="55.221699"
       x2="24.9979"
       y2="0.57789999" />
    <linearGradient
       inkscape:collect="always"
       xlink:href="#SVGID_3_"
       id="linearGradient3580"
       gradientUnits="userSpaceOnUse"
       x1="24.9974"
       y1="55.221699"
       x2="24.9974"
       y2="0.57789999" />
    <linearGradient
       inkscape:collect="always"
       xlink:href="#SVGID_4_"
       id="linearGradient3582"
       gradientUnits="userSpaceOnUse"
       x1="24.9979"
       y1="55.221699"
       x2="24.9979"
       y2="0.57789999" />
    <linearGradient
       inkscape:collect="always"
       xlink:href="#SVGID_5_"
       id="linearGradient3584"
       gradientUnits="userSpaceOnUse"
       x1="24.9974"
       y1="55.221699"
       x2="24.9974"
       y2="0.57789999" />
    <linearGradient
       inkscape:collect="always"
       xlink:href="#SVGID_6_"
       id="linearGradient3586"
       gradientUnits="userSpaceOnUse"
       x1="5.7108002"
       y1="55.221699"
       x2="5.7108002"
       y2="0.57789999" />
    <linearGradient
       inkscape:collect="always"
       xlink:href="#SVGID_7_"
       id="linearGradient3588"
       gradientUnits="userSpaceOnUse"
       x1="13.2115"
       y1="55.221699"
       x2="13.2115"
       y2="0.57789999" />
    <linearGradient
       inkscape:collect="always"
       xlink:href="#SVGID_8_"
       id="linearGradient3590"
       gradientUnits="userSpaceOnUse"
       x1="5.711"
       y1="55.221699"
       x2="5.711"
       y2="0.57789999" />
    <linearGradient
       inkscape:collect="always"
       xlink:href="#SVGID_9_"
       id="linearGradient3592"
       gradientUnits="userSpaceOnUse"
       x1="13.2115"
       y1="55.221699"
       x2="13.2115"
       y2="0.57789999" />
    <linearGradient
       inkscape:collect="always"
       xlink:href="#SVGID_1_"
       id="linearGradient3873"
       gradientUnits="userSpaceOnUse"
       x1="26.5224"
       y1="53.3279"
       x2="26.5224"
       y2="1.7128" />
    <linearGradient
       inkscape:collect="always"
       xlink:href="#SVGID_2_"
       id="linearGradient3875"
       gradientUnits="userSpaceOnUse"
       x1="41.7388"
       y1="53.3279"
       x2="41.7388"
       y2="1.7128" />
    <linearGradient
       inkscape:collect="always"
       xlink:href="#SVGID_1_"
       id="linearGradient3939"
       gradientUnits="userSpaceOnUse"
       x1="28"
       y1="53.958099"
       x2="28"
       y2="1.0587" />
    <linearGradient
       inkscape:collect="always"
       xlink:href="#SVGID_2_"
       id="linearGradient3941"
       gradientUnits="userSpaceOnUse"
       x1="15.7195"
       y1="53.958099"
       x2="15.7195"
       y2="1.0587" />
    <linearGradient
       inkscape:collect="always"
       xlink:href="#SVGID_3_"
       id="linearGradient3943"
       gradientUnits="userSpaceOnUse"
       x1="41.487999"
       y1="53.958099"
       x2="41.487999"
       y2="1.0587" />
  </defs>
  <sodipodi:namedview
     id="base"
     pagecolor="#ffffff"
     bordercolor="#666666"
     borderopacity="1.0"
     inkscape:pageopacity="0.0"
     inkscape:pageshadow="2"
     inkscape:zoom="4.9497475"
     inkscape:cx="40.747044"
     inkscape:cy="22.272326"
     inkscape:current-layer="layer1"
     showgrid="true"
     inkscape:grid-bbox="true"
     inkscape:document-units="px"
     inkscape:window-width="1058"
     inkscape:window-height="842"
     inkscape:window-x="68"
     inkscape:window-y="145"
     inkscape:window-maximized="0" />
  <metadata
     id="metadata2990">
    <rdf:RDF>
      <cc:Work
         rdf:about="">
        <dc:format>image/svg+xml</dc:format>
        <dc:type
           rdf:resource="http://purl.org/dc/dcmitype/StillImage" />
        <dc:title></dc:title>
      </cc:Work>
    </rdf:RDF>
  </metadata>
  <g
     id="layer1"
     inkscape:label="Layer 1"
     inkscape:groupmode="layer">
    <g
       id="g3894"
       transform="matrix(0.95999832,0,0,0.95996836,-2.8805108,-2.8795232)">
	<linearGradient
   y2="1.0587"
   x2="28"
   y1="53.958099"
   x1="28"
   gradientUnits="userSpaceOnUse"
   id="SVGID_1_">
		<stop
   id="stop3897"
   style="stop-color:#ACB4BA"
   offset="0" />

		<stop
   id="stop3899"
   style="stop-color:#606E79"
   offset="1" />

	</linearGradient>

	<path
   id="path3901"
   d="M 50.15,3.188 42.279,8.931 41.322,12.015 27.09,26.248 26.927,26.086 c -0.542,-0.541 -1.256,-0.812 -1.97,-0.812 -0.714,0 -1.427,0.271 -1.97,0.812 l -1.046,1.046 c 0.004,0.209 -0.024,0.42 -0.052,0.63 -0.029,0.175 -0.065,0.35 -0.111,0.523 l 0,0 c -0.188,0.701 -0.542,1.377 -1.106,1.941 -0.857,0.857 -1.962,1.273 -3.033,1.273 -0.021,0 -0.041,-10e-4 -0.063,-10e-4 L 4,45.073 c -1.084,1.084 -1.084,2.857 0,3.94 l 2.987,2.986 c 0.541,0.542 1.255,0.812 1.969,0.812 0.715,0 1.429,-0.27 1.971,-0.812 L 24.502,38.423 c -0.019,-1.09 0.398,-2.221 1.271,-3.095 0.855,-0.854 1.957,-1.272 3.027,-1.272 0.023,0 0.044,0.001 0.067,0.001 l 1.047,-1.045 c 1.083,-1.085 1.083,-2.857 0,-3.94 l -0.162,-0.162 2.563,-2.562 0,0 11.67,-11.669 3.083,-0.958 5.744,-7.87 -2.662,-2.663 z"
   inkscape:connector-curvature="0"
   style="fill:url(#linearGradient3939)" />

	<g
   id="g3903">
		<linearGradient
   y2="1.0587"
   x2="15.7195"
   y1="53.958099"
   x1="15.7195"
   gradientUnits="userSpaceOnUse"
   id="SVGID_2_">
			<stop
   id="stop3906"
   style="stop-color:#ACB4BA"
   offset="0" />

			<stop
   id="stop3908"
   style="stop-color:#606E79"
   offset="1" />

		</linearGradient>

		<path
   id="path3910"
   d="m 21.56,24.659 c 0.907,-0.906 2.114,-1.404 3.397,-1.404 0.66,0 1.299,0.131 1.888,0.383 l 1.594,-1.594 c -1.54,-1.786 -3.052,-3.6 -4.509,-5.47 L 24.004,16.5 C 24.976,12.919 24.065,8.934 21.254,6.121 18.768,3.637 15.364,2.642 12.135,3.113 l 6.391,6.392 0.822,5.333 -4.509,4.509 -5.333,-0.822 -6.392,-6.392 c -0.471,3.231 0.523,6.634 3.008,9.12 2.813,2.812 6.798,3.723 10.38,2.75 l 0.073,-0.073 c 1.132,0.882 2.239,1.789 3.339,2.703 l -0.006,-0.322 1.652,-1.652 z"
   inkscape:connector-curvature="0"
   style="fill:url(#linearGradient3941)" />

		<linearGradient
   y2="1.0587"
   x2="41.487999"
   y1="53.958099"
   x1="41.487999"
   gradientUnits="userSpaceOnUse"
   id="SVGID_3_">
			<stop
   id="stop3913"
   style="stop-color:#ACB4BA"
   offset="0" />

			<stop
   id="stop3915"
   style="stop-color:#606E79"
   offset="1" />

		</linearGradient>

		<path
   id="path3917"
   d="M 50.352,42.921 C 45.33,39.036 40.622,34.835 36.184,30.366 l -0.012,0.011 c -0.841,-0.836 -1.665,-1.69 -2.485,-2.547 l -1.326,1.326 c 0.744,1.75 0.404,3.857 -1.02,5.283 l -1.366,1.364 c 0.131,0.126 0.262,0.252 0.39,0.381 l 0.012,-0.011 c 4.468,4.439 8.657,9.155 12.541,14.177 0.226,0.378 0.495,0.736 0.82,1.062 2.119,2.119 5.554,2.119 7.673,0 2.119,-2.119 2.12,-5.553 0,-7.673 -0.324,-0.325 -0.681,-0.593 -1.059,-0.818 z m -0.946,6.411 c -1.014,1.016 -2.661,1.016 -3.676,10e-4 -1.015,-1.014 -1.015,-2.661 0,-3.677 1.015,-1.014 2.662,-1.014 3.676,10e-4 1.016,1.015 1.016,2.661 0,3.675 z"
   inkscape:connector-curvature="0"
   style="fill:url(#linearGradient3943)" />

	</g>

</g>
  </g>
</svg>
