<svg id="Layer_1" data-name="Layer 1" xmlns="http://www.w3.org/2000/svg" viewBox="0 0 29.74 55.98"><defs><style>.cls-1{fill:#fff;}</style></defs><title>mobile_payments_white</title><path class="cls-1" d="M38.5,55.99H17.5a4.378,4.378,0,0,1-4.373-4.373V4.383A4.378,4.378,0,0,1,17.5.01H38.5A4.378,4.378,0,0,1,42.87,4.383V51.617A4.378,4.378,0,0,1,38.5,55.99ZM17.5,1.759A2.627,2.627,0,0,0,14.88,4.383V51.617A2.627,2.627,0,0,0,17.5,54.241H38.5a2.627,2.627,0,0,0,2.624-2.624V4.383A2.627,2.627,0,0,0,38.5,1.759H17.5Z" transform="translate(-13.13 -0.01)"/><path class="cls-1" d="M42,48.993H14a0.875,0.875,0,0,1-.875-0.875V7.882A0.875,0.875,0,0,1,14,7.007H42a0.875,0.875,0,0,1,.875.875V48.118A0.875,0.875,0,0,1,42,48.993ZM14.88,47.243H41.12V8.757H14.88V47.243Z" transform="translate(-13.13 -0.01)"/><circle class="cls-1" cx="14.87" cy="51.607" r="1.749"/><path class="cls-1" d="M30.624,5.258H25.376a0.875,0.875,0,0,1,0-1.749h5.248A0.875,0.875,0,0,1,30.624,5.258Z" transform="translate(-13.13 -0.01)"/></svg>