<svg id="Layer_1" data-name="Layer 1" xmlns="http://www.w3.org/2000/svg" viewBox="0 0 55.98 55.98"><defs><style>.cls-1{fill:#fff;}</style></defs><title>payment_processing_white</title><path class="cls-1" d="M6.573,45.483a0.873,0.873,0,0,1-.691-0.338A27.717,27.717,0,0,1,.01,27.99a27.991,27.991,0,0,1,45.6-21.761,0.875,0.875,0,0,1-1.1,1.359A26.242,26.242,0,0,0,1.759,27.99a25.983,25.983,0,0,0,5.5,16.082A0.875,0.875,0,0,1,6.573,45.483Z" transform="translate(-0.01)"/><path class="cls-1" d="M45.494,8.747h-7A0.875,0.875,0,0,1,38.5,7h6.123V0.875a0.875,0.875,0,0,1,1.749,0v7A0.875,0.875,0,0,1,45.494,8.747Z" transform="translate(-0.01)"/><path class="cls-1" d="M28,55.98a28.052,28.052,0,0,1-17.606-6.229,0.875,0.875,0,0,1,1.1-1.359,26.242,26.242,0,0,0,42.746-20.4,25.986,25.986,0,0,0-5.5-16.082,0.874,0.874,0,1,1,1.381-1.073A27.717,27.717,0,0,1,55.99,27.99,28.022,28.022,0,0,1,28,55.98Z" transform="translate(-0.01)"/><path class="cls-1" d="M10.506,55.98a0.875,0.875,0,0,1-.875-0.875v-7a0.875,0.875,0,0,1,.875-0.875h7a0.875,0.875,0,1,1,0,1.749H11.381v6.123A0.875,0.875,0,0,1,10.506,55.98Z" transform="translate(-0.01)"/></svg>