<?xml version="1.0" encoding="utf-8"?>
<!-- Generator: Adobe Illustrator 19.1.0, SVG Export Plug-In . SVG Version: 6.00 Build 0)  -->
<!DOCTYPE svg PUBLIC "-//W3C//DTD SVG 1.1//EN" "http://www.w3.org/Graphics/SVG/1.1/DTD/svg11.dtd">
<svg version="1.1" id="Layer_1" xmlns="http://www.w3.org/2000/svg" xmlns:xlink="http://www.w3.org/1999/xlink" x="0px" y="0px"
	 viewBox="0 0 124 124" enable-background="new 0 0 124 124" xml:space="preserve">
<g>
	<circle fill="#3F2A7C" cx="104.625" cy="58.125" r="3.875"/>
	<g>
		<path fill="#3F2A7C" d="M112.375,104.625H98.812v-3.875h13.562c4.273,0,7.75-3.477,7.75-7.75V50.375c0-4.273-3.477-7.75-7.75-7.75
			H11.625c-4.273,0-7.75,3.477-7.75,7.75V93c0,4.273,3.477,7.75,7.75,7.75h13.562v3.875H11.625C5.215,104.625,0,99.41,0,93V50.375
			c0-6.41,5.215-11.625,11.625-11.625h100.75c6.41,0,11.625,5.215,11.625,11.625V93C124,99.41,118.785,104.625,112.375,104.625z"/>
		<path fill="#3F2A7C" d="M98.812,42.625H25.188c-1.07,0-1.938-0.868-1.938-1.938V1.938C23.25,0.868,24.118,0,25.188,0h73.625
			c1.07,0,1.938,0.868,1.938,1.938v38.75C100.75,41.757,99.882,42.625,98.812,42.625z M27.125,38.75h69.75V3.875h-69.75V38.75z"/>
		<path fill="#3F2A7C" d="M98.812,124H25.188c-1.07,0-1.938-0.868-1.938-1.938v-38.75c0-1.07,0.868-1.938,1.938-1.938h73.625
			c1.07,0,1.938,0.868,1.938,1.938v38.75C100.75,123.132,99.882,124,98.812,124z M27.125,120.125h69.75V85.25h-69.75V120.125z"/>
		<path fill="#3F2A7C" d="M106.562,85.25H17.438c-1.07,0-1.938-0.868-1.938-1.938s0.868-1.938,1.938-1.938h89.125
			c1.07,0,1.938,0.868,1.938,1.938S107.632,85.25,106.562,85.25z"/>
		<path fill="#3F2A7C" d="M87.188,100.75H36.812c-1.07,0-1.938-0.868-1.938-1.938s0.868-1.938,1.938-1.938h50.375
			c1.07,0,1.938,0.868,1.938,1.938S88.257,100.75,87.188,100.75z"/>
		<path fill="#3F2A7C" d="M87.188,93H36.812c-1.07,0-1.938-0.868-1.938-1.938s0.868-1.938,1.938-1.938h50.375
			c1.07,0,1.938,0.868,1.938,1.938S88.257,93,87.188,93z"/>
		<path fill="#3F2A7C" d="M87.188,108.5H36.812c-1.07,0-1.938-0.868-1.938-1.938s0.868-1.938,1.938-1.938h50.375
			c1.07,0,1.938,0.868,1.938,1.938S88.257,108.5,87.188,108.5z"/>
	</g>
</g>
</svg>
