<?xml version="1.0" encoding="utf-8"?>
<!-- Generator: Adobe Illustrator 18.1.1, SVG Export Plug-In . SVG Version: 6.00 Build 0)  -->
<!DOCTYPE svg PUBLIC "-//W3C//DTD SVG 1.1//EN" "http://www.w3.org/Graphics/SVG/1.1/DTD/svg11.dtd">
<svg version="1.1" id="Layer_1" xmlns="http://www.w3.org/2000/svg" xmlns:xlink="http://www.w3.org/1999/xlink" x="0px" y="0px"
	 viewBox="0 0 22 23" enable-background="new 0 0 22 23" xml:space="preserve">
<g>
	<path fill="#FFFFFF" d="M21.274,5.699l-5.022-5.022c-0.086-0.086-0.202-0.134-0.323-0.134H4.516c-0.755,0-1.37,0.614-1.37,1.37
		v3.313C3.44,5.097,3.746,4.993,4.06,4.906V1.913c0-0.252,0.205-0.457,0.457-0.457h10.957v3.449c0,0.867,0.705,1.572,1.572,1.572
		h3.449v14.609c0,0.252-0.205,0.457-0.457,0.457H4.516c-0.252,0-0.457-0.205-0.457-0.457v-2.993
		c-0.314-0.087-0.619-0.191-0.913-0.32v3.313c0,0.755,0.614,1.37,1.37,1.37h15.522c0.755,0,1.37-0.614,1.37-1.37V6.022
		C21.407,5.901,21.359,5.785,21.274,5.699z"/>
	<g>
		<path fill="#FFFFFF" d="M0.593,8.95c0.148-0.238,0.32-0.473,0.512-0.706c0.193-0.231,0.411-0.447,0.654-0.649
			c0.244-0.202,0.52-0.386,0.826-0.552c0.306-0.164,0.649-0.303,1.03-0.417C4.132,6.474,4.623,6.405,5.09,6.422
			c0.467,0.017,0.89,0.111,1.271,0.286C6.744,6.882,7.073,7.132,7.35,7.457c0.278,0.325,0.485,0.719,0.623,1.181
			C8.107,9.09,8.157,9.499,8.124,9.867c-0.033,0.369-0.11,0.704-0.234,1.006c-0.125,0.302-0.276,0.575-0.459,0.824
			c-0.181,0.248-0.353,0.482-0.514,0.701c-0.161,0.219-0.295,0.427-0.402,0.623c-0.106,0.197-0.146,0.394-0.119,0.593l0.181,1.361
			l-1.505,0.447L4.49,14.014c-0.118-0.268-0.15-0.525-0.098-0.771c0.054-0.245,0.151-0.484,0.292-0.717
			c0.141-0.232,0.305-0.465,0.494-0.699c0.19-0.233,0.359-0.478,0.51-0.733c0.15-0.255,0.259-0.523,0.328-0.805
			c0.067-0.282,0.052-0.589-0.047-0.922C5.906,9.155,5.809,8.975,5.678,8.83c-0.13-0.146-0.285-0.258-0.463-0.337
			C5.037,8.412,4.839,8.371,4.619,8.364C4.401,8.358,4.177,8.389,3.944,8.458c-0.338,0.1-0.613,0.222-0.826,0.366
			C2.906,8.969,2.731,9.11,2.596,9.251C2.46,9.392,2.346,9.516,2.255,9.624c-0.09,0.107-0.181,0.175-0.27,0.201
			c-0.214,0.064-0.395,0.021-0.542-0.13L0.593,8.95z M5.393,18.951c-0.055-0.184-0.072-0.368-0.053-0.555
			c0.018-0.187,0.069-0.357,0.153-0.511c0.084-0.154,0.199-0.29,0.344-0.411c0.144-0.12,0.312-0.209,0.502-0.266
			c0.19-0.057,0.377-0.073,0.562-0.05c0.184,0.023,0.354,0.075,0.511,0.157c0.157,0.083,0.297,0.197,0.417,0.342
			c0.121,0.145,0.208,0.309,0.263,0.493c0.057,0.19,0.073,0.378,0.05,0.562c-0.021,0.185-0.077,0.355-0.163,0.51
			c-0.087,0.154-0.202,0.29-0.344,0.407c-0.144,0.116-0.309,0.203-0.5,0.259c-0.19,0.057-0.379,0.075-0.564,0.057
			c-0.187-0.019-0.358-0.071-0.511-0.153c-0.154-0.084-0.29-0.197-0.406-0.341C5.537,19.308,5.45,19.141,5.393,18.951z"/>
	</g>
</g>
</svg>
