<?xml version="1.0" encoding="utf-8"?>
<!-- Generator: Adobe Illustrator 18.1.1, SVG Export Plug-In . SVG Version: 6.00 Build 0)  -->
<!DOCTYPE svg PUBLIC "-//W3C//DTD SVG 1.1//EN" "http://www.w3.org/Graphics/SVG/1.1/DTD/svg11.dtd">
<svg version="1.1" id="Layer_1" xmlns="http://www.w3.org/2000/svg" xmlns:xlink="http://www.w3.org/1999/xlink" x="0px" y="0px"
	 viewBox="0 0 20 20" enable-background="new 0 0 20 20" xml:space="preserve">
<path fill="#E01350" d="M19.444,14.837l-4.838-4.838l4.838-4.838c0.507-0.506,0.505-1.336,0-1.842l-2.765-2.764
	c-0.507-0.506-1.336-0.506-1.843,0l-4.836,4.838L5.163,0.556c-0.506-0.506-1.336-0.506-1.843,0L0.555,3.32
	c-0.506,0.506-0.506,1.336,0,1.844l4.838,4.838l-4.838,4.836c-0.506,0.508-0.506,1.336,0,1.844l2.765,2.762
	c0.505,0.508,1.335,0.508,1.843,0l4.836-4.836l4.838,4.838c0.507,0.506,1.336,0.506,1.843-0.002l2.765-2.762
	C19.951,16.173,19.951,15.343,19.444,14.837z"/>
</svg>
