<?xml version="1.0" encoding="utf-8"?>
<!-- Generator: Adobe Illustrator 18.1.1, SVG Export Plug-In . SVG Version: 6.00 Build 0)  -->
<!DOCTYPE svg PUBLIC "-//W3C//DTD SVG 1.1//EN" "http://www.w3.org/Graphics/SVG/1.1/DTD/svg11.dtd">
<svg version="1.1" id="Layer_1" xmlns="http://www.w3.org/2000/svg" xmlns:xlink="http://www.w3.org/1999/xlink" x="0px" y="0px"
	 viewBox="0 0 20 24" enable-background="new 0 0 20 24" xml:space="preserve">
<g>
	<path fill="#FFFFFF" d="M19.9,5.6l-5.5-5.5C14.3,0.1,14.1,0,14,0H1.5C0.7,0,0,0.7,0,1.5v21C0,23.3,0.7,24,1.5,24h17
		c0.8,0,1.5-0.7,1.5-1.5V6C20,5.9,19.9,5.7,19.9,5.6z M19,22.5c0,0.3-0.2,0.5-0.5,0.5h-17C1.2,23,1,22.8,1,22.5v-21
		C1,1.2,1.2,1,1.5,1h12v3.8c0,0.9,0.8,1.7,1.7,1.7H19V22.5z"/>
	<rect x="5.5" y="15.5" fill="#FFFFFF" width="2" height="1.5"/>
	<rect x="8.5" y="12" fill="#FFFFFF" width="2" height="5"/>
	<rect x="11.5" y="13.5" fill="#FFFFFF" width="2" height="3.5"/>
	<rect x="14.5" y="10" fill="#FFFFFF" width="2" height="7"/>
	<polygon fill="#FFFFFF" points="16.5,17.5 4.5,17.5 4.5,10 3.5,10 3.5,18.5 16.5,18.5 	"/>
</g>
</svg>
