<?xml version="1.0" encoding="utf-8"?>
<!-- Generator: Adobe Illustrator 18.1.1, SVG Export Plug-In . SVG Version: 6.00 Build 0)  -->
<!DOCTYPE svg PUBLIC "-//W3C//DTD SVG 1.1//EN" "http://www.w3.org/Graphics/SVG/1.1/DTD/svg11.dtd">
<svg version="1.1" id="Layer_1" xmlns="http://www.w3.org/2000/svg" xmlns:xlink="http://www.w3.org/1999/xlink" x="0px" y="0px"
	 viewBox="0 0 21 21" enable-background="new 0 0 21 21" xml:space="preserve">
<g>
	<path fill="#ACB4BA" d="M8.811,16.916c-2.221,0-4.309-0.865-5.88-2.436c-3.242-3.242-3.242-8.517,0-11.76
		C4.502,1.15,6.59,0.285,8.811,0.285s4.309,0.865,5.88,2.436c3.242,3.243,3.242,8.518,0,11.76
		C13.12,16.052,11.032,16.916,8.811,16.916z M8.811,2.689c-1.579,0-3.063,0.615-4.18,1.731c-2.305,2.305-2.305,6.055,0,8.36
		c1.117,1.117,2.601,1.731,4.18,1.731s3.063-0.615,4.18-1.731c2.305-2.305,2.305-6.055,0-8.36C11.874,3.304,10.39,2.689,8.811,2.689
		z"/>
	
		<rect x="12.467" y="15.687" transform="matrix(0.7071 0.7071 -0.7071 0.7071 16.8279 -6.8441)" fill="#ACB4BA" width="8.415" height="2.404"/>
</g>
</svg>
