<svg id="Layer_1" data-name="Layer 1" xmlns="http://www.w3.org/2000/svg" viewBox="0 0 55.98 55.98"><defs><style>.cls-1{fill:#acb4ba;}</style></defs><title>sectors_grey</title><path class="cls-1" d="M26.251,55.99a26.241,26.241,0,1,1,0-52.482,0.875,0.875,0,0,1,.875.875V28.875H51.617a0.875,0.875,0,0,1,.875.875A26.271,26.271,0,0,1,26.251,55.99ZM25.376,5.273A24.492,24.492,0,1,0,50.727,30.624H26.251a0.875,0.875,0,0,1-.875-0.875V5.273Z" transform="translate(-0.01 -0.01)"/><path class="cls-1" d="M55.116,27.125H29.749a0.875,0.875,0,0,1-.875-0.875V0.884A0.875,0.875,0,0,1,29.749.01,26.271,26.271,0,0,1,55.99,26.251,0.875,0.875,0,0,1,55.116,27.125ZM30.624,25.376h23.6a24.523,24.523,0,0,0-23.6-23.6v23.6Z" transform="translate(-0.01 -0.01)"/></svg>