<?xml version="1.0" encoding="utf-8"?>
<!-- Generator: Adobe Illustrator 19.2.0, SVG Export Plug-In . SVG Version: 6.00 Build 0)  -->
<!DOCTYPE svg PUBLIC "-//W3C//DTD SVG 1.1//EN" "http://www.w3.org/Graphics/SVG/1.1/DTD/svg11.dtd">
<svg version="1.1" id="Layer_1" xmlns="http://www.w3.org/2000/svg" xmlns:xlink="http://www.w3.org/1999/xlink" x="0px" y="0px"
	 viewBox="0 0 35 35" enable-background="new 0 0 35 35" xml:space="preserve">
<path fill="#8B8B8B" d="M32.471,8.694c-1.104,0.489-2.291,0.821-3.536,0.97c1.271-0.762,2.247-1.969,2.707-3.407
	c-1.189,0.705-2.507,1.218-3.909,1.494c-1.123-1.197-2.723-1.944-4.493-1.944c-3.4,0-6.156,2.756-6.156,6.155
	c0,0.483,0.054,0.953,0.159,1.403c-5.116-0.257-9.652-2.708-12.688-6.432c-0.53,0.909-0.834,1.966-0.834,3.095
	c0,2.135,1.251,4.02,2.903,5.123C5.615,15.121,4,14.844,4,14.383c0,0.025,0,0.051,0,0.077c0,2.983,1.958,5.47,4.774,6.036
	c-0.516,0.141-1.142,0.216-1.704,0.216c-0.396,0-0.823-0.038-1.199-0.11c0.783,2.445,3.036,4.225,5.73,4.275
	c-2.107,1.652-4.772,2.635-7.656,2.635c-0.497,0-0.991-0.029-1.473-0.087c2.725,1.747,5.957,2.766,9.434,2.766
	c11.323,0,17.513-9.38,17.513-17.515c0-0.267-0.006-0.533-0.018-0.796C30.604,11.013,31.646,9.929,32.471,8.694z"/>
</svg>
