<?xml version="1.0" encoding="utf-8"?>
<!-- Generator: Adobe Illustrator 18.1.1, SVG Export Plug-In . SVG Version: 6.00 Build 0)  -->
<!DOCTYPE svg PUBLIC "-//W3C//DTD SVG 1.1//EN" "http://www.w3.org/Graphics/SVG/1.1/DTD/svg11.dtd">
<svg version="1.1" id="Layer_1" xmlns="http://www.w3.org/2000/svg" xmlns:xlink="http://www.w3.org/1999/xlink" x="0px" y="0px"
	 viewBox="0 0 16 13" enable-background="new 0 0 16 13" xml:space="preserve">
<path fill="#FFFFFF" d="M15.5,1.848c-0.552,0.245-1.145,0.41-1.767,0.485c0.635-0.381,1.123-0.984,1.353-1.703
	c-0.595,0.353-1.253,0.609-1.954,0.747c-0.561-0.598-1.361-0.972-2.246-0.972c-1.7,0-3.077,1.378-3.077,3.077
	c0,0.241,0.027,0.476,0.08,0.701C5.33,4.055,3.062,2.83,1.544,0.968C1.279,1.423,1.128,1.951,1.128,2.515
	c0,1.068,0.543,2.01,1.369,2.561C1.992,5.061,1.518,4.922,1.103,4.692c0,0.013,0,0.026,0,0.039c0,1.491,1.061,2.735,2.469,3.018
	c-0.258,0.07-0.53,0.108-0.811,0.108c-0.198,0-0.391-0.019-0.579-0.055c0.392,1.223,1.528,2.112,2.875,2.137
	c-1.053,0.825-2.38,1.317-3.822,1.317c-0.248,0-0.493-0.015-0.734-0.043c1.362,0.873,2.98,1.383,4.717,1.383
	c5.66,0,8.756-4.689,8.756-8.756c0-0.133-0.003-0.266-0.009-0.398C14.566,3.007,15.087,2.465,15.5,1.848z"/>
</svg>
