<?xml version="1.0" encoding="utf-8"?>
<!-- Generator: Adobe Illustrator 18.1.1, SVG Export Plug-In . SVG Version: 6.00 Build 0)  -->
<!DOCTYPE svg PUBLIC "-//W3C//DTD SVG 1.1//EN" "http://www.w3.org/Graphics/SVG/1.1/DTD/svg11.dtd">
<svg version="1.1" id="Layer_1" xmlns="http://www.w3.org/2000/svg" xmlns:xlink="http://www.w3.org/1999/xlink" x="0px" y="0px"
	 viewBox="0 0 24 24" enable-background="new 0 0 24 24" xml:space="preserve">
<g>
	<g>
		<g>
			<g>
				<path fill="#FFFFFF" d="M10.414,11.678c-0.216-0.062,0.117,0.215,0.162,0.062C10.781,11.563,10.515,11.689,10.414,11.678z"/>
			</g>
		</g>
		<g>
			<g>
				<path fill="#FFFFFF" d="M4.092,6.014C4.21,5.912,4.28,5.743,4.308,5.584c-0.053,0.02-0.103,0.043-0.156,0.064
					C4.061,5.738,4.142,5.893,4.092,6.014z"/>
			</g>
		</g>
		<g>
			<g>
				<path fill="#FFFFFF" d="M8.532,5.687c0.111,0.008,0.356,0.004,0.35-0.131C8.76,5.465,8.552,5.522,8.498,5.346l-0.02,0.003
					C8.413,5.465,8.29,5.725,8.532,5.687z"/>
			</g>
		</g>
		<g>
			<g>
				<path fill="#FFFFFF" d="M11.867,3.988c0.165-0.158-0.12-0.02-0.179-0.024C11.577,4.144,11.813,4.167,11.867,3.988z"/>
			</g>
		</g>
		<g>
			<g>
				<path fill="#FFFFFF" d="M17.041,20.791c-0.217,0.251-0.475,0.468-0.795,0.573c-0.183,0.191-0.079,0.5-0.265,0.689
					c-0.119,0.174-0.021,0.31,0.162,0.181c0.283-0.103,0.416-0.414,0.594-0.642c0.134-0.261,0.332-0.497,0.428-0.775
					C17.154,20.707,17.096,20.681,17.041,20.791z"/>
			</g>
		</g>
		<g>
			<g>
				<path fill="#FFFFFF" d="M13.898,4.705c-0.055-0.188,0.01-0.395-0.023-0.589c-0.018,0.025-0.038,0.05-0.056,0.074
					c-0.066,0.206,0.026,0.418,0.067,0.618C14.081,4.973,13.984,4.854,13.898,4.705z"/>
			</g>
		</g>
		<g>
			<g>
				<path fill="#FFFFFF" d="M6.791,4.914c0.256-0.093,0.506-0.222,0.766-0.297C8.055,4.625,8.569,4.71,9.055,4.584
					C9.341,4.406,9.592,4.179,9.91,4.066c0.093-0.119,0.191-0.234,0.322-0.304c0.091-0.132,0.194-0.252,0.361-0.27
					c0.146-0.022,0.255-0.129,0.157-0.266c0.118-0.163-0.036-0.243-0.172-0.308c-0.092-0.101-0.393-0.122-0.298-0.295
					c0.08-0.099,0.294-0.184,0.117-0.327c-0.136-0.114-0.32-0.142-0.486-0.2C9.818,2.21,9.647,2.348,9.513,2.218
					c-0.118-0.125,0.059-0.24,0.106-0.315c-0.12,0.088-0.286,0.159-0.407,0.026C9.143,1.871,9.05,1.86,8.967,1.9
					C8.69,1.947,8.891,1.949,9.056,1.967c0.178,0,0.198,0.185,0.098,0.289c0.043,0.144,0.272,0.06,0.39,0.11
					c0.178,0.013,0.38,0.062,0.5,0.196c0.041,0.166-0.135,0.227-0.26,0.165c-0.166-0.06-0.348-0.055-0.487,0.067
					C9.155,2.849,9.183,3.052,9.039,3.115C8.808,3.29,8.554,3.457,8.304,3.594c-0.178,0.021-0.23,0.104-0.297,0.242
					C7.81,3.899,7.568,3.849,7.408,4.019C7.104,4.223,6.876,4.514,6.62,4.771C6.508,4.986,6.613,5.034,6.791,4.914z"/>
			</g>
		</g>
		<g>
			<g>
				<path fill="#FFFFFF" d="M9.096,7.184c0.043-0.049-0.093,0.021-0.099,0.014c-0.24-0.022-0.149,0.128-0.219,0.257
					C8.67,7.655,8.444,7.701,8.255,7.78C8.135,7.853,8.072,8,8.007,8.115c0.102,0.084,0.299-0.006,0.382-0.098
					c0.072-0.13,0.223-0.322,0.377-0.185c0.185,0.036,0.123,0.252-0.006,0.324C8.61,8.229,8.554,8.388,8.504,8.536
					c-0.139,0.14,0.202,0.068,0.288,0.116C8.927,8.657,9.159,8.759,9.173,8.54C9.156,8.232,9.082,7.926,9.061,7.621
					C9.161,7.48,9.036,7.323,9.096,7.184z"/>
			</g>
		</g>
	</g>
	<path fill="#FFFFFF" d="M12,0C5.373,0,0,5.373,0,12c0,6.627,5.373,12,12,12s12-5.373,12-12C24,5.373,18.627,0,12,0z M16.393,10.112
		c0.139,0.327,0.304,0.649,0.427,0.978c0.05,0.206-0.193,0.273-0.348,0.277c-0.146-0.018-0.307-0.095-0.426-0.168
		c-0.01-0.17-0.078-0.368,0.043-0.513c-0.198-0.159-0.415-0.311-0.563-0.517c-0.063-0.164-0.147-0.39,0.008-0.525
		c0.055-0.006,0.111-0.019,0.165-0.023C15.933,9.781,16.172,9.94,16.393,10.112z M9.006,1.272C9.06,1.384,8.961,1.526,8.844,1.492
		c-0.069-0.033-0.09-0.098-0.077-0.153C8.846,1.316,8.926,1.294,9.006,1.272z M0.862,12c0-2.569,0.872-4.933,2.333-6.818
		c0.017-0.011,0.03-0.02,0.049-0.033c0.154-0.068,0.273,0.136,0.356,0.237C3.63,5.503,3.373,5.59,3.566,5.633
		C3.57,5.461,3.719,5.329,3.783,5.173c0.099-0.09,0.346-0.193,0.196-0.35C3.816,4.671,3.802,4.595,4.041,4.649
		c0.153-0.012,0.324,0.059,0.379,0.204c-0.082,0.183,0.117,0.371,0.293,0.34c0.205-0.085,0.301-0.341,0.444-0.51
		C5.334,4.409,5.616,4.203,5.825,3.97C5.678,4.017,5.599,3.817,5.726,3.74c0.209-0.178,0.453-0.317,0.607-0.553
		C5.977,3.297,5.646,3.461,5.288,3.565C5.1,3.582,4.937,3.674,4.77,3.756C4.714,3.707,4.696,3.645,4.706,3.586
		C5.369,3.011,6.1,2.513,6.886,2.106C7.02,2.178,7.155,2.251,7.287,2.324C7.175,2.54,7.443,2.418,7.563,2.446
		c0.175-0.012,0.35,0.017,0.522,0.034C8.164,2.648,8,2.726,7.86,2.683c-0.176,0.024-0.298,0.151-0.387,0.3
		C7.325,3.124,7.181,2.927,7.018,2.952C6.871,3.135,6.724,3.317,6.576,3.498c0.297-0.062,0.517-0.313,0.811-0.391
		C7.354,3.182,7.15,3.423,7.236,3.367C7.57,3.141,7.884,2.883,8.235,2.68c0.161-0.132,0.32-0.264,0.48-0.397
		c-0.2-0.073-0.402,0.087-0.599,0.125C8.019,2.442,7.845,2.423,7.81,2.341c0.042-0.25,0.335-0.273,0.528-0.339
		c0.142-0.045,0.335-0.054,0.08-0.076C8.303,1.945,8.072,1.9,8.215,1.749c0.099-0.122,0.229-0.19,0.375-0.237
		c0.061,0.204,0.262,0.071,0.411,0.083c0.171,0.001,0.33-0.05,0.463-0.153c0.283-0.068,0.008-0.05-0.097-0.145
		C9.332,1.251,9.333,1.213,9.352,1.181C10.201,0.974,11.087,0.861,12,0.861c0.91,0,1.793,0.111,2.639,0.317
		c0.06,0.027,0.12,0.053,0.18,0.08c0.129,0.191,0.338,0.373,0.33,0.624c-0.116,0.127,0.209,0.056,0.289,0.139
		c0.08,0.092,0.213,0.186,0.207,0.312c-0.066,0.122-0.316,0.081-0.123,0.221c0.055,0.13-0.072,0.252-0.142,0.339
		c-0.195,0.07-0.391-0.082-0.582,0.018c-0.215,0.049-0.1,0.03-0.019,0.158c0.025,0.118-0.043,0.258,0.065,0.379
		c0.059,0.242,0.124,0.484,0.182,0.726c-0.162,0.033,0.016,0.323-0.207,0.239c-0.154-0.224-0.177-0.034-0.059,0.114
		c0.079,0.177,0.214,0.317,0.323,0.473c-0.215,0.011-0.432,0.055-0.645,0.004c0.195,0.043,0.088,0.242-0.028,0.315
		c-0.161,0.122-0.337,0.267-0.534,0.314c-0.224-0.063-0.165,0.058-0.077,0.194c0.074,0.173-0.162,0.149-0.265,0.111
		c-0.439-0.17-0.833-0.481-1.293-0.578c-0.299,0.069-0.634,0.123-0.843,0.369c-0.111,0.258-0.337,0.448-0.535,0.635
		c-0.225,0.187-0.523,0.324-0.658,0.595c-0.015,0.139-0.065,0.333,0.047,0.435c0.137-0.007,0.31-0.115,0.426-0.04
		c0.043,0.141,0.007,0.299,0.119,0.414c0.039,0.18-0.169,0.337-0.325,0.241c-0.095-0.072,0.129-0.233,0.074-0.294
		c-0.137,0.047-0.268,0.13-0.264,0.297c-0.024,0.176-0.104,0.372-0.305,0.381C9.702,8.416,9.557,8.68,9.299,8.751
		c0.048,0.125-0.175,0.148-0.252,0.208C8.91,8.984,8.773,8.998,8.634,8.969C8.601,9.142,8.285,8.954,8.356,9.15
		C8.462,9.375,8.59,9.635,8.461,9.88c-0.055,0.137-0.145,0.263-0.31,0.22c-0.248-0.032-0.484-0.158-0.729-0.225
		c-0.214,0.106-0.152,0.41-0.293,0.58c-0.112,0.152-0.118,0.343-0.178,0.517c0.1,0.12,0.348,0.164,0.301,0.37
		c-0.028,0.16-0.1,0.324-0.261,0.387c-0.194,0.135-0.406,0.277-0.546,0.467c-0.078,0.185-0.196,0.378-0.402,0.42
		c-0.215,0.068-0.427,0.148-0.585,0.321c-0.249,0.235-0.475,0.508-0.648,0.806c-0.069,0.2-0.071,0.41-0.067,0.619
		c-0.134,0.369-0.349,0.754-0.267,1.155c0.166,0.277,0.413,0.535,0.418,0.877c0.291,0.319,0.583,0.639,0.874,0.959
		c0.424,0.061,0.828,0.234,1.253,0.278c0.301,0.018,0.608-0.025,0.902,0.021c0.284,0.039,0.338,0.427,0.627,0.458
		c0.183,0.054,0.371,0.09,0.558,0.135c-0.124,0.131,0.152,0.127,0.099,0.278c-0.04,0.224-0.144,0.456-0.152,0.675
		c0.207,0.38,0.583,0.638,0.721,1.058c0.1,0.257,0.19,0.526,0.282,0.79c-0.148,0.215-0.421,0.448-0.298,0.736
		c0.262,0.36,0.477,0.759,0.77,1.092c0.062,0.06,0.121,0.125,0.18,0.188C5.167,22.423,0.862,17.715,0.862,12z M12.679,11.217
		c-0.123-0.118,0.19-0.225,0.007-0.315c-0.097-0.198,0.076-0.379,0.126-0.565c0.108-0.179,0.156-0.491,0.42-0.472
		c0.114,0.093,0.224,0.187,0.319,0.299c0.105-0.055,0.407-0.021,0.202-0.144c-0.131-0.192,0.146-0.302,0.298-0.274
		c0.122,0.085,0.104,0.295-0.033,0.344c0.307,0.108,0.6,0.282,0.857,0.492c-0.003,0.173-0.129,0.291-0.288,0.325
		c-0.312,0.082-0.644-0.021-0.965-0.005c-0.237,0.055-0.478,0.158-0.718,0.152C12.99,11.199,12.791,11.308,12.679,11.217z
		 M12.958,6.032c0.072-0.073,0.171-0.051,0.263-0.068c0.124,0.024,0.342,0.075,0.271,0.25c-0.02,0.155-0.228,0.076-0.199,0.218
		c-0.072,0.16-0.251,0.001-0.358-0.033C13.052,6.268,12.903,6.155,12.958,6.032z M13.528,7.339C13.55,7.29,13.607,7.3,13.65,7.292
		c0.133,0.035,0.138,0.231,0.019,0.277C13.537,7.598,13.414,7.441,13.528,7.339z M13.038,7.094c0.005,0.159-0.202,0.214-0.297,0.099
		c-0.105-0.096-0.08-0.222,0.006-0.319l0.007-0.009h0.014C12.874,6.889,13.002,6.986,13.038,7.094z M12.626,7.05
		c-0.014,0.162-0.074,0.314-0.214,0.404c-0.178-0.048-0.068-0.239,0.026-0.314C12.47,7.097,12.626,6.948,12.626,7.05z M11.822,6.779
		c0.02,0.17,0.012,0.435-0.203,0.457c-0.18,0.053-0.37-0.166-0.259-0.335c0.073-0.166,0.196-0.291,0.338-0.397
		c0.05-0.158,0.135-0.281,0.295-0.335c0.022-0.023,0.053-0.016,0.08-0.019c0.154,0.04,0.136,0.221,0.034,0.309
		C12.054,6.614,11.767,6.585,11.822,6.779z M11.345,7.413c0.141-0.111,0.295-0.186,0.476-0.185c0.013,0.002,0.025-0.006,0.038-0.005
		c0.094,0.017,0.341,0.018,0.289,0.148c-0.164,0.151-0.097,0.115,0.014,0.254c0.092,0.129-0.075,0.359-0.209,0.232
		c-0.104-0.242-0.125,0.016-0.167,0.149c-0.071,0.134-0.113,0.363-0.306,0.342c-0.197-0.043-0.379,0.064-0.575,0.056
		c-0.112-0.066-0.361-0.169-0.215-0.33c0.16,0.018,0.232-0.114,0.349-0.189C11.244,7.816,11.158,7.511,11.345,7.413z M12.156,13.05
		c-0.2-0.068-0.417-0.222-0.622-0.093c-0.174,0.053-0.063,0.363-0.276,0.361c-0.203,0.032-0.387-0.095-0.557-0.192
		c-0.301-0.277-0.722-0.371-1.023-0.642c-0.072-0.141,0.078-0.216,0.131-0.306c-0.049-0.116-0.031-0.264-0.062-0.358
		c-0.293-0.076-0.616-0.062-0.92-0.103c-0.354-0.015-0.707,0-1.058,0.056c-0.176-0.01-0.363-0.062-0.488-0.18
		c-0.07-0.189,0.137-0.34,0.306-0.289c0.264,0.053,0.527-0.099,0.638-0.344c0.144-0.303,0.549-0.318,0.688-0.627
		c0.166-0.186,0.422,0.038,0.622-0.074c0.152-0.023,0.375-0.14,0.468,0.044c0.079,0.175,0.137,0.361,0.301,0.476
		c0.196,0.196,0.479,0.354,0.524,0.653c0.019,0.099,0.041-0.237,0.015-0.322c0.214,0.065,0.151,0.005-0.011-0.121
		c-0.227-0.162-0.367-0.414-0.516-0.643c-0.047-0.144,0.017-0.294,0.133-0.38l0.02,0.017c0.237,0.251,0.436,0.564,0.745,0.729
		c0.25,0.155,0.162,0.506,0.313,0.731c0.078,0.178,0.139,0.375,0.305,0.491c0.088-0.084,0.125-0.231,0.271-0.219
		c0.001-0.121-0.215-0.157-0.265-0.282c-0.052-0.16,0.12-0.228,0.236-0.273c0.1-0.043,0.261-0.202,0.32-0.037
		c0.098,0.247,0.16,0.508,0.295,0.743c0.039,0.214,0.199-0.071,0.333,0.074c0.15,0.032,0.27-0.128,0.423-0.044
		c0.181,0.081,0.377-0.057,0.553-0.051c0.184,0.076,0.202,0.293,0.164,0.467c-0.025,0.27-0.097,0.548-0.224,0.779
		c-0.24,0.092-0.5-0.005-0.738,0.096C12.851,13.283,12.493,13.144,12.156,13.05z M14.135,19.467c-0.117,0.1-0.3,0.238-0.433,0.081
		c-0.049-0.158,0.041-0.346,0.207-0.387c0.079-0.047,0.218-0.116,0.292-0.075C14.295,19.233,14.255,19.356,14.135,19.467z
		 M14.327,20.836c0.117,0.161,0.034,0.361,0,0.536c-0.136-0.083-0.23-0.185-0.196-0.357C14.119,20.878,14.222,20.79,14.327,20.836z
		 M13.503,20.436c-0.077,0.117-0.268-0.019-0.326-0.131c0.004-0.048,0.021-0.112,0.078-0.115
		C13.372,20.217,13.577,20.272,13.503,20.436z M13.524,23.032c0.129-0.093,0.253-0.194,0.358-0.316
		c0.151-0.08,0.384-0.132,0.355-0.353c-0.005-0.146,0.001-0.293,0.134-0.38c0.349-0.223,0.692-0.449,1.025-0.696
		c0.004-0.251-0.005-0.499-0.111-0.73c-0.089-0.158,0.06-0.326-0.026-0.49c0-0.145,0.052-0.299,0.06-0.445
		c0.515-0.592,1.043-1.174,1.551-1.772c0.232-0.425,0.459-0.86,0.579-1.335c-0.1-0.137-0.28,0.069-0.404,0.097
		c-0.293,0.143-0.575,0.299-0.896,0.35c-0.242-0.307-0.521-0.58-0.803-0.848c-0.099,0.118-0.313,0.006-0.266-0.147
		c-0.103-0.302-0.407-0.478-0.475-0.798c-0.041-0.223-0.253-0.325-0.33-0.526c-0.147-0.247-0.269-0.523-0.359-0.788
		c0.025-0.188,0.215-0.155,0.329-0.073c0.237,0.243,0.47,0.526,0.685,0.792c0.179,0.472,0.608,0.768,0.872,1.179
		c0.102,0.215,0.174,0.446,0.313,0.642c0.349-0.068,0.611-0.348,0.896-0.532c0.331-0.224,0.57-0.553,0.883-0.796
		c0.168-0.166,0.328-0.336,0.402-0.568c0.12-0.207,0.14-0.45,0.2-0.679c-0.14-0.098-0.304-0.131-0.466-0.166
		c-0.13-0.03-0.127-0.395-0.237-0.162c-0.106,0.137-0.166,0.334-0.359,0.365c-0.092,0.055-0.323,0.155-0.332-0.019
		c0.004-0.234-0.053-0.162-0.198-0.129c-0.112-0.071-0.153-0.245-0.276-0.322c-0.113-0.128-0.351-0.29-0.227-0.48
		c0.101-0.056,0.172-0.287,0.229-0.262c0.173,0.224,0.355,0.468,0.654,0.505c0.223,0.085,0.436-0.03,0.626-0.144
		c0.106-0.041,0.376-0.249,0.215-0.021c-0.159,0.172,0.101,0.197,0.219,0.147c0.389-0.038,0.73-0.284,1.083-0.412
		c0.326,0.204,0.65,0.437,1.037,0.485c0.283,0.064,0.323,0.411,0.482,0.614c0.203,0.355,0.428,0.695,0.656,1.032
		c0.157,0.032,0.116-0.224,0.273-0.238c0.092,0.023,0.143,0.225,0.186,0.326c0.122-0.203-0.111-0.395-0.173-0.586
		c-0.141-0.283-0.14-0.616-0.199-0.925c0.194-0.605,0.262-1.242,0.446-1.848c0.049-0.166,0.137-0.321,0.229-0.461
		c0.194-0.092,0.344,0.131,0.468,0.249c0.116,0.083,0.154,0.366,0.198,0.084c0.025-0.043,0.051-0.196,0.077-0.273
		c0.019,0.27,0.033,0.54,0.033,0.815C23.138,17.634,18.953,22.289,13.524,23.032z"/>
</g>
</svg>
