<?xml version="1.0" encoding="utf-8"?>
<!-- Generator: Adobe Illustrator 19.2.0, SVG Export Plug-In . SVG Version: 6.00 Build 0)  -->
<!DOCTYPE svg PUBLIC "-//W3C//DTD SVG 1.1//EN" "http://www.w3.org/Graphics/SVG/1.1/DTD/svg11.dtd">
<svg version="1.1" id="Layer_1" xmlns="http://www.w3.org/2000/svg" xmlns:xlink="http://www.w3.org/1999/xlink" x="0px" y="0px"
	 viewBox="0 0 58.5 35" enable-background="new 0 0 58.5 35" xml:space="preserve">
<g id="YouTube_logo_dark_color_3_">
	<path id="u_2_" fill="#8B8B8B" d="M22.75,25h-2v-1.324c-1,0.873-1.304,1.314-2.008,1.314c-0.618,0-0.801-0.291-1.015-0.818
		c-0.13-0.32,0.023-0.82,0.023-1.554V14h2v8.089c0,0.449,0,0.635,0,0.74c0,0.297-0.12,0.405,0.135,0.405
		c0.385,0,0.865-0.334,0.865-0.934V14h2V25z"/>
	<path id="o_2_" fill="#8B8B8B" d="M15.75,17.647c0-1.142-0.164-1.999-0.57-2.539c-0.536-0.731-1.342-1.03-2.189-1.03
		c-0.958,0-1.671,0.299-2.205,1.03c-0.412,0.54-0.625,1.406-0.625,2.548l0.002,3.799c0,1.135,0.198,1.92,0.61,2.454
		c0.535,0.729,1.403,1.115,2.249,1.115c0.846,0,1.664-0.386,2.199-1.115c0.405-0.534,0.528-1.319,0.528-2.454V17.647z M13.87,21.666
		c0.106,1.058-0.436,1.583-1.061,1.583c-0.624,0-1.06-0.525-1.06-1.583v-4.231c0-1.058,0.436-1.554,1.06-1.554
		s1.06,0.496,0.954,1.554L13.87,21.666z"/>
	<path id="y_2_" fill="#8B8B8B" d="M7.75,19.022V25h-2v-5.978c0,0-2.112-7.022-2.564-8.022h2.221l1.484,5.572L8.369,11h2.221
		L7.75,19.022z"/>
	<g>
		<path fill="#8B8B8B" d="M43.794,15.855c-0.315,0-0.754,0.166-1.074,0.482l-0.041,6.416c0.32,0.32,0.819,0.482,1.134,0.482
			c0.552,0,0.937-0.405,0.937-1.463v-4.548C44.75,16.166,44.346,15.855,43.794,15.855z"/>
		<path fill="#8B8B8B" d="M51.75,17.127c0-0.978-0.354-1.272-0.988-1.272c-0.64,0-1.012,0.269-1.012,1.258v1.17l2-0.002V17.127z"/>
		<path fill="#8B8B8B" d="M55.652,11.713c0,0-0.199-2.167-1.147-3.121c-1.201-1.252-2.493-1.23-3.11-1.303
			C46.975,6.971,40.399,7,40.399,7h-0.014c0,0-6.631-0.029-11.051,0.289c-0.618,0.073-1.964,0.065-3.165,1.317
			c-0.947,0.954-1.179,3.114-1.179,3.114s-0.24,2.537-0.24,5.082v2.386c0,2.545,0.24,5.089,0.24,5.089s0.27,2.167,1.217,3.121
			c1.201,1.253,2.761,1.213,3.464,1.344c2.527,0.242,10.73,0.316,10.73,0.316s6.633-0.01,11.053-0.328
			c0.617-0.073,1.961-0.08,3.162-1.332c0.947-0.954,1.036-3.121,1.036-3.121s0.097-2.544,0.097-5.089v-2.386
			C55.75,14.257,55.652,11.713,55.652,11.713z M31.75,25h-2V13h-3v-2.333l7-0.002V13h-2V25z M38.75,25h-2v-1.324
			c0,0.873-1.212,1.314-1.916,1.314c-0.618,0-0.847-0.291-1.061-0.818c-0.131-0.32-0.023-0.82-0.023-1.554V14h2v8.089
			c0,0.449,0,0.635,0,0.74c0,0.297-0.121,0.405,0.135,0.405c0.385,0,0.865-0.334,0.865-0.934V14h2V25z M46.75,21.666
			c0,0.978-0.233,1.667-0.361,2.116c-0.256,0.786-0.888,1.194-1.65,1.194c-0.681,0-1.416-0.329-2.056-1.121L42.643,25H40.75V11
			h1.893l-0.002,4.454c0.619-0.761,1.319-1.278,2.023-1.278c0.763,0,1.425,0.399,1.68,1.19c0.128,0.425,0.406,1.068,0.406,2.069
			V21.666z M50.669,23.235c0.471,0,0.741-0.325,0.851-0.837C51.537,22.294,51.529,22,51.529,21h2.221v0.437
			c0,0.617-0.156,1.054-0.174,1.246c-0.065,0.424-0.268,0.808-0.501,1.147c-0.53,0.768-1.342,1.146-2.343,1.146
			c-1.002,0-1.763-0.361-2.317-1.083c-0.407-0.529-0.666-1.315-0.666-2.438v-3.702c0-1.13,0.223-2.003,0.63-2.538
			c0.554-0.723,1.309-1.106,2.287-1.106c0.961,0,1.823,0.383,2.36,1.106c0.401,0.534,0.723,1.361,0.723,2.491V20h-4v1.768
			C49.75,22.744,50.011,23.235,50.669,23.235z"/>
	</g>
</g>
</svg>
